# Blender v2.91.0 OBJ File: ''
# www.blender.org
mtllib tFKd5zx2.mtl
o tFKd5zx2
v 0.000000 20.000000 -20.000000
v 0.000000 0.000000 -20.000000
v 0.000000 20.000000 0.000000
v 0.000000 0.000000 0.000000
v 5.040344 3.680854 -0.000000
v 6.652802 3.680854 -0.000000
v 12.535217 3.680854 -0.000000
v 9.553085 8.576234 0.000000
v 14.316742 3.680869 0.000000
v 20.000000 0.000000 0.000000
v 5.257626 15.985729 -0.000000
v 8.585594 10.067484 -0.000000
v 6.904907 15.991924 0.000000
v 9.535187 11.336412 0.000000
v 12.473900 15.991924 0.000000
v 10.307495 10.021875 0.000000
v 14.100838 15.956669 -0.000000
v 20.000000 20.000000 0.000000
v 6.322191 20.000000 -4.427241
v 6.322191 20.000000 -4.007070
v 14.112187 20.000000 -4.007070
v 14.112187 20.000000 -5.519688
v 6.406224 20.000000 -14.805497
v 6.406224 20.000000 -16.318121
v 20.000000 20.000000 -20.000000
v 13.927311 20.000000 -16.318121
v 13.927311 20.000000 -15.897944
v 8.616332 20.000000 -5.519688
v 11.616364 20.000000 -14.805497
v 20.000000 0.000000 -20.000000
v 20.000000 9.229810 -10.450918
v 20.000000 3.717465 -10.510590
v 20.000000 3.699273 -8.829998
v 20.000000 9.211618 -8.770327
v 20.000000 16.070559 -14.326719
v 20.000000 16.051821 -12.595710
v 20.000000 15.985423 -6.461553
v 20.000000 10.640724 -9.586849
v 20.000000 15.966685 -4.730542
v 14.100838 15.955086 -1.901568
v 10.307495 10.020296 -1.896627
v 14.316742 3.679295 -1.891348
v 12.535217 3.679280 -1.891348
v 9.553085 8.574656 -1.895423
v 6.652802 3.679280 -1.891348
v 5.040344 3.679280 -1.891348
v 8.585594 10.065905 -1.896665
v 5.257626 15.984146 -1.901592
v 6.904907 15.990341 -1.901597
v 9.535187 11.334833 -1.897721
v 12.473900 15.990341 -1.901597
v 13.927311 18.000000 -15.897944
v 8.616332 18.000000 -5.519688
v 13.927311 18.000000 -16.318121
v 6.406224 18.000000 -16.318121
v 6.406224 18.000000 -14.805497
v 11.616364 18.000000 -14.805497
v 6.322191 18.000000 -4.427241
v 6.322191 18.000000 -4.007070
v 14.112187 18.000000 -4.007070
v 14.112187 18.000000 -5.519688
v 18.062313 9.232793 -10.450058
v 18.071125 16.073528 -14.325864
v 18.071863 16.054789 -12.594854
v 18.064869 10.643703 -9.585991
v 18.074482 15.988387 -6.460699
v 18.075220 15.969648 -4.729689
v 18.063030 9.214601 -8.769467
v 18.054518 3.702268 -8.829135
v 18.053801 3.720460 -10.509727
vt 0.666752 0.333448
vt 0.666752 0.666822
vt 0.999483 0.333385
vt 0.999483 0.666761
vt 0.061356 0.417394
vt 0.000000 0.333377
vt 0.061356 0.444272
vt 0.061356 0.542325
vt 0.142956 0.492616
vt 0.061356 0.572021
vt 0.000000 0.666754
vt 0.333377 0.333377
vt 0.266464 0.421016
vt 0.167813 0.476489
vt 0.266567 0.448474
vt 0.188965 0.492318
vt 0.266567 0.541303
vt 0.167053 0.505191
vt 0.265979 0.568422
vt 0.333377 0.666754
vt 0.259581 0.227993
vt 0.266584 0.227993
vt 0.333378 0.000000
vt 0.266584 0.098143
vt 0.241369 0.098143
vt 0.086586 0.226593
vt 0.000000 0.333378
vt 0.061373 0.226593
vt 0.000000 0.000000
vt 0.061373 0.101225
vt 0.068377 0.101225
vt 0.241369 0.189753
vt 0.086586 0.139746
vt 0.666746 0.333380
vt 0.333377 0.333380
vt 0.333377 0.666758
vt 0.666747 0.666758
vt 0.666752 0.333380
vt 0.666752 0.000006
vt 0.333378 0.000000
vt 0.333378 0.333374
vt 0.825863 0.153854
vt 0.824869 0.061970
vt 0.666752 0.000000
vt 1.000000 0.000008
vt 0.852871 0.061667
vt 0.853867 0.153551
vt 0.761282 0.267880
vt 0.666752 0.333377
vt 0.790125 0.267568
vt 0.892336 0.266464
vt 0.840260 0.177373
vt 0.921179 0.266152
vt 1.000000 0.333385
vt 0.467187 0.871410
vt 0.498822 0.871369
vt 0.463227 0.772296
vt 0.494781 0.772255
vt 0.467357 0.666798
vt 0.498822 0.666757
vt 0.729783 0.792190
vt 0.700088 0.792190
vt 0.700088 0.823717
vt 0.729783 0.823717
vt 0.733426 0.758432
vt 0.733493 0.840001
vt 0.765003 0.758966
vt 0.765003 0.840534
vt 0.798276 0.757815
vt 0.766763 0.756688
vt 0.798276 0.839615
vt 0.766831 0.838490
vt 0.760303 0.840534
vt 0.733426 0.840534
vt 0.760303 0.872060
vt 0.733426 0.872060
vt 0.530426 0.773278
vt 0.532011 0.666769
vt 0.498822 0.773267
vt 0.500496 0.666757
vt 0.532011 0.871880
vt 0.500326 0.871868
vt 0.831276 0.864002
vt 0.858734 0.864003
vt 0.831276 0.832305
vt 0.858734 0.832306
vt 0.831276 0.832305
vt 0.862892 0.831186
vt 0.831341 0.754786
vt 0.862892 0.753670
vt 0.864038 0.744478
vt 0.864038 0.666822
vt 0.832357 0.745006
vt 0.832421 0.667348
vt 0.793885 0.839615
vt 0.766764 0.839617
vt 0.766764 0.871314
vt 0.793885 0.871312
vt 0.596880 0.844965
vt 0.630217 0.844923
vt 0.596889 0.666799
vt 0.630228 0.666757
vt 0.596889 0.851955
vt 0.630228 0.851913
vt 0.733427 0.666822
vt 0.700089 0.666822
vt 0.733427 0.792190
vt 0.700089 0.792190
vt 0.824223 0.876152
vt 0.824223 0.842813
vt 0.799019 0.842813
vt 0.799019 0.876152
vt 0.832355 0.666822
vt 0.799019 0.666822
vt 0.799019 0.753670
vt 0.832355 0.753670
vt 0.663567 0.673772
vt 0.630228 0.673758
vt 0.663568 0.849144
vt 0.630232 0.849131
vt 0.663568 0.666771
vt 0.630232 0.666757
vt 0.700089 0.666822
vt 0.666752 0.666822
vt 0.666752 0.796673
vt 0.700089 0.796673
vt 0.630229 0.849148
vt 0.630229 0.882486
vt 0.655393 0.882481
vt 0.655393 0.849144
vt 0.733425 0.758432
vt 0.766764 0.758432
vt 0.733425 0.666822
vt 0.766764 0.666822
vt 0.532143 0.758643
vt 0.532299 0.872602
vt 0.564442 0.758646
vt 0.564451 0.872606
vt 0.695606 0.796673
vt 0.666751 0.796684
vt 0.695606 0.828825
vt 0.666751 0.828825
vt 0.766764 0.756688
vt 0.799021 0.756683
vt 0.766880 0.666826
vt 0.799021 0.666822
vt 0.799019 0.753670
vt 0.799160 0.842813
vt 0.831276 0.753670
vt 0.831255 0.842813
vt 0.700088 0.855814
vt 0.728943 0.855801
vt 0.700088 0.823717
vt 0.728943 0.823717
vt 0.596739 0.758646
vt 0.564451 0.758646
vt 0.596550 0.871691
vt 0.564466 0.871691
vt 0.596880 0.666757
vt 0.564451 0.666757
vt 0.666751 0.861254
vt 0.694765 0.861267
vt 0.694765 0.828825
vt 0.666751 0.828825
vt 0.532011 0.666757
vt 0.564451 0.666761
vt 0.189599 0.666754
vt 0.159904 0.666754
vt 0.226733 0.772451
vt 0.239308 0.748354
vt 0.287653 0.666754
vt 0.255435 0.773211
vt 0.314530 0.666754
vt 0.239607 0.794363
vt 0.163503 0.871377
vt 0.190621 0.871965
vt 0.283450 0.871965
vt 0.310908 0.871862
vt 0.371618 0.846754
vt 0.333377 0.864965
vt 0.333377 0.871969
vt 0.463227 0.871969
vt 0.463227 0.846754
vt 0.421625 0.691971
vt 0.334778 0.666758
vt 0.334778 0.691971
vt 0.460145 0.666758
vt 0.460145 0.673761
vt 0.065813 0.758644
vt 0.093820 0.666754
vt 0.065815 0.666754
vt 0.093817 0.758644
vt 0.079954 0.782316
vt 0.131059 0.871965
vt 0.159904 0.871965
vt 0.028844 0.871965
vt 0.000000 0.871965
vn -1.0000 0.0000 0.0000
vn 0.0000 0.0000 1.0000
vn 0.0000 1.0000 0.0000
vn 0.0000 0.0000 -1.0000
vn 0.0000 -1.0000 0.0000
vn 1.0000 0.0000 0.0000
vn -0.8426 0.5386 -0.0004
vn -0.8452 -0.5344 0.0004
vn -0.0000 1.0000 -0.0008
vn 0.8540 0.5202 -0.0004
vn -0.8603 0.5097 -0.0004
vn 0.8743 -0.4853 0.0004
vn 0.8716 0.4901 -0.0004
vn 0.0038 -1.0000 0.0008
vn -0.8707 -0.4919 0.0004
vn 0.8456 -0.5338 0.0004
vn -0.0217 -0.9998 0.0008
vn -0.8902 0.0000 -0.4556
vn 0.8908 0.0000 0.4544
vn 0.0011 0.4930 0.8701
vn -0.0015 -0.9999 -0.0108
vn -0.0011 -0.4860 -0.8740
vn -0.0004 -0.5048 0.8632
vn 0.0004 0.5133 -0.8582
vn -0.0004 0.0108 -0.9999
vn 0.0015 0.9999 0.0108
vn 0.0004 -0.0108 0.9999
vn -0.0000 0.0008 1.0000
vn 1.0000 -0.0015 -0.0004
usemtl None
s off
f 1/1/1 2/2/1 3/3/1
f 2/2/1 4/4/1 3/3/1
f 5/5/2 4/6/2 6/7/2
f 6/7/2 4/6/2 7/8/2
f 6/7/2 7/8/2 8/9/2
f 9/10/2 7/8/2 10/11/2
f 7/8/2 4/6/2 10/11/2
f 3/12/2 4/6/2 11/13/2
f 5/5/2 12/14/2 11/13/2
f 4/6/2 5/5/2 11/13/2
f 3/12/2 11/13/2 13/15/2
f 13/15/2 14/16/2 15/17/2
f 3/12/2 13/15/2 15/17/2
f 16/18/2 9/10/2 17/19/2
f 9/10/2 10/11/2 17/19/2
f 15/17/2 17/19/2 18/20/2
f 17/19/2 10/11/2 18/20/2
f 3/12/2 15/17/2 18/20/2
f 19/21/3 3/12/3 20/22/3
f 18/23/3 21/24/3 20/22/3
f 18/23/3 22/25/3 21/24/3
f 18/23/3 20/22/3 3/12/3
f 23/26/3 1/27/3 3/12/3
f 23/26/3 3/12/3 19/21/3
f 24/28/3 1/27/3 23/26/3
f 25/29/3 26/30/3 27/31/3
f 25/29/3 22/25/3 18/23/3
f 25/29/3 27/31/3 22/25/3
f 25/29/3 1/27/3 24/28/3
f 25/29/3 24/28/3 26/30/3
f 27/31/3 28/32/3 22/25/3
f 19/21/3 29/33/3 23/26/3
f 25/34/4 30/35/4 2/36/4
f 25/34/4 2/36/4 1/37/4
f 4/38/5 2/39/5 30/40/5
f 10/41/5 4/38/5 30/40/5
f 31/42/6 32/43/6 30/44/6
f 10/45/6 32/43/6 33/46/6
f 10/45/6 30/44/6 32/43/6
f 34/47/6 10/45/6 33/46/6
f 35/48/6 30/44/6 25/49/6
f 35/48/6 31/42/6 30/44/6
f 36/50/6 35/48/6 25/49/6
f 37/51/6 38/52/6 36/50/6
f 39/53/6 10/45/6 34/47/6
f 18/54/6 39/53/6 37/51/6
f 18/54/6 37/51/6 36/50/6
f 18/54/6 36/50/6 25/49/6
f 18/54/6 10/45/6 39/53/6
f 17/55/7 40/56/7 16/57/7
f 16/57/7 40/56/7 41/58/7
f 16/57/8 41/58/8 9/59/8
f 9/59/8 41/58/8 42/60/8
f 7/61/9 9/62/9 42/63/9
f 7/61/9 42/63/9 43/64/9
f 8/65/10 7/66/10 44/67/10
f 7/66/10 43/68/10 44/67/10
f 8/69/11 44/70/11 6/71/11
f 6/71/11 44/70/11 45/72/11
f 5/73/9 6/74/9 46/75/9
f 6/74/9 45/76/9 46/75/9
f 12/77/12 5/78/12 47/79/12
f 5/78/12 46/80/12 47/79/12
f 11/81/13 12/77/13 48/82/13
f 12/77/13 47/79/13 48/82/13
f 13/83/14 11/84/14 49/85/14
f 11/84/14 48/86/14 49/85/14
f 13/87/15 49/88/15 14/89/15
f 14/89/15 49/88/15 50/90/15
f 15/91/16 14/92/16 51/93/16
f 14/92/16 50/94/16 51/93/16
f 17/95/17 15/96/17 51/97/17
f 17/95/17 51/97/17 40/98/17
f 27/99/18 52/100/18 28/101/18
f 28/101/18 52/100/18 53/102/18
f 27/99/1 26/103/1 54/104/1
f 27/99/1 54/104/1 52/100/1
f 24/105/2 55/106/2 26/107/2
f 26/107/2 55/106/2 54/108/2
f 23/109/6 56/110/6 55/111/6
f 24/112/6 23/109/6 55/111/6
f 29/113/4 57/114/4 56/115/4
f 23/116/4 29/113/4 56/115/4
f 19/117/19 58/118/19 29/119/19
f 29/119/19 58/118/19 57/120/19
f 19/117/6 20/121/6 59/122/6
f 19/117/6 59/122/6 58/118/6
f 21/123/4 60/124/4 59/125/4
f 20/126/4 21/123/4 59/125/4
f 22/127/1 61/128/1 60/129/1
f 21/130/1 22/127/1 60/129/1
f 28/131/2 53/132/2 22/133/2
f 22/133/2 53/132/2 61/134/2
f 31/135/20 35/136/20 62/137/20
f 35/136/20 63/138/20 62/137/20
f 35/139/21 36/140/21 63/141/21
f 36/140/21 64/142/21 63/141/21
f 38/143/22 65/144/22 36/145/22
f 36/145/22 65/144/22 64/146/22
f 38/147/23 37/148/23 65/149/23
f 37/148/23 66/150/23 65/149/23
f 37/151/21 39/152/21 66/153/21
f 39/152/21 67/154/21 66/153/21
f 34/155/24 68/156/24 39/157/24
f 39/157/24 68/156/24 67/158/24
f 33/159/25 69/160/25 34/155/25
f 34/155/25 69/160/25 68/156/25
f 33/161/26 32/162/26 70/163/26
f 33/161/26 70/163/26 69/164/26
f 32/165/27 31/135/27 70/166/27
f 31/135/27 62/137/27 70/166/27
f 43/167/28 42/168/28 41/169/28
f 44/170/28 43/167/28 41/169/28
f 45/171/28 44/170/28 47/172/28
f 46/173/28 45/171/28 47/172/28
f 44/170/28 41/169/28 47/172/28
f 47/172/28 41/169/28 50/174/28
f 41/169/28 40/175/28 51/176/28
f 50/174/28 41/169/28 51/176/28
f 47/172/28 50/174/28 49/177/28
f 47/172/28 49/177/28 48/178/28
f 53/179/3 58/180/3 59/181/3
f 60/182/3 53/179/3 59/181/3
f 61/183/3 53/179/3 60/182/3
f 57/184/3 55/185/3 56/186/3
f 54/187/3 55/185/3 57/184/3
f 54/187/3 57/184/3 52/188/3
f 57/184/3 58/180/3 53/179/3
f 57/184/3 53/179/3 52/188/3
f 62/189/29 69/190/29 70/191/29
f 62/189/29 68/192/29 69/190/29
f 65/193/29 68/192/29 62/189/29
f 66/194/29 67/195/29 68/192/29
f 66/194/29 68/192/29 65/193/29
f 64/196/29 65/193/29 62/189/29
f 63/197/29 64/196/29 62/189/29
