# Blender v2.91.0 OBJ File: ''
# www.blender.org
mtllib yQ9jqw7O.mtl
o yQ9jqw7O
v -20.857353 18.837067 1.939608
v -7.039864 3.368148 0.313759
v -17.039864 3.368148 0.313759
v -4.686684 8.285418 0.830585
v -4.686684 11.725132 1.192113
v -13.405266 18.506754 1.904891
v -4.060890 17.055252 1.752331
v -5.014481 16.006153 1.642067
v -3.674438 19.849524 2.046021
v -19.680649 24.196840 2.502943
v -13.514732 27.075668 2.805520
v -3.674438 19.849524 8.581496
v -4.060890 17.055252 8.875186
v -13.514732 27.075668 7.821998
v -19.680649 24.196840 8.124576
v -20.857353 18.837067 8.687910
v -17.039864 3.368148 10.313759
v -4.686684 8.285418 9.796933
v -7.039864 3.368148 10.313759
v -20.039864 -0.631852 -2.686241
v -20.039864 -2.631852 13.313759
v -20.039864 -0.631852 13.313759
v -20.039864 -2.631852 -2.686241
v -4.039864 -2.631852 -2.686241
v -4.039864 -2.631852 13.313759
v -4.039864 -0.631852 -2.686241
v -4.039864 -0.631852 13.313759
v -4.686684 11.725132 9.435405
v -7.158279 13.647627 6.630110
v -13.405266 18.506754 8.722628
v -7.158279 13.647627 4.000366
v -5.014481 16.006153 8.985451
vt 0.341164 0.164446
vt 0.066818 0.473213
vt 0.265366 0.473213
vt 0.020096 0.375063
vt 0.020096 0.306404
vt 0.193207 0.171040
vt 0.007675 0.200012
vt 0.026604 0.220953
vt 0.000000 0.144238
vt 0.317802 0.057463
vt 0.195374 0.000000
vt 0.441028 0.597004
vt 0.576619 0.627834
vt 0.582450 0.597004
vt 0.446859 0.627834
vt 0.461938 0.869316
vt 0.561539 0.869316
vt 0.791361 0.472397
vt 0.896969 0.341331
vt 0.785353 0.341331
vt 0.890963 0.472397
vt 0.908154 0.256111
vt 0.774168 0.256111
vt 0.940435 0.121334
vt 0.741888 0.121334
vt 0.629173 0.597003
vt 0.582451 0.785289
vt 0.629173 0.795550
vt 0.582451 0.607265
vt 1.000000 0.025032
vt 0.682323 0.000000
vt 0.682323 0.025032
vt 1.000000 0.000000
vt 0.000000 0.597003
vt 0.317673 0.914679
vt 0.317673 0.597003
vt 0.000000 0.914679
vt 0.324928 0.557440
vt 0.007256 0.597004
vt 0.324928 0.597004
vt 0.007256 0.557440
vt 0.317673 0.914680
vt 0.343864 0.597004
vt 0.317673 0.597004
vt 0.343864 0.914680
vt 0.675072 0.557440
vt 0.357391 0.597004
vt 0.675072 0.597004
vt 0.357391 0.557440
vt 0.615509 0.473213
vt 0.416962 0.473213
vt 0.853171 0.517448
vt 0.797472 0.579510
vt 0.839019 0.736370
vt 0.745260 0.579510
vt 0.689502 0.517448
vt 0.703654 0.736370
vt 0.682324 0.472397
vt 0.860349 0.472397
vt 0.441025 0.656569
vt 0.441025 0.855116
vt 0.674652 0.200012
vt 0.489120 0.171040
vt 0.655716 0.220953
vt 0.682327 0.144238
vt 0.341164 0.164446
vt 0.364525 0.057463
vt 0.486946 0.000000
vt 0.662231 0.375063
vt 0.662231 0.306404
vt 0.613152 0.263607
vt 0.724892 0.882170
vt 0.743828 0.738559
vt 0.724892 0.736369
vt 0.743828 0.879981
vt 0.069168 0.263601
vt 0.682327 0.783134
vt 0.682327 0.835346
vn 0.0000 0.1045 -0.9945
vn 0.9906 -0.1370 0.0000
vn 0.5919 0.8060 0.0000
vn -0.4231 0.9061 0.0000
vn -0.9767 0.2144 0.0000
vn -0.9709 -0.2396 0.0000
vn 0.9020 -0.4317 0.0000
vn -1.0000 0.0000 0.0000
vn 0.0000 -1.0000 0.0000
vn 0.0000 0.0000 -1.0000
vn 1.0000 0.0000 0.0000
vn 0.0000 0.0000 1.0000
vn -0.8000 0.6000 0.0000
vn 0.0000 0.6000 0.8000
vn 0.6140 0.7893 0.0000
vn 0.8000 0.6000 0.0000
vn 0.0000 0.6000 -0.8000
vn 0.0000 0.1045 0.9945
vn -0.2015 -0.5943 0.7786
vn 0.7400 -0.6726 0.0000
vn -0.2016 -0.5948 -0.7782
usemtl None
s off
f 1/1/1 2/2/1 3/3/1
f 2/2/1 1/1/1 4/4/1
f 4/4/1 1/1/1 5/5/1
f 5/5/1 1/1/1 6/6/1
f 6/6/1 7/7/1 8/8/1
f 7/7/1 6/6/1 9/9/1
f 9/9/1 6/6/1 1/1/1
f 9/9/1 1/1/1 10/10/1
f 9/9/1 10/10/1 11/11/1
f 7/12/2 12/13/2 13/14/2
f 12/13/2 7/12/2 9/15/2
f 12/13/3 11/16/3 14/17/3
f 11/16/3 12/13/3 9/15/3
f 14/18/4 10/19/4 15/20/4
f 10/19/4 14/18/4 11/21/4
f 15/20/5 1/22/5 16/23/5
f 1/22/5 15/20/5 10/19/5
f 16/23/6 3/24/6 17/25/6
f 3/24/6 16/23/6 1/22/6
f 2/26/7 18/27/7 19/28/7
f 18/27/7 2/26/7 4/29/7
f 20/30/8 21/31/8 22/32/8
f 21/31/8 20/30/8 23/33/8
f 24/34/9 21/35/9 23/36/9
f 21/35/9 24/34/9 25/37/9
f 20/38/10 24/39/10 23/40/10
f 24/39/10 20/38/10 26/41/10
f 24/42/11 27/43/11 25/44/11
f 27/43/11 24/42/11 26/45/11
f 27/46/12 21/47/12 25/48/12
f 21/47/12 27/46/12 22/49/12
f 17/25/13 20/30/13 22/32/13
f 20/30/13 17/25/13 3/24/13
f 19/50/14 22/49/14 27/46/14
f 22/49/14 19/50/14 17/51/14
f 28/52/15 29/53/15 30/54/15
f 29/53/15 28/52/15 31/55/15
f 31/55/15 5/56/15 6/57/15
f 5/56/15 31/55/15 28/52/15
f 4/58/11 28/52/11 18/59/11
f 28/52/11 4/58/11 5/56/11
f 26/45/16 19/60/16 27/43/16
f 19/60/16 26/45/16 2/61/16
f 3/3/17 26/41/17 20/38/17
f 26/41/17 3/3/17 2/2/17
f 13/62/18 30/63/18 32/64/18
f 30/63/18 13/62/18 12/65/18
f 30/63/18 12/65/18 16/66/18
f 16/66/18 12/65/18 15/67/18
f 15/67/18 12/65/18 14/68/18
f 18/69/18 17/51/18 19/50/18
f 17/51/18 18/69/18 16/66/18
f 16/66/18 18/69/18 28/70/18
f 16/66/18 28/70/18 30/63/18
f 30/63/19 29/71/19 32/64/19
f 8/72/20 13/73/20 32/74/20
f 13/73/20 8/72/20 7/75/20
f 6/6/21 8/8/21 31/76/21
f 29/77/20 8/72/20 32/74/20
f 8/72/20 29/77/20 31/78/20
