# Blender v2.91.0 OBJ File: ''
# www.blender.org
mtllib DAo9CYAq.mtl
o DAo9CYAq
v 4.830292 6.000000 5.145651
v -7.169708 2.000000 8.132782
v 7.830292 2.000000 8.132782
v -4.169708 6.000000 5.132782
v -7.169708 2.000000 -6.867218
v -4.169708 6.000000 -3.867218
v 3.330292 24.500000 3.644041
v -2.669708 18.500000 3.634389
v 3.330292 18.500000 3.644041
v -2.669708 24.500000 3.634389
v -2.669708 24.500000 -2.367218
v 3.330292 18.500000 -2.367218
v -2.669708 18.500000 -2.367218
v 3.330292 24.500000 -2.367218
v -2.169708 16.000000 3.135639
v 4.330292 17.500000 4.645651
v -3.669708 17.500000 4.632782
v 0.330292 16.000000 3.139215
v 2.830292 16.000000 3.142789
v -3.669708 17.500000 -3.367218
v 0.330292 16.000000 -1.867218
v -2.169708 16.000000 -1.867218
v 2.830292 16.000000 -1.867218
v 4.330292 17.500000 -3.367218
v 7.830292 2.000000 -6.867218
v 4.830292 6.000000 -3.867218
v -7.169708 0.000000 8.132782
v -7.169708 0.000000 -6.867218
v 7.830292 0.000000 -6.867218
v 7.830292 0.000000 8.132782
v -3.669708 18.500000 -3.367218
v -3.669708 18.500000 4.632782
v 4.330292 18.500000 4.645651
v 4.330292 18.500000 -3.367218
vt 0.599930 0.584743
vt 0.333336 0.676791
vt 0.666672 0.676791
vt 0.399933 0.584730
vt 0.600000 0.224140
vt 0.333333 0.316202
vt 0.666667 0.316202
vt 0.400000 0.224140
vt 0.333338 0.721184
vt 0.466505 0.854515
vt 0.466509 0.721184
vt 0.333334 0.854515
vt 0.466509 0.721184
vt 0.599680 0.854515
vt 0.599680 0.721184
vt 0.466509 0.854515
vt 0.133171 0.854554
vt 0.266342 0.721185
vt 0.133171 0.721185
vt 0.266342 0.854554
vt 0.000000 0.854768
vt 0.133172 0.721185
vt 0.000000 0.721185
vt 0.133172 0.854768
vt 0.700005 0.572212
vt 0.844452 0.538656
vt 0.666672 0.538942
vt 0.755562 0.572133
vt 0.811119 0.572053
vt 0.666672 0.716720
vt 0.755562 0.683387
vt 0.700005 0.683387
vt 0.811119 0.683387
vt 0.844452 0.716720
vt 0.266670 0.224140
vt 0.000000 0.316202
vt 0.066666 0.224140
vt 0.666667 0.360592
vt 0.333333 0.360592
vt 0.555619 0.000000
vt 0.444444 0.000000
vt 0.555450 0.360600
vt 0.444336 0.360593
vt 0.222221 0.000000
vt 0.111115 0.000000
vt 0.666667 0.333333
vt 0.666667 0.333333
vt 0.666667 0.333333
vt 0.266666 0.584733
vt 0.110889 0.360593
vt 0.066381 0.584733
vt 0.222221 0.360593
vt 0.000000 0.360593
vt 0.333336 0.721182
vt 0.666672 0.721182
vt 0.333334 0.721186
vt 0.000000 0.676795
vt 0.000000 0.721186
vt 0.333334 0.676795
vt 0.866642 0.716434
vt 0.888838 0.538656
vt 0.866642 0.538656
vt 0.888838 0.716434
vt 0.866642 0.360592
vt 0.844447 0.538656
vt 0.866642 0.538656
vt 0.844447 0.360592
vt 0.866642 0.360596
vt 0.888838 0.538376
vt 0.888838 0.360596
vt 0.866642 0.538376
vt 0.866643 0.716438
vt 0.844447 0.538658
vt 0.844447 0.716438
vt 0.666672 0.538370
vt 0.688896 0.516184
vt 0.666672 0.360592
vt 0.844452 0.538656
vt 0.822227 0.516398
vt 0.822227 0.382814
vt 0.688896 0.382814
vt 0.844452 0.360592
vt 0.800003 0.850304
vt 0.666672 0.716720
vt 0.666672 0.850089
vt 0.800003 0.716720
vt 0.666664 0.000000
vt 1.000000 0.333333
vt 1.000000 0.000000
vt 0.666664 0.333333
vn 0.0000 0.5983 0.8012
vn -0.0011 0.6005 0.7996
vn -0.8000 0.6000 0.0000
vn -0.0016 0.0000 1.0000
vn 0.0000 0.0000 -1.0000
vn -1.0000 0.0000 0.0000
vn 1.0000 0.0000 0.0000
vn -0.0011 -0.7070 0.7072
vn -0.0010 -0.7073 0.7069
vn 0.0000 -0.7071 -0.7071
vn -0.7071 -0.7071 0.0000
vn 0.0000 0.6000 -0.8000
vn -0.9806 0.1961 0.0000
vn 0.7071 -0.7071 0.0000
vn -0.0014 0.1961 0.9806
vn 0.0000 -1.0000 0.0000
vn 0.0000 0.1961 -0.9806
vn 0.0000 0.0000 1.0000
vn 0.9806 0.1961 0.0000
vn 0.0000 1.0000 0.0000
vn 0.8000 0.6000 0.0000
usemtl None
s off
f 1/1/1 2/2/1 3/3/1
f 2/2/2 1/1/2 4/4/2
f 4/5/3 5/6/3 2/7/3
f 5/6/3 4/5/3 6/8/3
f 7/9/4 8/10/4 9/11/4
f 8/10/4 7/9/4 10/12/4
f 11/13/5 12/14/5 13/15/5
f 12/14/5 11/13/5 14/16/5
f 11/17/6 8/18/6 10/19/6
f 8/18/6 11/17/6 13/20/6
f 12/21/7 7/22/7 9/23/7
f 7/22/7 12/21/7 14/24/7
f 15/25/8 16/26/8 17/27/8
f 16/26/9 15/25/9 18/28/9
f 16/26/9 18/28/9 19/29/9
f 20/30/10 21/31/10 22/32/10
f 21/31/10 20/30/10 23/33/10
f 23/33/10 20/30/10 24/34/10
f 20/30/11 15/25/11 17/27/11
f 15/25/11 20/30/11 22/32/11
f 6/35/12 25/36/12 5/6/12
f 25/36/12 6/35/12 26/37/12
f 5/6/6 27/38/6 2/7/6
f 27/38/6 5/6/6 28/39/6
f 15/40/13 6/8/13 4/5/13
f 6/8/13 15/40/13 22/41/13
f 19/29/14 24/34/14 16/26/14
f 24/34/14 19/29/14 23/33/14
f 19/42/15 4/4/15 1/1/15
f 4/4/15 19/42/15 15/43/15
f 15/25/16 19/29/16 18/28/16
f 22/44/17 26/37/17 6/35/17
f 26/37/17 22/44/17 23/45/17
f 23/46/18 22/47/18 21/48/18
f 26/49/19 19/50/19 1/51/19
f 19/50/19 26/49/19 23/52/19
f 5/6/5 29/53/5 28/39/5
f 29/53/5 5/6/5 25/36/5
f 3/3/18 27/54/18 30/55/18
f 27/54/18 3/3/18 2/2/18
f 29/56/7 3/57/7 30/58/7
f 3/57/7 29/56/7 25/59/7
f 31/60/6 17/61/6 32/62/6
f 17/61/6 31/60/6 20/63/6
f 24/64/7 33/65/7 16/66/7
f 33/65/7 24/64/7 34/67/7
f 31/68/5 24/69/5 20/70/5
f 24/69/5 31/68/5 34/71/5
f 33/72/4 17/73/4 16/74/4
f 17/73/4 33/72/4 32/62/4
f 32/75/20 8/76/20 31/77/20
f 8/76/20 32/75/20 33/78/20
f 8/76/20 33/78/20 9/79/20
f 9/79/20 33/78/20 12/80/20
f 31/77/20 13/81/20 34/82/20
f 13/81/20 31/77/20 8/76/20
f 34/82/20 13/81/20 12/80/20
f 34/82/20 12/80/20 33/78/20
f 25/59/21 1/51/21 3/57/21
f 1/51/21 25/59/21 26/49/21
f 7/83/20 11/84/20 10/85/20
f 11/84/20 7/83/20 14/86/20
f 29/87/16 27/88/16 28/89/16
f 27/88/16 29/87/16 30/90/16
