# Blender v2.91.0 OBJ File: ''
# www.blender.org
mtllib mNXrQcDX.mtl
o mNXrQcDX
v -3.249678 34.020378 1.349221
v 6.250322 32.520378 -0.150779
v -4.749678 32.520378 -0.150779
v 4.750322 34.020378 1.349221
v 6.750322 12.020379 -0.650779
v 4.750322 30.020378 9.349221
v 6.750322 12.020379 11.349221
v 4.750322 30.020378 1.349221
v 6.250322 31.520378 -0.150779
v 6.250322 31.520378 10.849221
v -4.749678 31.520378 10.849221
v -4.749678 32.520378 10.849221
v -4.749678 31.520378 -0.150779
v 6.250322 32.520378 10.849221
v 4.750322 34.020378 9.349221
v -3.249678 34.020378 9.349221
v -5.249678 12.020379 -0.650779
v 9.750322 8.020379 -3.650779
v -8.249678 8.020379 -3.650779
v -3.249678 30.020378 9.349221
v -5.249678 12.020379 11.349221
v -3.249678 30.020378 1.349221
v -2.249678 43.020378 2.349221
v -2.249678 41.020378 8.349221
v -2.249678 43.020378 8.349221
v -2.249678 41.020378 2.349221
v 3.750322 41.020378 2.349221
v 3.750322 43.020378 8.349221
v 3.750322 41.020378 8.349221
v 3.750322 43.020378 2.349221
v 1.750322 43.020378 4.349221
v 1.750322 44.020378 6.349221
v 1.750322 43.020378 6.349221
v 1.750322 44.020378 4.349221
v -0.249678 44.020378 4.349221
v -0.249678 43.020378 4.349221
v -0.249678 43.020378 6.349221
v -0.249678 44.020378 6.349221
v -8.249678 8.020379 14.349221
v 9.750322 8.020379 14.349221
v 9.750322 6.020379 -3.650779
v 9.750322 6.020379 14.349221
v -8.249678 6.020379 14.349221
v -8.249678 6.020379 -3.650779
v -4.249678 41.020378 0.349221
v 5.750322 41.020378 0.349221
v -4.249678 41.020378 10.349221
v 5.750322 41.020378 10.349221
vt 0.827273 0.354546
vt 0.854546 0.527273
vt 0.854546 0.327272
vt 0.827273 0.500000
vt 0.054545 0.108807
vt 0.236364 0.435887
vt 0.272727 0.108807
vt 0.090909 0.435887
vt 0.063636 0.463301
vt 0.263636 0.463301
vt 0.590908 0.962964
vt 0.390909 0.944783
vt 0.390909 0.962964
vt 0.590908 0.944783
vt 0.063637 0.962964
vt 0.263638 0.944783
vt 0.063637 0.944783
vt 0.263638 0.962964
vt 0.390909 0.481482
vt 0.590908 0.463301
vt 0.390909 0.463301
vt 0.590908 0.481482
vt 0.263636 0.481482
vt 0.063636 0.481482
vt 0.681819 0.500000
vt 0.654546 0.327272
vt 0.654546 0.527273
vt 0.681819 0.354546
vt 0.381819 0.108807
vt 0.654545 0.036363
vt 0.327272 0.036363
vt 0.600000 0.108807
vt 0.418182 0.917369
vt 0.600000 0.590289
vt 0.381819 0.590289
vt 0.563637 0.917369
vt 0.945641 0.927273
vt 0.982002 0.818182
vt 0.945641 0.818182
vt 0.982002 0.927273
vt 0.418182 0.435887
vt 0.563637 0.435887
vt 0.945637 0.709091
vt 0.909275 0.818182
vt 0.945637 0.818182
vt 0.909275 0.709091
vt 0.982002 0.709091
vt 0.945641 0.709091
vt 0.818180 0.890909
vt 0.799999 0.927273
vt 0.818180 0.927273
vt 0.799999 0.890909
vt 0.818180 0.890909
vt 0.836361 0.927273
vt 0.836361 0.890909
vt 0.818180 0.927273
vt 0.909275 0.818182
vt 0.945637 0.927273
vt 0.945637 0.818182
vt 0.909275 0.927273
vt 0.654546 0.890909
vt 0.690909 0.927273
vt 0.763637 0.890909
vt 0.654546 1.000000
vt 0.690909 0.963636
vt 0.727273 0.963636
vt 0.727273 0.927273
vt 0.763637 1.000000
vt 0.090908 0.917369
vt 0.272728 0.590289
vt 0.054546 0.590289
vt 0.236362 0.917369
vt 0.854546 0.890909
vt 0.872726 0.927273
vt 0.872726 0.890909
vt 0.854546 0.927273
vt 0.836365 0.927273
vt 0.854546 0.890909
vt 0.836365 0.890909
vt 0.854546 0.927273
vt 0.654545 0.517845
vt 0.327272 0.517845
vt 0.000000 0.036363
vt 0.327273 0.036363
vt 0.000000 0.000000
vt 0.327273 0.000000
vt 0.327272 0.481482
vt 0.654545 0.481482
vt 0.654545 0.000000
vt 0.327272 0.000000
vt 0.000000 0.517845
vt 0.000000 0.481482
vt 0.909275 0.890911
vt 0.781910 0.727272
vt 0.781910 0.872726
vt 0.909275 0.709091
vt 0.781910 0.709091
vt 0.654545 0.872727
vt 0.781910 0.890909
vt 0.654545 0.727273
vt 0.654546 0.527273
vt 0.690909 0.563637
vt 0.836364 0.527273
vt 0.654546 0.709091
vt 0.690909 0.672728
vt 0.800000 0.672728
vt 0.800000 0.563637
vt 0.836364 0.709091
vt 0.836363 0.690910
vt 0.963728 0.527273
vt 0.836363 0.545456
vt 0.963728 0.709091
vt 0.854546 0.345454
vt 0.981911 0.509090
vt 0.981911 0.327272
vt 0.854546 0.490909
vt 0.763636 0.890909
vt 0.763636 0.927273
vt 0.981819 0.327273
vt 0.981819 0.000000
vt 0.654545 0.327273
vn 0.0000 0.7071 -0.7071
vn 0.9939 0.1104 0.0000
vn 0.7071 -0.7071 0.0000
vn -1.0000 0.0000 0.0000
vn 0.0000 0.0000 1.0000
vn 0.0000 0.0000 -1.0000
vn 1.0000 0.0000 0.0000
vn 0.0000 0.7071 0.7071
vn -0.7071 0.7071 0.0000
vn 0.7071 0.7071 0.0000
vn 0.0000 0.6000 -0.8000
vn -0.9939 0.1104 0.0000
vn 0.0000 0.1104 -0.9939
vn 0.0000 1.0000 0.0000
vn 0.0000 0.1104 0.9939
vn -0.8000 0.6000 0.0000
vn 0.8000 0.6000 0.0000
vn -0.7071 -0.7071 0.0000
vn 0.0000 -0.7071 0.7071
vn 0.0000 -0.7071 -0.7071
vn 0.0000 -0.1414 -0.9899
vn -0.9899 -0.1414 0.0000
vn 0.0000 -0.1414 0.9899
vn 0.9899 -0.1414 0.0000
vn 0.0000 0.6000 0.8000
vn 0.0000 -1.0000 0.0000
usemtl None
s off
f 1/1/1 2/2/1 3/3/1
f 2/2/1 1/1/1 4/4/1
f 5/5/2 6/6/2 7/7/2
f 6/6/2 5/5/2 8/8/2
f 6/6/3 9/9/3 10/10/3
f 9/9/3 6/6/3 8/8/3
f 3/11/4 11/12/4 12/13/4
f 11/12/4 3/11/4 13/14/4
f 14/15/5 11/16/5 10/17/5
f 11/16/5 14/15/5 12/18/5
f 3/19/6 9/20/6 13/21/6
f 9/20/6 3/19/6 2/22/6
f 9/9/7 14/23/7 10/10/7
f 14/23/7 9/9/7 2/24/7
f 15/25/8 12/26/8 14/27/8
f 12/26/8 15/25/8 16/28/8
f 16/28/9 3/3/9 12/26/9
f 3/3/9 16/28/9 1/1/9
f 2/2/10 15/25/10 14/27/10
f 15/25/10 2/2/10 4/4/10
f 17/29/11 18/30/11 19/31/11
f 18/30/11 17/29/11 5/32/11
f 20/33/12 17/34/12 21/35/12
f 17/34/12 20/33/12 22/36/12
f 23/37/4 24/38/4 25/39/4
f 24/38/4 23/37/4 26/40/4
f 22/41/13 5/32/13 17/29/13
f 5/32/13 22/41/13 8/42/13
f 27/43/7 28/44/7 29/45/7
f 28/44/7 27/43/7 30/46/7
f 29/47/5 25/39/5 24/38/5
f 25/39/5 29/47/5 28/48/5
f 31/49/7 32/50/7 33/51/7
f 32/50/7 31/49/7 34/52/7
f 35/53/6 31/54/6 36/55/6
f 31/54/6 35/53/6 34/56/6
f 23/57/6 27/58/6 26/59/6
f 27/58/6 23/57/6 30/60/6
f 25/61/14 37/62/14 23/63/14
f 37/62/14 25/61/14 28/64/14
f 37/62/14 28/64/14 33/65/14
f 33/65/14 28/64/14 31/66/14
f 23/63/14 36/67/14 30/68/14
f 36/67/14 23/63/14 37/62/14
f 30/68/14 36/67/14 31/66/14
f 30/68/14 31/66/14 28/64/14
f 6/69/15 21/70/15 7/71/15
f 21/70/15 6/69/15 20/72/15
f 32/73/5 37/74/5 33/75/5
f 37/74/5 32/73/5 38/76/5
f 35/77/4 37/78/4 38/79/4
f 37/78/4 35/77/4 36/80/4
f 21/35/16 19/81/16 39/82/16
f 19/81/16 21/35/16 17/34/16
f 18/83/17 7/7/17 40/84/17
f 7/7/17 18/83/17 5/5/17
f 13/14/18 20/33/18 11/12/18
f 20/33/18 13/14/18 22/36/18
f 10/17/19 20/72/19 6/69/19
f 20/72/19 10/17/19 11/16/19
f 13/21/20 8/42/20 22/41/20
f 8/42/20 13/21/20 9/20/20
f 41/85/7 40/84/7 42/86/7
f 40/84/7 41/85/7 18/83/7
f 19/81/4 43/87/4 39/82/4
f 43/87/4 19/81/4 44/88/4
f 19/31/6 41/89/6 44/90/6
f 41/89/6 19/31/6 18/30/6
f 40/91/5 43/87/5 42/92/5
f 43/87/5 40/91/5 39/82/5
f 45/93/21 4/94/21 1/95/21
f 4/94/21 45/93/21 46/96/21
f 45/97/22 16/98/22 47/99/22
f 16/98/22 45/97/22 1/100/22
f 47/101/14 24/102/14 45/103/14
f 24/102/14 47/101/14 48/104/14
f 24/102/14 48/104/14 29/105/14
f 29/105/14 48/104/14 27/106/14
f 45/103/14 26/107/14 46/108/14
f 26/107/14 45/103/14 24/102/14
f 46/108/14 26/107/14 27/106/14
f 46/108/14 27/106/14 48/104/14
f 15/109/23 47/110/23 16/111/23
f 47/110/23 15/109/23 48/112/23
f 15/113/24 46/114/24 48/115/24
f 46/114/24 15/113/24 4/116/24
f 7/71/25 39/82/25 40/91/25
f 39/82/25 7/71/25 21/70/25
f 32/50/14 35/117/14 38/118/14
f 35/117/14 32/50/14 34/52/14
f 41/89/26 43/119/26 44/120/26
f 43/119/26 41/89/26 42/121/26
