<?xml version="1.0" encoding="iso-8859-1"?>
<!-- Generator: Adobe Illustrator 19.0.0, SVG Export Plug-In . SVG Version: 6.00 Build 0)  -->
<svg version="1.1" id="Layer_1" xmlns="http://www.w3.org/2000/svg" xmlns:xlink="http://www.w3.org/1999/xlink" x="0px" y="0px"
	 viewBox="0 0 511.999 511.999" style="enable-background:new 0 0 511.999 511.999;" xml:space="preserve">
<polygon style="fill:#F0C650;" points="467.859,130.245 256,7.929 44.14,130.245 256,252.56 "/>
<polygon style="fill:#4070C9;" points="256,504.071 44.14,381.755 44.14,130.245 256,252.56 "/>
<polygon style="fill:#62AC4B;" points="256,504.071 467.859,381.755 467.859,130.245 256,252.56 "/>
<path d="M143.989,379.04c26.735,15.435,43.187,8.311,43.187-14.309v-0.343c0-22.278-15.938-40.047-32.22-52.189l23.479-8.893
	c4.799-1.856,7.884-3.675,7.884-10.186c0-7.198-5.655-14.918-13.367-19.37l-58.44-33.741c-6.17-3.562-11.311-1.388-11.311,4.781
	c0,6.169,5.141,14.279,11.311,17.841l36.847,21.273l-23.308,10.021c-4.114,1.738-5.656,3.933-5.656,7.532
	c0,6.169,5.141,14.279,11.312,17.841l4.113,2.375c14.739,8.51,23.479,19.039,23.479,28.807v0.343c0,8.911-7.026,10.509-16.966,4.771
	c-9.426-5.441-16.625-12.682-23.479-22.467c-2.056-2.901-4.627-5.927-8.397-8.105c-6.855-3.957-12.681-1.495-12.681,5.36
	c0,3.769,2.056,8.556,4.455,11.997C113.998,356.413,126.852,369.146,143.989,379.04z M327.804,398.092l33.591-19.394
	c37.703-21.768,63.752-63.027,63.752-96.786v-0.341c0-33.76-26.049-44.598-63.752-22.83l-33.591,19.394
	c-7.37,4.254-13.196,13.445-13.196,20.814v93.567C314.608,399.885,320.435,402.347,327.804,398.092z M341.001,294.336l20.394-11.774
	c21.594-12.467,36.161-5.969,36.161,15.281v0.343c0,21.25-14.567,44.227-36.161,56.693l-20.394,11.774V294.336z M471.823,123.378
	L259.965,1.063c-2.453-1.417-5.476-1.417-7.929,0L40.176,123.378c-2.453,1.417-3.965,4.033-3.965,6.867v251.509
	c0,2.833,1.512,5.45,3.965,6.867l211.86,122.316c1.226,0.708,2.595,1.063,3.965,1.063c1.369,0,2.738-0.354,3.965-1.063
	l211.859-122.315c2.453-1.417,3.965-4.033,3.965-6.867V130.245C475.788,127.412,474.276,124.795,471.823,123.378z M248.071,490.338
	L52.069,377.178V143.979l196.001,113.16V490.338z M256,243.405L59.999,130.245L256,17.085l196.001,113.16L256,243.405z
	 M459.93,377.178l-196,113.16V257.139l196.001-113.16v233.199H459.93z"/>
<g>
</g>
<g>
</g>
<g>
</g>
<g>
</g>
<g>
</g>
<g>
</g>
<g>
</g>
<g>
</g>
<g>
</g>
<g>
</g>
<g>
</g>
<g>
</g>
<g>
</g>
<g>
</g>
<g>
</g>
</svg>
