<?xml version="1.0" standalone="no"?>
<!DOCTYPE svg PUBLIC "-//W3C//DTD SVG 20010904//EN"
 "http://www.w3.org/TR/2001/REC-SVG-20010904/DTD/svg10.dtd">
<svg version="1.0" xmlns="http://www.w3.org/2000/svg"
 width="700.000000pt" height="700.000000pt" viewBox="0 0 700.000000 700.000000"
 preserveAspectRatio="xMidYMid meet">
<metadata>
Created by potrace 1.14, written by Peter Selinger 2001-2017
</metadata>
<g transform="translate(0.000000,700.000000) scale(0.100000,-0.100000)"
fill="#000000" stroke="none">
<path d="M3365 6939 c-55 -33 -109 -64 -120 -69 -11 -6 -27 -14 -35 -20 -8 -6
-94 -55 -190 -110 -96 -55 -182 -104 -190 -110 -27 -17 -284 -164 -320 -183
-19 -11 -42 -25 -51 -33 -8 -8 -18 -14 -22 -14 -3 0 -54 -28 -114 -63 -59 -35
-115 -66 -123 -70 -8 -4 -31 -17 -50 -28 -19 -12 -136 -80 -260 -151 -124 -72
-256 -149 -295 -172 -38 -22 -83 -48 -100 -57 -16 -9 -97 -56 -180 -104 -82
-48 -190 -110 -240 -138 -49 -29 -102 -58 -116 -67 -14 -8 -113 -65 -220 -127
-107 -62 -206 -124 -219 -138 l-25 -27 0 -1751 c0 -1736 0 -1752 20 -1781 19
-28 84 -69 405 -253 52 -30 102 -58 110 -63 107 -63 174 -100 181 -100 5 0 9
-4 9 -10 0 -5 4 -10 9 -10 4 0 46 -22 92 -49 46 -27 111 -64 144 -81 33 -18
67 -37 75 -44 8 -6 24 -16 35 -22 31 -17 679 -391 775 -447 47 -28 110 -63
140 -80 30 -16 71 -39 90 -52 19 -12 206 -120 415 -240 209 -120 398 -229 419
-242 63 -41 101 -41 171 0 33 19 76 43 95 53 19 10 37 21 40 24 3 3 16 11 30
18 14 7 41 22 60 33 19 12 141 82 270 156 129 75 255 148 280 163 25 15 142
82 260 150 118 68 283 163 367 211 83 49 167 97 185 107 32 19 182 105 511
296 87 50 166 96 175 101 10 6 154 88 319 184 255 147 304 179 315 205 10 25
13 369 13 1778 l0 1746 -25 26 c-13 15 -42 37 -64 50 -23 12 -115 66 -206 118
-91 53 -181 105 -200 116 -19 10 -75 43 -125 72 -49 29 -105 61 -123 72 -18
10 -93 53 -165 95 -73 42 -149 86 -169 97 -20 12 -98 57 -174 101 -76 44 -151
87 -166 95 -15 8 -105 60 -199 115 -95 55 -193 112 -218 126 -25 14 -235 135
-466 269 -231 133 -440 254 -465 268 -25 14 -78 45 -119 69 -112 66 -134 65
-256 -8z"/>
</g>
</svg>
