<?xml version="1.0" encoding="UTF-8" standalone="no"?>
<svg
   xmlns:dc="http://purl.org/dc/elements/1.1/"
   xmlns:cc="http://creativecommons.org/ns#"
   xmlns:rdf="http://www.w3.org/1999/02/22-rdf-syntax-ns#"
   xmlns:svg="http://www.w3.org/2000/svg"
   xmlns="http://www.w3.org/2000/svg"
   xmlns:sodipodi="http://sodipodi.sourceforge.net/DTD/sodipodi-0.dtd"
   xmlns:inkscape="http://www.inkscape.org/namespaces/inkscape"
   width="1024"
   height="1024"
   viewBox="0 0 1024 1024"
   version="1.1"
   id="svg2020"
   sodipodi:docname="yIlgNUkL.svg"
   inkscape:version="1.0.1 (3bc2e813f5, 2020-09-07)">
  <metadata
     id="metadata2026">
    <rdf:RDF>
      <cc:Work
         rdf:about="">
        <dc:format>image/svg+xml</dc:format>
        <dc:type
           rdf:resource="http://purl.org/dc/dcmitype/StillImage" />
      </cc:Work>
    </rdf:RDF>
  </metadata>
  <defs
     id="defs2024" />
  <sodipodi:namedview
     pagecolor="#ffffff"
     bordercolor="#666666"
     borderopacity="1"
     objecttolerance="10"
     gridtolerance="10"
     guidetolerance="10"
     inkscape:pageopacity="0"
     inkscape:pageshadow="2"
     inkscape:window-width="1842"
     inkscape:window-height="1051"
     id="namedview2022"
     showgrid="false"
     inkscape:zoom="0.41584201"
     inkscape:cx="-128.09285"
     inkscape:cy="430.83624"
     inkscape:window-x="335"
     inkscape:window-y="1431"
     inkscape:window-maximized="1"
     inkscape:current-layer="layer1" />
  <desc
     id="desc2">, (Blender 2.91.0)</desc>
  <g
     inkscape:groupmode="layer"
     id="layer1"
     inkscape:label="uv"
     style="display:inline">
    <path
       style="fill:none;stroke:#009688;stroke-width:1.6;stroke-linecap:butt;stroke-linejoin:miter;stroke-opacity:1;stroke-miterlimit:4;stroke-dasharray:none"
       d="m 177.246,1024 38.733,-0.035 37.996,-7.784 35.78,-15.248 32.214,-22.126 27.396,-28.154 21.522,-33.085 14.825,-36.77 7.57,-39.021 V 801.996 L 385.737,762.98 370.923,726.245 349.407,693.18 322.02,665.067 289.824,642.993 254.022,627.782 216.05,620.06 l -38.747,0.018 -37.982,7.801 -35.794,15.23 -32.2,22.144 -27.41,28.136 L 22.409,726.492 7.57,763.245 0.014,802.283 0,842.046 l 7.559,39.034 14.814,36.734 21.516,33.066 27.387,28.112 32.195,22.074 35.789,15.194 z"
       id="path2853" />
    <path
       style="fill:none;stroke:#009688;stroke-width:1.6;stroke-linecap:butt;stroke-linejoin:miter;stroke-opacity:1;stroke-miterlimit:4;stroke-dasharray:none"
       d="m 180.728,987.752 31.782,-0.024 31.173,-6.387 29.362,-12.503 26.444,-18.153 22.48,-23.113 17.652,-27.153 12.164,-30.168 6.207,-32.018 0.022,-32.655 -6.195,-32.009 -12.173,-30.148 -17.64,-27.129 -22.485,-23.066 -26.411,-18.121 -29.37,-12.483 -31.186,-6.332 -31.782,0.024 -31.17,6.39 -29.363,12.504 -26.432,18.167 -22.491,23.099 -17.653,27.153 -12.166,30.164 -6.207,32.018 -0.021,32.656 6.205,32.022 12.165,30.137 17.651,27.143 22.473,23.053 26.42,18.132 29.358,12.468 z"
       id="path2855" />
    <path
       style="fill:none;stroke:#009688;stroke-width:1.6;stroke-linecap:butt;stroke-linejoin:miter;stroke-opacity:1;stroke-miterlimit:4;stroke-dasharray:none"
       d="m 0,243.009 23.632,-16.353 29.03,-16.188 33.303,-15.379 36.289,-13.996 37.901,-12.059 38.044,-9.68 36.716,-6.901 33.993,-3.885 29.961,-0.697 v 462.101 l -3.282,-0.257 -1.251,0.014 -2.449,0.591 v 0 l -3.988,0.857 -2.341,0.279 v 0 l -1.91,0.396 -1.856,0.682 -2.168,1.011 -3.997,1.43 -2.565,0.843 -1.157,0.676 -3.003,2.056 -2.767,1.51 z"
       id="path2859" />
    <path
       style="fill:none;stroke:#009688;stroke-width:1.6;stroke-linecap:butt;stroke-linejoin:miter;stroke-opacity:1;stroke-miterlimit:4;stroke-dasharray:none"
       d="m 393.282,120.582 28.188,-3.287 33.131,-2.58 36.789,-1.779 39.027,-0.907 h 39.786 l 39.004,0.907 36.712,1.779 33.05,2.582 -64.505,246.265 -50.433,192.301 -1.104,-0.189 -1.465,-0.01 -1.009,0.121 -1.82956,-0.0328 -0.95709,0.21269 -1.23335,-0.26785 -1.42524,0.0552 -0.98676,-0.41616 -1.822,-0.121 -1.866,0.078 v 0 l -2.484,0.307 -1.56143,0.0458 -2.70257,-0.0538 -1.106,-0.147 -1.622,-0.025 -1.322,0.187 -1.22321,0.2515 h -1.06343 l -1.25936,0.3485 -1.29289,-0.0295 -1.87511,0.0705 -61.179,-191.041 z"
       id="path2862" />
    <path
       style="fill:none;stroke:#009688;stroke-width:1.6;stroke-linecap:butt;stroke-linejoin:miter;stroke-opacity:1;stroke-miterlimit:4;stroke-dasharray:none"
       d="m 741.552,1023.076 4.22,0.64 2.479,-0.07 1.878,0.062 1.84,0.061 2.398,0.231 4.075,-0.366 1.021,-0.299 1.516,-0.307 1.2,-0.091 58.884,-152.155 75.401,-194.822 -33.741,5.114 -37.172,2.605 h -39.193 l -39.698,-2.608 -38.664,-5.111 18.833,194.822 z"
       id="path2865" />
    <path
       style="display:inline;fill:none;stroke:#009688;stroke-width:1.6;stroke-linecap:butt;stroke-linejoin:miter;stroke-opacity:1;stroke-miterlimit:4;stroke-dasharray:none"
       d="m 673.732,1024 1.627,-2.715 0.717,-0.82 1.051,-0.852 0.779,-0.459 3.145,-2.117 1.904,-1.424 1.502,-0.931 1.719,-0.655 2.369,-0.681 4.092,-1.444 1.066,-0.449 1.645,-0.476 1.328,-0.186 4.205,-0.156 3.744,-0.344 1.121,0.025 2.25,0.608 -0.01,-197.668 0.01,-252.885 -30.767,-4.123 -34.604,0.145 -37.125,4.418 -38.219,8.513 -37.828,12.283 -36.01,15.584 -32.791,18.288 -28.308,20.277 -22.766,21.512 -16.297,21.88 157.358,193.493 z"
       id="path2868" />
    <path
       style="display:inline;fill:none;stroke:#009688;stroke-width:1.6;stroke-linecap:butt;stroke-linejoin:miter;stroke-opacity:1;stroke-miterlimit:4;stroke-dasharray:none"
       d="m 911.852,1009.783 25.335,8.932 28.894,4.782 31.346,0.503 26.573,-3.112 -6.999,-26.355 -5.501,-29.591 -3.789,-31.686 -1.935,-32.587 v -32.217 l 1.933,-30.591 3.79,-27.814 5.499,-23.965 6.999,-19.212 -26.573,-0.934 -31.346,4.459 -6.974,19.143 -28.49,8.754 -5.162,22.508 -3.559,26.1 -23.8,8.284 -1.632,25.842 -10e-4,27.206 1.632,27.518 3.2,26.768 4.643,25.008 z"
       id="path2871" />
    <path
       style="display:inline;fill:none;stroke:#009688;stroke-width:1.6;stroke-linecap:butt;stroke-linejoin:miter;stroke-opacity:1;stroke-miterlimit:4;stroke-dasharray:none"
       d="m 721.472,675.96 -11.575,-16.591 -1.901,-19.955 8.256,-17.976 16.226,-11.177 8.594,13.056 -1.127,0.777 -0.59045,0.46253 -3.19655,1.77647 -3.313,2.661 -1.127,0.778 -0.742,1.608 -0.662,0.957 -0.26452,0.83337 -1.61348,2.99263 -0.673,2.177 -0.834,1.806 0.195,2.007 -0.26483,1.49223 0.17283,0.89877 0.524,4.26 0.47295,1.64722 0.02,1.22078 0.804,1.153 2.22,3.856 2.842,3.413 0.803,1.153 1.608,0.779 0.921,0.692 3.825,1.985 z"
       id="path2874" />
    <path
       style="display:inline;fill:none;stroke:#009688;stroke-width:1.6;stroke-linecap:butt;stroke-linejoin:miter;stroke-opacity:1;stroke-miterlimit:4;stroke-dasharray:none"
       d="m 964.05,552.508 28.355,3.74 24.912,-0.95 -9.914,-23.69 -7.362,-27.625 -4.541,-30.458 -1.529,-32.169 1.525,-32.598 4.533,-31.819 7.375,-29.785 9.913,-26.609 -24.91,-2.788 -10.072,27.034 -28.162,0.324 -7.349,29.676 -24.069,1.825 -4.252,29.84 -1.443,30.602 1.442,30.196 4.256,28.594 6.921,25.906 24.492,7.15 z"
       id="path2877" />
    <path
       style="display:inline;fill:none;stroke:#009688;stroke-width:1.6;stroke-linecap:butt;stroke-linejoin:miter;stroke-opacity:1;stroke-miterlimit:4;stroke-dasharray:none"
       d="m 851.69,530.478 16.915,11.132 18.946,-19.052 14.747,-22.432 9.955,-24.975 4.808,-26.527 -0.536,-27.08 -5.863,-26.586 -10.959,-25.068 17.358,-12.786 -17.384,-25.096 -21.905,-21.402 10.062,-13.335 -27.168,-17.905 -30.033,-12.378 -6.751,15.125 -29.906,-6.037 -30.372,-0.153 -29.696,5.714 -27.829,11.382 3.744,19.169 -22.421,14.938 10.193,20.956 -16.121,16.183 17.219,20.101 -9.84,15 -6.655,16.689 -3.229,17.731 0.36,18.09 3.914,17.761 7.341,16.753 10.444,15.106 13.164,12.87 -12.993,15.353 19.587,12.877 21.653,8.941 22.909,4.589 23.252,0.122 22.714,-4.377 21.304,-8.683 z"
       id="path2880" />
    <path
       style="display:inline;fill:none;stroke:#009688;stroke-width:1.6;stroke-linecap:butt;stroke-linejoin:miter;stroke-opacity:1;stroke-miterlimit:4;stroke-dasharray:none"
       d="m 959.267,241.438 33.028,2.048 2.74,23.502 27.36,-2.054 -2.697,-23.132 -2.121,-27.185 -1.459,-30.202 -0.742,-32.024 -10e-4,-32.654 0.745,-31.992 1.458,-30.141 2.118,-27.097 2.699,-23.028 -27.361,-2.045 -33.081,2.527 -31.334,7.465 -28.377,12.111 -2.278,19.445 -23.987,13.406 -1.524,19.463 -1.046,21.641 -0.534,22.989 v 23.451 l 0.532,23.025 1.05,21.683 23.719,9.859 1.79,22.978 28.124,9.875 z"
       id="path2883" />
    <path
       style="display:inline;fill:none;stroke:#009688;stroke-width:1.6;stroke-linecap:butt;stroke-linejoin:miter;stroke-opacity:1;stroke-miterlimit:4;stroke-dasharray:none"
       d="m 846.692,232.669 26.181,-18.872 -3.876,-13.321 -2.882,-15.549 -1.781,-17.17 -0.598,-18.136 0.598,-18.409 1.781,-17.982 2.882,-16.861 3.876,-15.088 -26.181,-17.268 6.016,-16.183 -28.464,-17.251 8.067,-14.807 -30.039,-14.724 -8.964,16.428 -32.219,-8.432 -8.344,22.489 -32.413,-3.011 -6.982,27.146 -25.069,0.571 -5.107,29.857 -3.146,31.845 -1.059,32.633 1.059,32.15 3.146,30.411 5.107,27.529 25.069,2.36 6.982,23.964 32.413,-1.574 32.697,-6.421 31.723,-11.08 7.079,15.827 28.464,-17.631 z"
       id="path2886" />
    <path
       style="display:inline;fill:none;stroke:#009688;stroke-width:1.6;stroke-linecap:butt;stroke-linejoin:miter;stroke-opacity:1;stroke-miterlimit:4;stroke-dasharray:none"
       d="m 314.913,403.559 10.222,2.785 h 11.669 l 9.988,-2.785 11.723,20.076 4.132,21.849 -4.624,17.778 -17.299,4.824 h -20.211 l -1.201,-17.029 -20.444,-5.571 4.43,-21.853 z"
       id="path2893" />
    <path
       style="display:inline;fill:none;stroke:#009688;stroke-width:1.6;stroke-linecap:butt;stroke-linejoin:miter;stroke-opacity:1;stroke-miterlimit:4;stroke-dasharray:none"
       d="m 343.763,378.969 16.749,2.189 2.975,11.183 8.22,8.199 11.261,3.018 0.178,-21.566 v -23.143 l -0.177,-18.521 -19.547,5.149 -14.349,14.143 z"
       id="path2889" />
    <path
       style="display:inline;fill:none;stroke:#009688;stroke-width:1.6;stroke-linecap:butt;stroke-linejoin:miter;stroke-opacity:1;stroke-miterlimit:4;stroke-dasharray:none"
       d="m 334.934,403.203 -1.773,0.055 -1.106,-0.133 -1.86783,0.15302 -1.57912,-0.15039 -0.81805,0.0384 -1.66343,0.33761 -0.81657,-0.004 -1.894,0.059 -0.89886,0.1702 -1.87991,-0.45118 -1.43123,-0.11202 -4.02,-0.041 -2.689,0.078 -9.818,-14.713 -3.811,-21.777 3.282,-23.006 9.434,-18.07 10.919,0.355 11.517,-0.355 6.99,18.07 2.753,23.006 -2.226,21.777 z"
       id="path2891" />
    <path
       style="fill:none;stroke:#009688;stroke-width:1.6;stroke-linecap:butt;stroke-linejoin:miter;stroke-opacity:1;stroke-miterlimit:4;stroke-dasharray:none"
       d="m 307.002,479.404 1.184,0.032 3.355,0.419 3.598,-0.41 2.879,-0.363 2.16806,-0.0813 3.15494,-0.66475 2.324,-0.865 1.864,-0.395 1.695,-0.687 2.346,-0.553 2.22659,-0.89586 2.38241,-1.37614 2.443,-1.253 2.719,-1.512 2.128,-2.131 0.78,-0.582 19.134,13.32 -11.22,8.369 9.375,21.196 1.845,19.855 -17.74,7.205 -19.507,4.114 -7.608,-18.104 -18.528,-0.096 -1.131,-22.933 z"
       id="path2898" />
    <path
       style="fill:none;stroke:#009688;stroke-width:1.6;stroke-linecap:butt;stroke-linejoin:miter;stroke-opacity:1;stroke-miterlimit:4;stroke-dasharray:none"
       d="m 365.973,508.728 0.942,-2.321 0.951,-1.655 0.0697,-0.93646 -0.0697,-0.94954 0.32,-2.379 -0.0247,-0.95765 v -1.12795 -0.97755 L 368.074,496.211 v 0 l -0.209,-2.924 17.984,-1.522 v 19.856 l -10.017,17.447 z"
       id="path2900" />
    <path
       style="display:inline;fill:none;stroke:#009688;stroke-width:1.6;stroke-linecap:butt;stroke-linejoin:miter;stroke-opacity:1;stroke-miterlimit:4;stroke-dasharray:none"
       d="m 304.731,615.517 20.598,4.543 22.423,-5.489 18.221,-14.056 -2.476,-8.783 -0.913,-11.449 0.913,-11.044 2.476,-7.682 -18.221,-14.465 -22.423,-4.948 -20.598,5.894 -4.293,13.306 -1.57,19.13 1.57,19.828 z"
       id="path2906" />
    <path
       style="display:inline;fill:none;stroke:#009688;stroke-width:1.6;stroke-linecap:butt;stroke-linejoin:miter;stroke-opacity:1;stroke-miterlimit:4;stroke-dasharray:none"
       d="m 388.425,596.916 0.093,-21.566 -11.272,3.017 -8.272,8.188 -3.001,11.195 3.02,11.171 8.252,8.166 11.273,2.973 z"
       id="path2904" />
    <path
       style="display:inline;fill:none;stroke:#009688;stroke-width:1.6;stroke-linecap:butt;stroke-linejoin:miter;stroke-opacity:1;stroke-miterlimit:4;stroke-dasharray:none"
       d="m 370.874,530.562 15.658,-1.494 -2.482,21.75 2.482,23.037 -15.658,1.495 -4.901,-22.807 z"
       id="path2902" />
  </g>
</svg>
