<?xml version="1.0" encoding="UTF-8" standalone="no"?>
<svg
   xmlns:dc="http://purl.org/dc/elements/1.1/"
   xmlns:cc="http://creativecommons.org/ns#"
   xmlns:rdf="http://www.w3.org/1999/02/22-rdf-syntax-ns#"
   xmlns:svg="http://www.w3.org/2000/svg"
   xmlns="http://www.w3.org/2000/svg"
   xmlns:sodipodi="http://sodipodi.sourceforge.net/DTD/sodipodi-0.dtd"
   xmlns:inkscape="http://www.inkscape.org/namespaces/inkscape"
   width="1024"
   height="1024"
   viewBox="0 0 1024 1024"
   version="1.1"
   id="svg124"
   sodipodi:docname="yQ9jqw7O.svg"
   inkscape:version="1.0.1 (3bc2e813f5, 2020-09-07)">
  <metadata
     id="metadata130">
    <rdf:RDF>
      <cc:Work
         rdf:about="">
        <dc:format>image/svg+xml</dc:format>
        <dc:type
           rdf:resource="http://purl.org/dc/dcmitype/StillImage" />
      </cc:Work>
    </rdf:RDF>
  </metadata>
  <defs
     id="defs128" />
  <sodipodi:namedview
     pagecolor="#ffffff"
     bordercolor="#666666"
     borderopacity="1"
     objecttolerance="10"
     gridtolerance="10"
     guidetolerance="10"
     inkscape:pageopacity="0"
     inkscape:pageshadow="2"
     inkscape:window-width="2482"
     inkscape:window-height="1411"
     id="namedview126"
     showgrid="false"
     inkscape:zoom="0.41557869"
     inkscape:cx="-368.6702"
     inkscape:cy="559.96446"
     inkscape:window-x="69"
     inkscape:window-y="-9"
     inkscape:window-maximized="1"
     inkscape:current-layer="layer1" />
  <desc
     id="desc2">, (Blender 2.91.0)</desc>
  <g
     inkscape:groupmode="layer"
     id="layer1"
     inkscape:label="uv"
     style="display:inline">
    <path
       style="fill:none;stroke:#009688;stroke-width:1.5;stroke-linecap:butt;stroke-linejoin:miter;stroke-opacity:1;stroke-miterlimit:4;stroke-dasharray:none"
       d="M 0,87.369 H 325.297 V 412.668 L 0,412.669 Z"
       id="path956" />
    <path
       style="fill:none;stroke:#009688;stroke-width:1.5;stroke-linecap:butt;stroke-linejoin:miter;stroke-opacity:1;stroke-miterlimit:4;stroke-dasharray:none"
       d="m 325.297,87.369 26.82,-0.002 v 325.301 l -26.82,10e-4 z"
       id="path958" />
    <path
       style="fill:none;stroke:#009688;stroke-width:1.5;stroke-linecap:butt;stroke-linejoin:miter;stroke-opacity:1;stroke-miterlimit:4;stroke-dasharray:none"
       d="m 352.117,87.367 99.492,60.994 v 203.313 l -99.492,60.994 z"
       id="path960" />
    <path
       style="fill:none;stroke:#009688;stroke-width:1.5;stroke-linecap:butt;stroke-linejoin:miter;stroke-opacity:1;stroke-miterlimit:4;stroke-dasharray:none"
       d="m 698.703,222.071 v -53.466 l 43.586,-47.947 19.391,2.241 v 144.817 l -19.391,2.242 z"
       id="path962" />
    <path
       style="fill:none;stroke:#009688;stroke-width:1.5;stroke-linecap:butt;stroke-linejoin:miter;stroke-opacity:1;stroke-miterlimit:4;stroke-dasharray:none"
       d="m 742.289,269.958 v -149.3"
       id="path964" />
    <path
       style="fill:none;stroke:#009688;stroke-width:1.5;stroke-linecap:butt;stroke-linejoin:miter;stroke-opacity:1;stroke-miterlimit:4;stroke-dasharray:none"
       d="m 720.542,269.957 -14.492,224.176 -7.35,46.133 h 182.297 l -7.35,-46.133 H 706.05 873.647 L 859.155,269.957 816.612,430.582 h -53.466 z"
       id="path966" />
    <path
       style="fill:none;stroke:#009688;stroke-width:1.5;stroke-linecap:butt;stroke-linejoin:miter;stroke-opacity:1;stroke-miterlimit:4;stroke-dasharray:none"
       d="m 810.354,540.266 -6.153,134.211 -11.453,87.265 -33.055,138.012 -60.994,98.613 V 1024 H 1024 V 998.367 H 698.699 1024 L 963.006,899.754 H 759.693 L 792.748,761.742 H 929.949 L 963.006,899.754 929.949,761.742 918.496,674.477 H 804.201 918.496 l -6.15,-134.211 z"
       id="path968" />
    <path
       style="fill:none;stroke:#009688;stroke-width:1.5;stroke-linecap:butt;stroke-linejoin:miter;stroke-opacity:1;stroke-miterlimit:4;stroke-dasharray:none"
       d="m 473.025,133.82 h 101.991 l 15.442,247.278 5.971,31.57 H 451.612 l 5.971,-31.57 H 590.458 457.583 Z"
       id="path970" />
    <path
       style="fill:none;stroke:#009688;stroke-width:1.5;stroke-linecap:butt;stroke-linejoin:miter;stroke-opacity:1;stroke-miterlimit:4;stroke-dasharray:none"
       d="m 596.43,219.864 47.843,-10.508 V 412.669 L 596.43,402.161 Z"
       id="path972" />
    <path
       style="fill:none;stroke:#009688;stroke-width:1.5;stroke-linecap:butt;stroke-linejoin:miter;stroke-opacity:1;stroke-miterlimit:4;stroke-dasharray:none"
       d="m 7.43,412.668 v 40.514 h 325.297 v -40.514 z"
       id="path974" />
    <path
       style="fill:none;stroke:#009688;stroke-width:1.5;stroke-linecap:butt;stroke-linejoin:miter;stroke-opacity:1;stroke-miterlimit:4;stroke-dasharray:none"
       d="m 7.43,453.182 60.992,86.248 h 203.312 l 60.993,-86.248 z"
       id="path976" />
    <path
       style="fill:none;stroke:#009688;stroke-width:1.5;stroke-linecap:butt;stroke-linejoin:miter;stroke-opacity:1;stroke-miterlimit:4;stroke-dasharray:none"
       d="M 68.422,539.43 20.578,639.936 v 70.306 L 197.844,848.855 70.828,754.072 7.859,819.188 0,876.301 200.062,1024 325.43,965.158 349.352,855.607 271.734,539.43 Z"
       id="path978" />
    <path
       style="fill:none;stroke:#009688;stroke-width:1.5;stroke-linecap:butt;stroke-linejoin:miter;stroke-opacity:1;stroke-miterlimit:4;stroke-dasharray:none"
       d="m 365.969,412.668 v 40.514 h 325.304 v -40.514 z"
       id="path980" />
    <path
       style="fill:none;stroke:#009688;stroke-width:1.5;stroke-linecap:butt;stroke-linejoin:miter;stroke-opacity:1;stroke-miterlimit:4;stroke-dasharray:none"
       d="m 365.969,453.182 61,86.248 h 203.312 l 60.992,-86.248 z"
       id="path982" />
    <path
       style="fill:none;stroke:#009688;stroke-width:1.5;stroke-linecap:butt;stroke-linejoin:miter;stroke-opacity:1;stroke-miterlimit:4;stroke-dasharray:none"
       d="M 426.969,539.43 349.352,855.607 373.273,965.158 498.633,1024 698.703,876.301 690.844,819.188 627.867,754.066 500.859,848.855 678.125,710.242 V 639.936 L 630.281,539.43 Z"
       id="path984" />
    <path
       style="fill:none;stroke:#009688;stroke-width:1.5;stroke-linecap:butt;stroke-linejoin:miter;stroke-opacity:1;stroke-miterlimit:4;stroke-dasharray:none"
       d="m 27.242,797.744 170.602,51.111"
       id="path998" />
    <path
       style="fill:none;stroke:#009688;stroke-width:1.5;stroke-linecap:butt;stroke-linejoin:miter;stroke-opacity:1;stroke-miterlimit:4;stroke-dasharray:none"
       d="M 500.859,848.855 671.453,797.744"
       id="path1000" />
  </g>
</svg>
