<?xml version="1.0" encoding="UTF-8" standalone="no"?>
<svg
   xmlns:dc="http://purl.org/dc/elements/1.1/"
   xmlns:cc="http://creativecommons.org/ns#"
   xmlns:rdf="http://www.w3.org/1999/02/22-rdf-syntax-ns#"
   xmlns:svg="http://www.w3.org/2000/svg"
   xmlns="http://www.w3.org/2000/svg"
   xmlns:sodipodi="http://sodipodi.sourceforge.net/DTD/sodipodi-0.dtd"
   xmlns:inkscape="http://www.inkscape.org/namespaces/inkscape"
   width="1024"
   height="1024"
   viewBox="0 0 1024 1024"
   version="1.1"
   id="svg6216"
   sodipodi:docname="uHFIWrZ7.svg"
   inkscape:version="1.0.1 (3bc2e813f5, 2020-09-07)">
  <metadata
     id="metadata6222">
    <rdf:RDF>
      <cc:Work
         rdf:about="">
        <dc:format>image/svg+xml</dc:format>
        <dc:type
           rdf:resource="http://purl.org/dc/dcmitype/StillImage" />
      </cc:Work>
    </rdf:RDF>
  </metadata>
  <defs
     id="defs6220" />
  <sodipodi:namedview
     pagecolor="#ffffff"
     bordercolor="#666666"
     borderopacity="1"
     objecttolerance="10"
     gridtolerance="10"
     guidetolerance="10"
     inkscape:pageopacity="0"
     inkscape:pageshadow="2"
     inkscape:window-width="2482"
     inkscape:window-height="1411"
     id="namedview6218"
     showgrid="false"
     inkscape:zoom="0.58771701"
     inkscape:cx="1105.1736"
     inkscape:cy="772.13515"
     inkscape:window-x="69"
     inkscape:window-y="-9"
     inkscape:window-maximized="1"
     inkscape:current-layer="layer1" />
  <desc
     id="desc2">, (Blender 2.91.0)</desc>
  <g
     inkscape:groupmode="layer"
     id="layer1"
     inkscape:label="uv"
     style="display:inline">
    <path
       style="fill:none;stroke:#009688;stroke-width:1.5;stroke-linecap:butt;stroke-linejoin:miter;stroke-opacity:1;stroke-miterlimit:4;stroke-dasharray:none"
       d="m 765.414,320.036 8.82,0.539 9.582,0.489 10.268,0.437 10.879,0.38 11.406,0.322 11.846,0.261 12.197,0.197 12.453,0.132 12.615,0.066 h 12.682 l 12.652,-0.066 12.526,-0.132 12.305,-0.197 11.988,-0.261 11.582,-0.322 11.088,-0.38 10.508,-0.437 9.847,-0.489 9.115,-0.539 -0.738,49.389 -9.08,0.533 -2.047,49.243 -3.361,48.994 -4.649,48.64 -5.91,48.188 -7.15,47.639 -8.369,46.995 -6.528,0.324 -6.964,0.29 -7.348,0.252 -7.676,0.213 -7.945,0.173 -8.154,0.13 -8.303,0.088 -8.385,0.044 h -8.404 l -8.362,-0.044 -8.254,-0.088 -8.084,-0.13 -7.849,-0.173 -7.561,-0.213 -7.209,-0.252 -6.806,-0.29 -6.35,-0.324 -5.846,-0.357 -9.812,-46.96 -8.359,-47.649 -6.875,-48.231 -5.358,-48.699 -3.803,-49.053 -2.218,-49.284 z"
       id="path7048" />
    <path
       style="fill:none;stroke:#009688;stroke-width:1.5;stroke-linecap:butt;stroke-linejoin:miter;stroke-opacity:1;stroke-miterlimit:4;stroke-dasharray:none"
       d="m 566.801,681.335 9.789,-0.199 10.456,-0.182 11.041,-0.162 11.544,-0.141 11.958,-0.119 12.28,-0.097 12.511,-0.073 12.644,-0.049 12.684,-0.024 h 12.625 l 12.471,0.024 12.221,0.049 11.879,0.073 11.447,0.097 10.926,0.119 10.325,0.141 9.641,0.163 8.888,0.181 -0.659,49.495 -8.826,-0.177 -1.999,49.46 -3.371,49.331 -4.717,49.116 -6.043,48.819 -7.35,48.442 -8.643,47.982 -6.389,-0.107 -6.843,-0.094 -7.241,-0.079 -7.587,-0.064 -7.873,-0.049 -8.1,-0.032 -8.264,-0.016 h -8.369 l -8.405,0.016 -8.381,0.032 -8.292,0.049 -8.138,0.064 -7.926,0.079 -7.651,0.094 -7.317,0.107 -6.93,0.12 -6.488,0.133 -5.998,0.143 -9.498,-47.809 -8.118,-48.346 -6.714,-48.785 -5.282,-49.127 -3.823,-49.365 -2.334,-49.498 9.008,-0.212 z"
       id="path7056" />
    <path
       style="fill:none;stroke:#009688;stroke-width:1.5;stroke-linecap:butt;stroke-linejoin:miter;stroke-opacity:1;stroke-miterlimit:4;stroke-dasharray:none"
       d="m 321.191,663.18 10.084,-0.488 10.895,-0.427 11.623,-0.36 12.262,-0.291 12.808,-0.221 13.258,-0.148 13.606,-0.074 h 13.849 l 13.988,0.074 14.022,0.148 13.947,0.221 13.766,0.291 13.482,0.36 13.094,0.426 12.605,0.489 12.024,0.548 11.35,0.603 10.585,0.652 9.747,0.698 -7.29,18.145 7.555,22.906 0.11,23.293 -8.622,16.602 4.604,21.043 -6.938,20.235 8.114,13.667 -1.688,18.028 -3.832,18.049 -10.603,10.494 8.621,11.803 -2.004,18.722 -7.561,16.776 -20.457,26.527 25.635,-9.907 -5.892,19.406 -7.127,20.417 -1.327,29.864 -14.168,24.251 -0.658,17.998 -6.496,-0.465 -7.058,-0.436 -7.565,-0.401 -8.016,-0.365 -8.404,-0.326 -8.73,-0.284 -8.987,-0.24 -9.177,-0.195 -9.299,-0.147 -9.348,-0.098 -9.326,-0.05 h -9.232 l -9.071,0.05 -8.838,0.098 -8.539,0.147 -8.176,0.195 -7.748,0.24 -7.263,0.284 -6.723,0.326 -9.385,-50.097 -8.004,-50.736 -6.585,-51.237 -5.137,-51.6 -3.653,-51.817 -2.13,-51.882 z"
       id="path7054" />
    <path
       style="fill:none;stroke:#009688;stroke-width:1.5;stroke-linecap:butt;stroke-linejoin:miter;stroke-opacity:1;stroke-miterlimit:4;stroke-dasharray:none"
       d="m 548.215,304.174 -10.824,0.21 -11.561,0.19 -12.209,0.167 -12.762,0.144 -13.222,0.119 -13.578,0.093 -13.832,0.068 -13.981,0.04 -14.023,0.014 -13.959,-0.014 -13.789,-0.04 -13.512,-0.068 -13.135,-0.093 -12.654,-0.119 -12.082,-0.144 -11.414,-0.167 -10.66,-0.19 -9.827,-0.21 1.145,51.812 2.742,51.76 4.303,51.548 5.826,51.187 7.309,50.682 8.757,50.042 10.17,49.269 6.551,0.141 7.106,0.126 7.609,0.111 8.055,0.096 8.437,0.08 8.756,0.062 9.008,0.045 9.193,0.027 9.305,0.009 9.349,-0.009 9.321,-0.027 9.222,-0.045 9.051,-0.062 8.815,-0.08 8.509,-0.096 8.139,-0.111 7.707,-0.126 7.215,-0.141 9.504,-49.279 8.082,-50.05 6.627,-50.686 5.131,-51.187 3.601,-51.544 2.037,-51.753 z"
       id="path7052" />
    <path
       style="fill:none;stroke:#009688;stroke-width:1.5;stroke-linecap:butt;stroke-linejoin:miter;stroke-opacity:1;stroke-miterlimit:4;stroke-dasharray:none"
       d="m 765.414,305.242 v 14.794 l -0.55,36.889 -2.173,51.575 -3.763,51.308 -5.322,50.893 -6.841,50.338 -8.325,49.649 -9.766,48.826 -7.109,0.355 -7.61,0.317 -8.055,0.276 -8.437,0.233 -8.757,0.189 -9.009,0.143 -9.192,0.096 -9.306,0.048 h -9.349 l -9.321,-0.048 -9.221,-0.096 -9.052,-0.143 -8.814,-0.189 -8.507,-0.233 -8.139,-0.276 -7.705,-0.317 -7.216,-0.355 -9.245,-48.976 -7.904,-49.707 -6.54,-50.328 -5.152,-50.84 -3.732,-51.236 -2.283,-51.516 -0.803,-51.669 10.823,0.532 11.559,0.475 12.207,0.414 12.761,0.35 13.221,0.284 13.578,0.214 13.832,0.144 13.981,0.072 h 14.023 l 13.959,-0.072 13.789,-0.144 13.513,-0.214 13.135,-0.284 12.657,-0.35 12.082,-0.414 11.416,-0.475 z"
       id="path7050" />
    <path
       style="fill:none;stroke:#009688;stroke-width:1.5;stroke-linecap:butt;stroke-linejoin:miter;stroke-opacity:1;stroke-miterlimit:4;stroke-dasharray:none"
       d="m 772.13,728.152 8.833,-0.425 -0.112,-49.454 9.648,-0.368 10.329,-0.308 10.932,-0.246 11.45,-0.182 11.882,-0.117 12.223,-0.05 12.472,0.017 12.625,0.083 12.683,0.149 12.642,0.214 12.509,0.278 12.276,0.338 11.955,0.397 11.538,0.452 11.035,0.505 10.448,0.552 9.782,0.596 -1.56,49.465 -2.855,49.519 -4.116,49.442 8.531,0.646 -5.791,49.223 -7.124,48.88 -8.422,48.413 -9.689,47.829 -5.992,-0.422 -6.484,-0.395 -6.924,-0.366 -7.314,-0.335 -7.647,-0.299 -7.922,-0.263 -8.138,-0.224 -8.289,-0.184 -8.38,-0.142 -8.405,-0.099 -8.367,-0.055 -8.267,-0.011 -8.101,0.033 -7.875,0.077 -7.588,0.121 -7.246,0.163 -6.845,0.204 -6.395,0.244 -5.894,0.282 -8.919,-48.305 -7.512,-48.704 -6.09,-49.022 -4.649,-49.258 -3.186,-49.411 z"
       id="path7062" />
    <path
       style="fill:none;stroke:#009688;stroke-width:1.5;stroke-linecap:butt;stroke-linejoin:miter;stroke-opacity:1;stroke-miterlimit:4;stroke-dasharray:none"
       d="m 880.535,320.035 8.267,-9.672 -5.57,-7.258 12.07,-4.699 -4.536,-8.426 -3.68,-9.738 -2.478,-10.574 -1.26,-10.453 -0.499,-9.793 -0.036,-9.063 0.286,-8.816 0.57,-9.016 0.842,-9.218 1.108,-9.43 1.373,-9.641 1.645,-9.855 1.923,-10.071 2.215,-10.273 2.527,-10.473 -13.299,-6.207 -7.643,-13.734 -3.515,12.953 -3.044,12.758 -2.613,12.531 -2.208,12.281 -1.82,12.032 -1.441,11.769 -1.057,11.477 -0.666,11.172 -0.262,10.832 0.188,10.984 0.814,11.703 1.803,12.496 3.344,13.086 4.679,11.922 5.634,10.168 z"
       id="path7064" />
    <path
       style="fill:none;stroke:#009688;stroke-width:1.5;stroke-linecap:butt;stroke-linejoin:miter;stroke-opacity:1;stroke-miterlimit:4;stroke-dasharray:none"
       d="m 857.734,320.036 -1.916,-16.88 -0.689,-16.689 0.951,-15.088 -9.459,-12.34 -8.514,-12.033 -7.632,-11.724 -6.799,-11.411 -5.998,-11.102 -5.209,-10.79 -4.414,-10.462 -3.606,-10.125 -2.763,-9.766 -1.94,-9.85 -0.877,-10.377 0.881,-10.84 3.824,-10.942 6.877,-9.881 9.268,-8.329 11.154,-6.631 12.684,-4.712 13.863,-2.337 -17.697,-6.796 15.849,-2.3 0.209,-12.433 1.953,-12.583 -21.541,2.783 -19.601,6.929 -17.25,10.271 -14.43,13.258 -10.947,16.011 -6.588,18.005 -1.963,17.459 1.111,16.208 2.996,14.986 4.43,14.599 5.856,14.913 7.199,15.2 8.494,15.474 9.762,15.712 11.047,15.942 12.373,16.138 13.771,16.262 z"
       id="path7066" />
    <path
       style="fill:none;stroke:#009688;stroke-width:1.5;stroke-linecap:butt;stroke-linejoin:miter;stroke-opacity:1;stroke-miterlimit:4;stroke-dasharray:none"
       d="m 650.601,305.242 h 9.348 l 9.313,-0.814 9.207,-1.625 9.03,-2.418 8.784,-3.198 8.473,-3.952 8.097,-4.674 7.657,-5.364 7.162,-6.009 6.61,-6.611 6.009,-7.162 5.362,-7.658 4.674,-8.097 3.951,-8.473 3.198,-8.786 2.42,-9.031 1.623,-9.207 0.815,-9.313 v -9.35 l -0.815,-9.313 -1.623,-9.208 -2.42,-9.031 -3.198,-8.785 -3.95,-8.474 -4.675,-8.096 -5.362,-7.658 -6.009,-7.163 -6.61,-6.61 -7.161,-6.01 -7.658,-5.362 -8.097,-4.675 -8.473,-3.951 -8.784,-3.197 -9.03,-2.42 -9.207,-1.623 -9.313,-0.816 h -9.348 l -9.314,0.816 -9.206,1.623 -9.03,2.42 -8.785,3.198 -8.473,3.951 -8.096,4.675 -7.658,5.362 -7.161,6.01 -6.61,6.61 -6.01,7.163 -5.362,7.658 -4.674,8.097 -3.951,8.473 -3.198,8.786 -2.419,9.03 -1.624,9.208 -0.814,9.313 v 9.35 l 0.814,9.313 1.624,9.208 2.419,9.03 3.198,8.786 3.951,8.473 4.674,8.097 5.362,7.658 6.01,7.162 6.61,6.611 7.161,6.009 7.658,5.363 8.096,4.674 8.473,3.952 8.785,3.198 9.03,2.42 9.206,1.623 z"
       id="path7068" />
    <path
       style="fill:none;stroke:#009688;stroke-width:1.5;stroke-linecap:butt;stroke-linejoin:miter;stroke-opacity:1;stroke-miterlimit:4;stroke-dasharray:none"
       d="m 413.254,304.174 h 8.406 l 8.375,-0.733 8.277,-1.46 8.7303,-2.62433 7.2897,-2.42567 7.619,-3.553 7.279,-4.203 6.887,-4.821 6.44,-5.405 5.943,-5.943 5.404,-6.441 4.821,-6.885 4.203,-7.281 3.552,-7.618 2.875,-7.899 2.176,-8.12 1.461,-8.28 0.733,-8.374 v -8.406 l -0.733,-8.374 -1.461,-8.279 -2.176,-8.12 -2.875,-7.9 -3.552,-7.618 -4.201,-7.28 -4.823,-6.887 -5.404,-6.439 -5.943,-5.945 -6.44,-5.403 -6.887,-4.821 -7.279,-4.203 -7.619,-3.553 -7.898,-2.876 -8.12,-2.176 -8.279,-1.459 -8.373,-0.733 h -8.406 l -8.375,0.733 -8.277,1.459 -8.122,2.176 -7.898,2.875 -7.619,3.553 -7.279,4.203 -6.887,4.822 -6.44,5.403 -5.943,5.945 -5.404,6.439 -4.821,6.886 -4.203,7.28 -3.552,7.619 -2.877,7.9 -2.174,8.12 -1.461,8.278 -0.733,8.374 v 8.406 l 0.733,8.375 1.459,8.279 2.176,8.12 2.875,7.899 3.552,7.619 4.203,7.28 4.823,6.886 5.402,6.44 5.945,5.944 6.44,5.404 6.885,4.822 7.281,4.203 7.617,3.553 7.9,2.875 8.12,2.175 8.279,1.46 z"
       id="path7070" />
    <path
       style="fill:none;stroke:#009688;stroke-width:1.5;stroke-linecap:butt;stroke-linejoin:miter;stroke-opacity:1;stroke-miterlimit:4;stroke-dasharray:none"
       d="m 308.129,60.16 2.627,14.934 -0.608,16.906 -2.912,16.652 -11.343,13.864 -10.19,13.586 -9.117,13.281 -8.107,12.965 -7.135,12.64 -6.18,12.321 -5.205,11.953 -4.217,11.574 -3.181,11.164 -2.165,11.254 -0.861,11.887 1.274,12.547 4.4063,12.1917 8.5137,12.2143 10.812,9.547 12.918,7.464 14.615,5.129 15.889,2.246 2.793,12.473 -0.473,12.535 -21.527,-2.711 18.164,11.879 -23.721,-2.894 -21.547,-7.559 -18.906,-11.305 -15.73,-14.601 -11.848,-17.488 -7.195,-19.477 -2.36,-19.227 1.075,-18.043 3.251,-16.675 4.897,-16.18 6.51,-16.457 8.013,-16.703 9.457,-16.938 10.872,-17.156 12.298,-17.348 13.776,-17.488 15.334,-17.535 z"
       id="path7072" />
    <path
       style="fill:none;stroke:#009688;stroke-width:1.5;stroke-linecap:butt;stroke-linejoin:miter;stroke-opacity:1;stroke-miterlimit:4;stroke-dasharray:none"
       d="m 205.613,0 -9.395,0.578 -10.103,0.52 -10.732,0.459 -11.28,0.395 L 152.359,2.279 140.243,2.536 127.846,2.721 115.262,2.832 102.588,2.87 89.919,2.832 77.353,2.721 64.983,2.536 52.906,2.279 41.213,1.952 29.992,1.557 19.33,1.098 9.308,0.578 0,0 l 0.517,49.355 2.061,49.239 3.575,48.993 8.71,0.595 4.609,48.613 5.936,48.109 7.233,47.485 8.495,46.749 6.080602,0.20474 7.628398,0.44426 7.436,0.261 7.75,0.217 8.004,0.171 8.198,0.122 8.329,0.074 8.396,0.025 8.4,-0.025 8.34,-0.074 8.217,-0.122 8.03,-0.171 8.3634,-0.39054 6.8956,-0.0875 7.113,-0.304 6.696,-0.345 6.226,-0.383 8.716,-46.816 7.492,-47.529 6.244,-48.132 4.97,-48.626 3.663,-49.004 2.328,-49.26 z"
       id="path7074" />
    <path
       style="fill:none;stroke:#009688;stroke-width:1.5;stroke-linecap:butt;stroke-linejoin:miter;stroke-opacity:1;stroke-miterlimit:4;stroke-dasharray:none"
       d="m 37.961,340.656 -9.965,50.223 -8.496,50.769 -7.006,51.2 L 7.01,544.363 3.078,596.082 0.729,647.883 0,699.629 l 10.291,0.637 11.082,0.574 11.789,0.508 12.404,0.437 12.93,0.363 13.354,0.286 13.675,0.203 13.893,0.121 14.008,0.043 14.013,-0.043 13.915,-0.121 13.707,-0.203 13.396,-0.286 12.982,-0.363 12.473,-0.437 11.867,-0.508 11.168,-0.574 10.389,-0.637 6.904,-19.152 -8.715,-21.715 -1.964,-23.129 7.234,-17.738 -7.254,-20.184 4.07,-21.031 -10.961,-12.297 -1.671,-18.035 0.367,-18.36 8.425,-11.871 -11.693,-10.347 -2.861,-18.68 3.387,-17.578 10.195,-28.797 -21.32,13.324 0.232,-19.871 0.516,-21 -10.471,-29.262 4.908,-25.676 -7.146,-17.574 -6.926,0.426 -7.446,0.387 -7.912,0.336 -8.314,0.293 -8.656,0.238 -8.93,0.191 -9.139,0.137 -9.275,0.082 -9.342,0.027 -9.338,-0.027 -9.263,-0.082 -9.118,-0.137 -8.902,-0.191 -8.619,-0.238 -8.27,-0.293 -7.859,-0.336 -7.389,-0.387 z"
       id="path7076" />
    <path
       style="fill:none;stroke:#009688;stroke-width:1.5;stroke-linecap:butt;stroke-linejoin:miter;stroke-opacity:1;stroke-miterlimit:4;stroke-dasharray:none"
       d="m 183.467,455.242 5.23,-15.039 0.955,-16.543 -3.084,-16.68 -8.347,-14.558 -14.145,-6.328 -13.471,7.195 -6.269,15.016 0.012,16.773 4.521,16.371 8.715,14.602 13.934,7.734 z"
       id="path7082" />
    <path
       style="fill:none;stroke:#009688;stroke-width:1.5;stroke-linecap:butt;stroke-linejoin:miter;stroke-opacity:1;stroke-miterlimit:4;stroke-dasharray:none"
       d="m 160.451,638.645 8.44,-9.52 11.486,-3.828 11.26,3.113 8.076,9.004 3.139,12.445 -2.575,12.672 -7.797,9.469 -11.171,3.723 -11.651,-3.008 -8.849,-8.945 -3.391,-12.489 z"
       id="path7084" />
    <path
       style="fill:none;stroke:#009688;stroke-width:1.5;stroke-linecap:butt;stroke-linejoin:miter;stroke-opacity:1;stroke-miterlimit:4;stroke-dasharray:none"
       d="m 311.141,681.959 8.88,20.842 v -23.387 z"
       id="path7086" />
    <polygon
       stroke="black"
       stroke-width="1"
       fill="#cccccc"
       fill-opacity="0"
       points="316.184,623.367 311.141,615.035 316.184,603.57 "
       id="polygon2504"
       style="stroke:#009688;stroke-width:1.5;stroke-miterlimit:4;stroke-dasharray:none;stroke-opacity:1" />
    <polygon
       stroke="black"
       stroke-width="1"
       fill="#cccccc"
       fill-opacity="0"
       points="318.518,638.09 311.141,635.235 318.518,623.368 "
       id="polygon2506"
       style="stroke:#009688;stroke-width:1.5;stroke-miterlimit:4;stroke-dasharray:none;stroke-opacity:1" />
    <polygon
       stroke="black"
       stroke-width="1"
       fill="#cccccc"
       fill-opacity="0"
       points="312.138,654.744 311.141,638.09 320.247,638.09 "
       id="polygon2526"
       style="stroke:#009688;stroke-width:1.5;stroke-miterlimit:4;stroke-dasharray:none;stroke-opacity:1" />
    <polygon
       stroke="black"
       stroke-width="1"
       fill="#cccccc"
       fill-opacity="0"
       points="318.615,679.414 311.141,660.477 318.615,654.746 "
       id="polygon5968"
       style="stroke:#009688;stroke-width:1.5;stroke-miterlimit:4;stroke-dasharray:none;stroke-opacity:1" />
    <path
       style="fill:none;stroke:#009688;stroke-width:1.5;stroke-linecap:butt;stroke-linejoin:miter;stroke-opacity:1;stroke-miterlimit:4;stroke-dasharray:none"
       d="m 290.143,688.801 -8.302,13.999 -6.457,-16.912 -5.671,-17.072 -14.74,3.428 -5.065,-17.997 -4.349,-17.89 -3.665,-17.724 -2.988,-17.53 -2.296,-17.321 -1.573,-17.093 -0.797,-16.824 0.072,-17.335 1.268,-18.575 2.937,-19.339 4.94,-19.073 6.868,-17.611 8.505,-15.18 12.57,4.063 9.366,-11.758 9.377,9.093 -8.571,10.62 -7.54,13.529 -6.186,16.186 -4.373,18.073 -2.231,17.422 -0.736,16.109 0.215,14.849 0.897,14.43 1.524,14.712 2.113,14.967 2.683,15.209 3.243,15.419 3.811,15.618 4.402,15.782 5.029,15.875 z"
       id="path7094" />
    <path
       style="fill:none;stroke:#009688;stroke-width:1.5;stroke-linecap:butt;stroke-linejoin:miter;stroke-opacity:1;stroke-miterlimit:4;stroke-dasharray:none"
       d="m 304.172,702.801 6.969,-14.666 -3.666,-17.082 -2.927,-16.914 -2.133,-16.707 -1.307,-17.287 -0.212,-18.616 1.39,-19.511 3.408,-19.407 5.447,-18.101 -10.87,2.113 -5.502,18.188 -3.08236,19.08865 -1.54364,20.13935 0.332,17.945 1.32,16.444 2.059,15.847 2.78,16.026 3.448,16.178 z"
       id="path7096" />
    <path
       style="fill:none;stroke:#009688;stroke-width:1.5;stroke-linecap:butt;stroke-linejoin:miter;stroke-opacity:1;stroke-miterlimit:4;stroke-dasharray:none"
       d="m 299.181,404.445 -0.159,-18.73 13.063,-2.723 v 19.305 22.822 25.826 l -12.561,0.549 -9.161,1.186 -0.113,-22.657 -0.107,-20.039 z"
       id="path7098" />
    <path
       style="fill:none;stroke:#009688;stroke-width:1.5;stroke-linecap:butt;stroke-linejoin:miter;stroke-opacity:1;stroke-miterlimit:4;stroke-dasharray:none"
       d="m 262.348,348.564 -12.909,2.797 v -5.727 l -14.386,3.85 -0.147,13.753 -0.154,15.3 -0.161,16.89 -0.171,18.557 -0.179,20.353 15.237,0.72 9.089,-0.555 12.519,-0.316 v -36.131 l -8.738,-2.1 z"
       id="path7100" />
    <path
       style="fill:none;stroke:#009688;stroke-width:1.5;stroke-linecap:butt;stroke-linejoin:miter;stroke-opacity:1;stroke-miterlimit:4;stroke-dasharray:none"
       d="m 271.086,355.229 14.22,-2.456 -0.024,41.079 -13.815,-1.909 z"
       id="path7102" />
    <path
       style="fill:none;stroke:#009688;stroke-width:1.5;stroke-linecap:butt;stroke-linejoin:miter;stroke-opacity:1;stroke-miterlimit:4;stroke-dasharray:none"
       d="m 271.086,394.572 15.198,-0.72 v 41.205 l -14.848,-1.575 z"
       id="path7104" />
    <path
       style="fill:none;stroke:#009688;stroke-width:1.5;stroke-linecap:butt;stroke-linejoin:miter;stroke-opacity:1;stroke-miterlimit:4;stroke-dasharray:none"
       d="m 307.46,460.779 12.561,0.547 v 83.184 l -13.215,-3.053 z"
       id="path7106" />
    <path
       style="fill:none;stroke:#009688;stroke-width:1.5;stroke-linecap:butt;stroke-linejoin:miter;stroke-opacity:1;stroke-miterlimit:4;stroke-dasharray:none"
       d="m 306.806,452.68 -11.194,4.062 -1.652,9.352 -1.374,9.156 -1.092,8.965 -0.794,8.785 -0.489,9.051 -0.068,9.804 0.653,10.508 1.861,10.699 3.111,9.934 11.038,1.512 -3.266,-10.43 -2.006,-11.215 -0.744,-10.855 0.026,-10.235 0.5,-9.621 0.858,-9.461 1.208,-9.742 1.546,-10.008 z"
       id="path7108" />
    <path
       style="fill:none;stroke:#009688;stroke-width:1.5;stroke-linecap:butt;stroke-linejoin:miter;stroke-opacity:1;stroke-miterlimit:4;stroke-dasharray:none"
       d="m 112.26,1016.713 13.545,3.629 13.81,2.435 13.971,1.223 h 14.023 l 13.971,-1.223 13.811,-2.435 13.545,-3.629 13.177,-4.797 12.709,-5.926 12.147,-7.013 11.486,-8.043 10.742,-9.014 9.916,-9.918 9.014,-10.742 8.045,-11.489 7.012,-12.144 5.925,-12.709 4.797,-13.18 3.629,-13.545 2.436,-13.81 1.22,-13.971 v -14.025 l -1.222,-13.971 -2.434,-13.811 -3.631,-13.544 -4.797,-13.178 -5.925,-12.711 -7.012,-12.145 -8.045,-11.488 -9.014,-10.742 -9.916,-9.916 -10.742,-9.016 -11.488,-8.043 -12.145,-7.011 -12.709,-5.928 -13.177,-4.797 -13.547,-3.629 -13.811,-2.436 -13.971,-1.22 h -14.023 l -13.969,1.22 -13.81,2.436 -13.547,3.631 -13.178,4.797 -12.709,5.926 -12.144,7.011 -11.489,8.045 -20.658,18.93 -9.014,10.744 -8.043,11.486 -7.011,12.147 -5.928,12.709 L 7.287,815.061 3.656,828.607 1.223,842.418 0,856.389 v 14.023 l 1.223,13.971 2.435,13.81 3.629,13.547 4.797,13.178 5.926,12.709 7.013,12.146 8.043,11.487 9.014,10.744 9.916,9.916 10.744,9.014 11.487,8.045 12.144,7.011 12.711,5.926 z"
       id="path7110" />
    <path
       style="fill:none;stroke:#009688;stroke-width:1.5;stroke-linecap:butt;stroke-linejoin:miter;stroke-opacity:1;stroke-miterlimit:4;stroke-dasharray:none"
       d="m 116.879,1002.062 12.25,3.284 12.492,2.203 12.635,1.105 h 12.683 l 12.635,-1.105 12.49,-2.203 12.252,-3.284 11.918,-4.337 11.496,-5.362 10.985,-6.342 10.389,-7.273 9.716,-8.154 8.969,-8.969 8.152,-9.717 7.276,-10.388 6.342,-10.985 5.359,-11.496 4.338,-11.92 3.283,-12.25 2.5079,-13.06706 0.7991,-12.05994 v -12.685 l -1.106,-12.635 -2.203,-12.49 -3.281,-12.252 -4.338,-11.92 -5.361,-11.494 -6.342,-10.985 -7.276,-10.39 -8.152,-9.717 -8.969,-8.969 -9.716,-8.152 -10.389,-7.276 -10.984,-6.341 -11.497,-5.362 -11.918,-4.338 -12.252,-3.283 -12.49,-2.201 -12.636,-1.106 h -12.684 l -12.635,1.106 -12.49,2.203 -12.252,3.281 -11.918,4.34 -11.496,5.36 -10.982,6.341 -10.391,7.276 -9.717,8.152 -8.967,8.971 -8.154,9.715 -7.273,10.39 -6.342,10.985 -5.362,11.496 -4.337,11.918 -3.282,12.252 -2.203,12.492 -1.105,12.635 v 12.683 l 1.105,12.637 2.203,12.49 3.284,12.252 4.337,11.918 5.36,11.496 6.342,10.985 7.275,10.39 8.154,9.715 8.969,8.969 9.715,8.154 10.39,7.275 10.985,6.342 11.494,5.36 z"
       id="path7112" />
  </g>
</svg>
