<?xml version="1.0" encoding="UTF-8" standalone="no"?>
<svg
   xmlns:dc="http://purl.org/dc/elements/1.1/"
   xmlns:cc="http://creativecommons.org/ns#"
   xmlns:rdf="http://www.w3.org/1999/02/22-rdf-syntax-ns#"
   xmlns:svg="http://www.w3.org/2000/svg"
   xmlns="http://www.w3.org/2000/svg"
   xmlns:sodipodi="http://sodipodi.sourceforge.net/DTD/sodipodi-0.dtd"
   xmlns:inkscape="http://www.inkscape.org/namespaces/inkscape"
   width="1024"
   height="1024"
   viewBox="0 0 1024 1024"
   version="1.1"
   id="svg1744"
   sodipodi:docname="N1eNAy5M.svg"
   inkscape:version="1.0.1 (3bc2e813f5, 2020-09-07)">
  <metadata
     id="metadata1750">
    <rdf:RDF>
      <cc:Work
         rdf:about="">
        <dc:format>image/svg+xml</dc:format>
        <dc:type
           rdf:resource="http://purl.org/dc/dcmitype/StillImage" />
      </cc:Work>
    </rdf:RDF>
  </metadata>
  <defs
     id="defs1748" />
  <sodipodi:namedview
     pagecolor="#ffffff"
     bordercolor="#666666"
     borderopacity="1"
     objecttolerance="10"
     gridtolerance="10"
     guidetolerance="10"
     inkscape:pageopacity="0"
     inkscape:pageshadow="2"
     inkscape:window-width="2482"
     inkscape:window-height="1411"
     id="namedview1746"
     showgrid="false"
     inkscape:zoom="0.83115737"
     inkscape:cx="501.96999"
     inkscape:cy="638.14408"
     inkscape:window-x="69"
     inkscape:window-y="-9"
     inkscape:window-maximized="1"
     inkscape:current-layer="layer1" />
  <desc
     id="desc2">, (Blender 2.91.0)</desc>
  <g
     inkscape:groupmode="layer"
     id="layer1"
     inkscape:label="uv"
     style="display:inline">
    <path
       style="fill:none;stroke:#009688;stroke-width:1.5;stroke-linecap:butt;stroke-linejoin:miter;stroke-opacity:1;stroke-miterlimit:4;stroke-dasharray:none"
       d="M 0,79.77 96.896,26.106 v 107.957 z"
       id="path2576" />
    <path
       style="fill:none;stroke:#009688;stroke-width:1.5;stroke-linecap:butt;stroke-linejoin:miter;stroke-opacity:1;stroke-miterlimit:4;stroke-dasharray:none"
       d="m 101.4,200.276 v -1.993 L 0,134.063 v 121.208 z"
       id="path2578" />
    <path
       style="fill:none;stroke:#009688;stroke-width:1.5;stroke-linecap:butt;stroke-linejoin:miter;stroke-opacity:1;stroke-miterlimit:4;stroke-dasharray:none"
       d="m 101.4,191.474 v 1.983 l 101.854,61.978 V 134.764 Z"
       id="path2580" />
    <path
       style="fill:none;stroke:#009688;stroke-width:1.5;stroke-linecap:butt;stroke-linejoin:miter;stroke-opacity:1;stroke-miterlimit:4;stroke-dasharray:none"
       d="M 101.4,82.59 195.954,23.291 V 134.603 Z"
       id="path2582" />
    <path
       style="fill:none;stroke:#009688;stroke-width:1.5;stroke-linecap:butt;stroke-linejoin:miter;stroke-opacity:1;stroke-miterlimit:4;stroke-dasharray:none"
       d="m 195.954,120.923 77.2,-87.689 v 101.369 z"
       id="path2584" />
    <path
       style="fill:none;stroke:#009688;stroke-width:1.5;stroke-linecap:butt;stroke-linejoin:miter;stroke-opacity:1;stroke-miterlimit:4;stroke-dasharray:none"
       d="M 276.892,80.278 374.308,26.323 V 134.208 Z"
       id="path2586" />
    <path
       style="fill:none;stroke:#009688;stroke-width:1.5;stroke-linecap:butt;stroke-linejoin:miter;stroke-opacity:1;stroke-miterlimit:4;stroke-dasharray:none"
       d="M 395.014,130.677 379.235,31.779 h 78.494 z"
       id="path2588" />
    <path
       style="fill:none;stroke:#009688;stroke-width:1.5;stroke-linecap:butt;stroke-linejoin:miter;stroke-opacity:1;stroke-miterlimit:4;stroke-dasharray:none"
       d="M 471.585,130.677 536.952,33.088 H 457.729 Z"
       id="path2590" />
    <path
       style="fill:none;stroke:#009688;stroke-width:1.5;stroke-linecap:butt;stroke-linejoin:miter;stroke-opacity:1;stroke-miterlimit:4;stroke-dasharray:none"
       d="M 547.645,75.462 642,23.116 v 112.469 z"
       id="path2592" />
    <path
       style="fill:none;stroke:#009688;stroke-width:1.5;stroke-linecap:butt;stroke-linejoin:miter;stroke-opacity:1;stroke-miterlimit:4;stroke-dasharray:none"
       d="M 649.25,77.262 745.353,24.133 V 136.148 Z"
       id="path2594" />
    <path
       style="fill:none;stroke:#009688;stroke-width:1.5;stroke-linecap:butt;stroke-linejoin:miter;stroke-opacity:1;stroke-miterlimit:4;stroke-dasharray:none"
       d="m 547.645,191.839 v 1.999 l 101.605,63.609 -0.023,-121.682 z"
       id="path2596" />
    <path
       style="fill:none;stroke:#009688;stroke-width:1.5;stroke-linecap:butt;stroke-linejoin:miter;stroke-opacity:1;stroke-miterlimit:4;stroke-dasharray:none"
       d="m 649.25,192.134 v 1.995 l 101.627,63.084 -0.019,-120.885 z"
       id="path2598" />
    <path
       style="fill:none;stroke:#009688;stroke-width:1.5;stroke-linecap:butt;stroke-linejoin:miter;stroke-opacity:1;stroke-miterlimit:4;stroke-dasharray:none"
       d="M 751.053,217.641 852.721,160.81 v 122.139 z"
       id="path2600" />
    <path
       style="fill:none;stroke:#009688;stroke-width:1.5;stroke-linecap:butt;stroke-linejoin:miter;stroke-opacity:1;stroke-miterlimit:4;stroke-dasharray:none"
       d="M 751.053,107.259 846.938,47.463 V 160.81 Z"
       id="path2602" />
    <path
       style="fill:none;stroke:#009688;stroke-width:1.5;stroke-linecap:butt;stroke-linejoin:miter;stroke-opacity:1;stroke-miterlimit:4;stroke-dasharray:none"
       d="M 852.721,115.706 951.762,60.804 V 170.636 Z"
       id="path2604" />
    <path
       style="fill:none;stroke:#009688;stroke-width:1.5;stroke-linecap:butt;stroke-linejoin:miter;stroke-opacity:1;stroke-miterlimit:4;stroke-dasharray:none"
       d="M 852.721,226.811 954.128,170.636 V 282.949 Z"
       id="path2606" />
    <path
       style="fill:none;stroke:#009688;stroke-width:1.5;stroke-linecap:butt;stroke-linejoin:miter;stroke-opacity:1;stroke-miterlimit:4;stroke-dasharray:none"
       d="m 946.884,294.32 h 77.061 l -14.332,96.662 z"
       id="path2608" />
    <path
       style="fill:none;stroke:#009688;stroke-width:1.5;stroke-linecap:butt;stroke-linejoin:miter;stroke-opacity:1;stroke-miterlimit:4;stroke-dasharray:none"
       d="m 1024,390.982 -16.335,97.557 -60.781,-97.557 z"
       id="path2610" />
    <path
       style="fill:none;stroke:#009688;stroke-width:1.5;stroke-linecap:butt;stroke-linejoin:miter;stroke-opacity:1;stroke-miterlimit:4;stroke-dasharray:none"
       d="m 863.006,282.949 82.239,0.735 -15.885,100.429 -122.045,0.238 z"
       id="path2612" />
    <path
       style="fill:none;stroke:#009688;stroke-width:1.5;stroke-linecap:butt;stroke-linejoin:miter;stroke-opacity:1;stroke-miterlimit:4;stroke-dasharray:none"
       d="M 807.181,384.596 752.136,488.512 946.792,488.325 929.414,384.354 Z"
       id="path2614" />
    <path
       style="fill:none;stroke:#009688;stroke-width:1.5;stroke-linecap:butt;stroke-linejoin:miter;stroke-opacity:1;stroke-miterlimit:4;stroke-dasharray:none"
       d="m 928.479,562.485 76.39,-15.081 0.34,200.823 -76.73,-11.882 76.73,-88.312 z"
       id="path2616" />
    <path
       style="fill:none;stroke:#009688;stroke-width:1.5;stroke-linecap:butt;stroke-linejoin:miter;stroke-opacity:1;stroke-miterlimit:4;stroke-dasharray:none"
       d="m 866.149,1024 -25.062,-21.146 25.062,-114.495 -110.05,38.206 84.996,76.282 z"
       id="path2618" />
    <path
       style="fill:none;stroke:#009688;stroke-width:1.5;stroke-linecap:butt;stroke-linejoin:miter;stroke-opacity:1;stroke-miterlimit:4;stroke-dasharray:none"
       d="m 866.149,970.763 96.063,-60.655 V 1024 Z"
       id="path2620" />
    <path
       style="fill:none;stroke:#009688;stroke-width:1.5;stroke-linecap:butt;stroke-linejoin:miter;stroke-opacity:1;stroke-miterlimit:4;stroke-dasharray:none"
       d="M 859.237,831.881 960.032,776.048 V 888.359 Z"
       id="path2622" />
    <path
       style="fill:none;stroke:#009688;stroke-width:1.5;stroke-linecap:butt;stroke-linejoin:miter;stroke-opacity:1;stroke-miterlimit:4;stroke-dasharray:none"
       d="m 859.037,888.237 0.2,-121.404 -103.119,57.795 z"
       id="path2624" />
    <path
       style="fill:none;stroke:#009688;stroke-width:1.5;stroke-linecap:butt;stroke-linejoin:miter;stroke-opacity:1;stroke-miterlimit:4;stroke-dasharray:none"
       d="m 646.838,794.837 3.047,-1.922 103.649,49.88 2.565,4.081 v 117.191 l -1.306,0.823 -99.284,-54.348 -2.772,-4.41 z"
       id="path2626" />
    <path
       style="fill:none;stroke:#009688;stroke-width:1.5;stroke-linecap:butt;stroke-linejoin:miter;stroke-opacity:1;stroke-miterlimit:4;stroke-dasharray:none"
       d="m 552.615,853.97 3.002,-1.876 97.12,54.038 2.772,4.41 6.463,112.646 -1.298,0.812 -105.092,-50.959 -2.772,-4.411 z"
       id="path2628" />
    <path
       style="fill:none;stroke:#009688;stroke-width:1.5;stroke-linecap:butt;stroke-linejoin:miter;stroke-opacity:1;stroke-miterlimit:4;stroke-dasharray:none"
       d="m 276.892,829.435 80.744,-81.207 h 114.201 l 80.759,80.767 0.019,114.212 -80.794,80.648 -57.07,0.088 L 357.655,1024 276.9,943.229 Z"
       id="path2630" />
    <path
       style="fill:none;stroke:#009688;stroke-width:1.5;stroke-linecap:butt;stroke-linejoin:miter;stroke-opacity:1;stroke-miterlimit:4;stroke-dasharray:none"
       d="m 0.019,310.219 2.562,-4.085 105.352,-50.699 1.302,0.827 -6.157,113.569 -2.764,4.41 L 2.99,427.436 0,425.533 Z"
       id="path2632" />
    <path
       style="fill:none;stroke:#009688;stroke-width:1.5;stroke-linecap:butt;stroke-linejoin:miter;stroke-opacity:1;stroke-miterlimit:4;stroke-dasharray:none"
       d="m 100.295,374 2.783,-4.169 99.028,-55.343 1.302,0.804 -0.211,116.62 -2.558,4.311 -103.369,50.293 -2.994,-1.849 z"
       id="path2634" />
    <path
       style="fill:none;stroke:#009688;stroke-width:1.5;stroke-linecap:butt;stroke-linejoin:miter;stroke-opacity:1;stroke-miterlimit:4;stroke-dasharray:none"
       d="m 0,486.543 0.019,80.271 -0.004,2.044 101.739,56.94 -0.977,121.076 103.565,-63.946 0.574,-195.838 -103.097,16.635 z"
       id="path2636" />
    <path
       style="fill:none;stroke:#009688;stroke-width:1.5;stroke-linecap:butt;stroke-linejoin:miter;stroke-opacity:1;stroke-miterlimit:4;stroke-dasharray:none"
       d="m 269.63,632.245 -64.714,74.499 64.714,40.364 z"
       id="path2638" />
    <path
       style="fill:none;stroke:#009688;stroke-width:1.5;stroke-linecap:butt;stroke-linejoin:miter;stroke-opacity:1;stroke-miterlimit:4;stroke-dasharray:none"
       d="m 354.924,479.22 3.461,-1.746 107.802,0.333 3.714,1.229 75.976,76.447 1.929,111.75 -1.742,3.273 -76.297,76.29 -111.574,1.424 -3.564,-1.558 -76.328,-76.336 -1.064,-111.436 1.202,-3.66 z"
       id="path2640" />
    <path
       style="fill:none;stroke:#009688;stroke-width:1.5;stroke-linecap:butt;stroke-linejoin:miter;stroke-opacity:1;stroke-miterlimit:4;stroke-dasharray:none"
       d="m 547.749,748.051 103.139,-15.881 101.681,16.058 -0.004,-79.425 0.004,-2.033 -101.543,-56.53 0.345,-121.701 -103.5,64.497 -0.061,62.342 z"
       id="path2642" />
    <path
       style="fill:none;stroke:#009688;stroke-width:1.5;stroke-linecap:butt;stroke-linejoin:miter;stroke-opacity:1;stroke-miterlimit:4;stroke-dasharray:none"
       d="m 752.584,647.42 36.189,-100.161 v 0 l 2.45,-3.58 82.476,-0.134 54.543,103.878 -59.727,100.805 -2.014,-0.035 h -81.082 l 20.46,-102.921 -14.664,-101.398 z"
       id="path2644" />
    <path
       style="fill:none;stroke:#009688;stroke-width:1.5;stroke-linecap:butt;stroke-linejoin:miter;stroke-opacity:1;stroke-miterlimit:4;stroke-dasharray:none"
       d="m 747.99,316.568 3.063,1.919 V 433.43 l -2.561,4.085 -105.372,51.024 -1.302,-0.815 6.337,-113.006 2.542,-4.323 z"
       id="path2646" />
    <path
       style="fill:none;stroke:#009688;stroke-width:1.5;stroke-linecap:butt;stroke-linejoin:miter;stroke-opacity:1;stroke-miterlimit:4;stroke-dasharray:none"
       d="m 547.665,311.817 2.764,-4.41 103.281,-49.96 3.059,1.922 -6.053,111.264 -2.787,4.173 -98.982,54.684 -1.302,-0.819 z"
       id="path2648" />
    <path
       style="fill:none;stroke:#009688;stroke-width:1.5;stroke-linecap:butt;stroke-linejoin:miter;stroke-opacity:1;stroke-miterlimit:4;stroke-dasharray:none"
       d="m 377.222,358.967 -6.153,-111.674 1.302,-0.792 105.145,51.667 2.772,4.177 V 416.48 l -3.04,1.85 -97.484,-55.041 z"
       id="path2650" />
    <path
       style="fill:none;stroke:#009688;stroke-width:1.5;stroke-linecap:butt;stroke-linejoin:miter;stroke-opacity:1;stroke-miterlimit:4;stroke-dasharray:none"
       d="m 276.892,306.315 1.302,-0.838 99.028,53.49 2.768,4.407 6.014,112.152 -3.009,1.941 -103.541,-49.527 -2.562,-4.082 z"
       id="path2652" />
    <path
       style="fill:none;stroke:#009688;stroke-width:1.5;stroke-linecap:butt;stroke-linejoin:miter;stroke-opacity:1;stroke-miterlimit:4;stroke-dasharray:none"
       d="m 276.892,189.758 102.343,-55.55 v 112.293 z"
       id="path2654" />
    <path
       style="fill:none;stroke:#009688;stroke-width:1.5;stroke-linecap:butt;stroke-linejoin:miter;stroke-opacity:1;stroke-miterlimit:4;stroke-dasharray:none"
       d="m 379.235,192.387 98.411,-61.71 v 115.824 z"
       id="path2656" />
    <path
       style="fill:none;stroke:#009688;stroke-width:1.5;stroke-linecap:butt;stroke-linejoin:miter;stroke-opacity:1;stroke-miterlimit:4;stroke-dasharray:none"
       d="m 194.565,1024 2.033,-0.804 79.428,-79.428 0.866,-2.009 -0.027,-112.313 -0.777,-2.044 -79.441,-79.398 -1.988,-0.856 -112.323,-0.01 -2.044,0.777 L 0.866,827.34 0,829.349 l 0.03,112.315 0.777,2.044 79.425,79.426 2.009,0.866 z"
       id="path2658" />
    <path
       style="fill:none;stroke:#009688;stroke-width:1.5;stroke-linecap:butt;stroke-linejoin:miter;stroke-opacity:1;stroke-miterlimit:4;stroke-dasharray:none"
       d="M 83.47,1020.372 81.924,1019.655 4.57,941.851 3.931,940.313 3.628,830.578 l 0.98,-1.419 77.541,-77.481 1.538,-0.639 109.619,0.04 1.665,0.377 77.354,77.803 0.91,1.441 -0.314,109.714 -0.637,1.535 -77.384,77.811 -1.694,0.309 z"
       id="path2660" />
    <path
       style="fill:none;stroke:#009688;stroke-width:1.5;stroke-linecap:butt;stroke-linejoin:miter;stroke-opacity:1;stroke-miterlimit:4;stroke-dasharray:none"
       d="m 204.916,632.157 0.14444,1.25945 0.45118,-0.30079 0.82716,-0.22559 h 1.27834 l 1.01515,-0.0376 1.01515,0.22559 0.52638,0.0752 0.18799,-0.67677 -0.30879,-0.48949 0.008,-0.75124 h -0.60157 l 0.0752,-130.99205 -0.97755,0.41358 0.33838,22.7093 -0.63346,-0.008 -0.0809,9.48233 -0.93709,-0.18633 -0.77,-1.078 -0.0976,-2.1195 -0.93938,-0.5715 -0.46,-0.157 z"
       id="path2664" />
    <path
       style="fill:none;stroke:#009688;stroke-width:1.5;stroke-linecap:butt;stroke-linejoin:miter;stroke-opacity:1;stroke-miterlimit:4;stroke-dasharray:none"
       d="m 277.237,558.89 -0.444,-19.484 -0.222,-5.995 -0.261,-27.065 -0.046,0.004 -0.51479,0.2182 v 1.48881 L 275.2,508.559 l -0.26,22.124 -0.52009,1.30134 -0.54491,-0.20434 -0.061,-24.188 -0.945,-0.277 0.172,28.812 -1.152,1.16 -1.26,-1.19 -0.999,-1.122 0.11079,95.37726 0.11921,8.18874 2.354,0.155 0.727,0.666 -0.0631,74.62958 -1.06344,-0.26586 -2.0737,-73.96204 2.93721,107.26332 0.393,0.081 0.766,-0.014 0.0512,-19.59677 h 0.63806 l 0.52075,19.52677 0.199,0.084 0.45003,-19.18539 0.26586,-22.54487 0.63807,0.47855 0.26204,41.17071 0.375,-188.137 z"
       id="path2666" />
    <path
       style="fill:none;stroke:#009688;stroke-width:1.5;stroke-linecap:butt;stroke-linejoin:miter;stroke-opacity:1;stroke-miterlimit:4;stroke-dasharray:none"
       d="M 654.242,908.264 754.966,844.743"
       id="path2668" />
    <path
       style="fill:none;stroke:#009688;stroke-width:1.5;stroke-linecap:butt;stroke-linejoin:miter;stroke-opacity:1;stroke-miterlimit:4;stroke-dasharray:none"
       d="M 554.154,970.862 654.242,908.264"
       id="path2670" />
    <path
       style="fill:none;stroke:#009688;stroke-width:1.5;stroke-linecap:butt;stroke-linejoin:miter;stroke-opacity:1;stroke-miterlimit:4;stroke-dasharray:none"
       d="M 202.064,434.048 101.574,371.963 1.152,308.086"
       id="path2672" />
    <path
       style="fill:none;stroke:#009688;stroke-width:1.5;stroke-linecap:butt;stroke-linejoin:miter;stroke-opacity:1;stroke-miterlimit:4;stroke-dasharray:none"
       d="m 278.026,425.987 100.459,-64.75 100.463,-61.128"
       id="path2674" />
    <path
       style="fill:none;stroke:#009688;stroke-width:1.5;stroke-linecap:butt;stroke-linejoin:miter;stroke-opacity:1;stroke-miterlimit:4;stroke-dasharray:none"
       d="m 549.008,309.589 100.425,63.088"
       id="path2676" />
    <path
       style="fill:none;stroke:#009688;stroke-width:1.5;stroke-linecap:butt;stroke-linejoin:miter;stroke-opacity:1;stroke-miterlimit:4;stroke-dasharray:none"
       d="M 749.92,435.566 649.433,372.677"
       id="path2678" />
    <path
       style="fill:none;stroke:#009688;stroke-width:1.5;stroke-linecap:butt;stroke-linejoin:miter;stroke-opacity:1;stroke-miterlimit:4;stroke-dasharray:none"
       d="m 807.181,384.596 58.111,102.561 64.072,-102.558 -66.358,-101.65 z"
       id="path2680" />
    <path
       style="fill:none;stroke:#009688;stroke-width:1.5;stroke-linecap:butt;stroke-linejoin:miter;stroke-opacity:1;stroke-miterlimit:4;stroke-dasharray:none"
       d="m 650.785,610.416 -102.979,56.817 102.83,64.826 z"
       id="path2682" />
    <path
       style="fill:none;stroke:#009688;stroke-width:1.5;stroke-linecap:butt;stroke-linejoin:miter;stroke-opacity:1;stroke-miterlimit:4;stroke-dasharray:none"
       d="M 651.007,610.221 547.936,553.09 547.645,666.884 Z"
       id="path2684" />
    <path
       style="fill:none;stroke:#009688;stroke-width:1.5;stroke-linecap:butt;stroke-linejoin:miter;stroke-opacity:1;stroke-miterlimit:4;stroke-dasharray:none"
       d="M 650.785,610.416 752.569,666.77 650.647,732.113 Z"
       id="path2686" />
    <path
       style="fill:none;stroke:#009688;stroke-width:1.5;stroke-linecap:butt;stroke-linejoin:miter;stroke-opacity:1;stroke-miterlimit:4;stroke-dasharray:none"
       d="m 805.749,645.501 60.752,102.692 61.741,-100.77 z"
       id="path2688" />
    <path
       style="fill:none;stroke:#009688;stroke-width:1.5;stroke-linecap:butt;stroke-linejoin:miter;stroke-opacity:1;stroke-miterlimit:4;stroke-dasharray:none"
       d="m 805.695,645.49 68.004,-101.945 54.78,103.882 z"
       id="path2690" />
    <path
       style="fill:none;stroke:#009688;stroke-width:1.5;stroke-linecap:butt;stroke-linejoin:miter;stroke-opacity:1;stroke-miterlimit:4;stroke-dasharray:none"
       d="M 101.776,503.725 101.512,625.66 204.885,568.736 Z"
       id="path2692" />
    <path
       style="fill:none;stroke:#009688;stroke-width:1.5;stroke-linecap:butt;stroke-linejoin:miter;stroke-opacity:1;stroke-miterlimit:4;stroke-dasharray:none"
       d="m 101.531,625.989 102.661,57.1 0.724,-114.311 z"
       id="path2694" />
    <path
       style="fill:none;stroke:#009688;stroke-width:1.5;stroke-linecap:butt;stroke-linejoin:miter;stroke-opacity:1;stroke-miterlimit:4;stroke-dasharray:none"
       d="M 0.015,568.858 101.554,503.549 101.512,625.66 Z"
       id="path2696" />
  </g>
</svg>
