<?xml version="1.0" encoding="UTF-8" standalone="no"?>
<svg
   xmlns:dc="http://purl.org/dc/elements/1.1/"
   xmlns:cc="http://creativecommons.org/ns#"
   xmlns:rdf="http://www.w3.org/1999/02/22-rdf-syntax-ns#"
   xmlns:svg="http://www.w3.org/2000/svg"
   xmlns="http://www.w3.org/2000/svg"
   xmlns:sodipodi="http://sodipodi.sourceforge.net/DTD/sodipodi-0.dtd"
   xmlns:inkscape="http://www.inkscape.org/namespaces/inkscape"
   width="1024"
   height="1024"
   viewBox="0 0 1024 1024"
   version="1.1"
   id="svg1024"
   sodipodi:docname="cB03RfGe.svg"
   inkscape:version="1.0.1 (3bc2e813f5, 2020-09-07)">
  <metadata
     id="metadata1030">
    <rdf:RDF>
      <cc:Work
         rdf:about="">
        <dc:format>image/svg+xml</dc:format>
        <dc:type
           rdf:resource="http://purl.org/dc/dcmitype/StillImage" />
      </cc:Work>
    </rdf:RDF>
  </metadata>
  <defs
     id="defs1028" />
  <sodipodi:namedview
     pagecolor="#ffffff"
     bordercolor="#666666"
     borderopacity="1"
     objecttolerance="10"
     gridtolerance="10"
     guidetolerance="10"
     inkscape:pageopacity="0"
     inkscape:pageshadow="2"
     inkscape:window-width="2482"
     inkscape:window-height="1411"
     id="namedview1026"
     showgrid="false"
     inkscape:zoom="0.859375"
     inkscape:cx="614.27359"
     inkscape:cy="511.63463"
     inkscape:window-x="69"
     inkscape:window-y="-9"
     inkscape:window-maximized="1"
     inkscape:current-layer="layer2" />
  <desc
     id="desc2">, (Blender 2.91.0)</desc>
  <g
     inkscape:groupmode="layer"
     id="layer2"
     inkscape:label="uv"
     style="display:inline">
    <path
       style="display:inline;fill:none;stroke:#009c82;stroke-width:2;stroke-linecap:butt;stroke-linejoin:miter;stroke-opacity:1;stroke-miterlimit:4;stroke-dasharray:none"
       d="m 408.848,248.764 10.383,1.022 h 10.435 l 10.384,-1.022 10.234,-2.036 9.985,-3.029 9.64,-3.993 9.202,-4.919 8.676,-5.797 8.066,-6.619 7.377,-7.378 6.621,-8.066 5.796,-8.676 4.919,-9.202 3.994,-9.64 3.028,-9.985 2.036,-10.234 1.022,-10.384 v -10.434 l -1.022,-10.385 -2.036,-10.233 -3.028,-9.985 -3.994,-9.64 -4.919,-9.202 -5.796,-8.676 -6.62,-8.066 -7.378,-7.378 -8.066,-6.619 -8.676,-5.797 -9.202,-4.919 -9.639,-3.993 -9.986,-3.029 -10.233,-2.036 -12.18711,-1.284466 -8.63189,0.262466 -10.384,1.022 -10.234,2.036 -9.985,3.029 -9.64,3.993 -9.202,4.919 -8.676,5.797 -8.065,6.619 -7.379,7.379 -6.619,8.065 -5.798,8.676 -4.918,9.202 -3.992,9.64 -3.029,9.985 -2.036,10.233 -1.023,10.385 v 10.434 l 1.023,10.384 2.036,10.234 3.029,9.985 3.992,9.64 4.918,9.202 5.798,8.676 6.619,8.065 7.379,7.379 8.065,6.619 8.676,5.797 9.202,4.919 9.64,3.993 9.985,3.029 z"
       id="path1857" />
    <path
       style="display:inline;fill:none;stroke:#009c82;stroke-width:2;stroke-linecap:butt;stroke-linejoin:miter;stroke-opacity:1;stroke-miterlimit:4;stroke-dasharray:none"
       d="m 135.748,1022.467 15.561,1.533 h 15.634 l 15.559,-1.533 15.334,-3.049 14.963,-4.539 14.443,-5.983 13.789,-7.371 13,-8.685 12.086,-9.92 11.055,-11.055 9.918,-12.086 8.687,-13 7.369,-13.787 5.985,-14.445 4.537,-14.961 3.051,-15.336 1.533,-15.559 v -15.634 l -1.533,-15.559 -3.051,-15.334 -4.537,-14.963 -5.985,-14.443 -7.369,-13.789 -8.685,-13 -9.92,-12.086 -11.055,-11.055 -12.086,-9.918 -13,-8.687 -13.789,-7.369 -14.443,-5.985 -14.961,-4.537 -15.336,-3.051 -15.559,-1.533 h -15.634 l -15.559,1.533 -15.334,3.051 -14.963,4.537 -14.443,5.985 -13.789,7.369 -13,8.685 -12.086,9.92 -11.055,11.055 -9.92,12.086 -8.685,13 -7.37,13.787 L 9.121,811.201 4.582,826.162 1.533,841.498 0,857.057 v 15.634 l 1.533,15.561 3.049,15.334 4.539,14.961 5.983,14.445 7.371,13.787 8.685,13 9.92,12.086 11.055,11.055 12.086,9.92 13,8.685 13.787,7.371 14.445,5.983 14.961,4.539 z"
       id="path1859" />
    <path
       style="display:inline;fill:none;stroke:#009c82;stroke-width:2;stroke-linecap:butt;stroke-linejoin:miter;stroke-opacity:1;stroke-miterlimit:4;stroke-dasharray:none"
       d="m 74.398,979.115 11.606,7.754 12.31,6.58 12.895,5.342 13.357,4.051 13.69,2.724 13.89,1.368 h 13.959 l 13.891,-1.368 13.69,-2.724 13.355,-4.051 12.897,-5.342 12.308,-6.58 11.606,-7.754 10.791,-8.855 9.869,-9.869 8.855,-10.789 7.754,-11.606 6.58,-12.31 5.342,-12.895 4.051,-13.357 2.722,-13.69 1.37,-13.89 v -13.959 l -1.37,-13.891 -2.722,-13.69 -4.051,-13.355 -5.342,-12.897 -6.58,-12.308 -7.754,-11.606 -8.855,-10.791 -9.869,-9.869 -10.789,-8.855 -11.606,-7.754 -12.31,-6.58 -12.895,-5.342 -13.357,-4.051 -13.69,-2.722 -13.891,-1.37 h -13.959 l -13.89,1.37 -13.69,2.722 -13.355,4.051 -12.897,5.342 -12.308,6.58 -11.606,7.754 -10.791,8.855 -9.869,9.869 -8.855,10.789 -7.754,11.606 -6.58,12.31 -5.342,12.895 -4.051,13.357 -2.724,13.69 -1.368,13.891 v 13.959 l 1.368,13.89 2.724,13.69 4.051,13.357 5.342,12.895 6.58,12.31 7.754,11.606 8.855,10.789 9.869,9.869 z"
       id="path1861" />
    <path
       style="display:inline;fill:none;stroke:#009c82;stroke-width:2;stroke-linecap:butt;stroke-linejoin:miter;stroke-opacity:1;stroke-miterlimit:4;stroke-dasharray:none"
       d="m 830.1,317.145 -10.952,-2.18 -10.687,-3.242 -10.318,-4.274 -9.848,-5.263 -9.287,-6.206 -8.631,-7.084 -7.898,-7.896 -7.084,-8.633 -6.206,-9.285 -5.263,-9.85 -4.274,-10.316 -3.242,-10.687 -2.18,-10.954 -1.093,-11.115 v -11.166 l 1.093,-11.115 2.18,-10.953 3.242,-10.686 4.274,-10.318 5.263,-9.85 6.206,-9.285 7.084,-8.633 7.896,-7.896 8.633,-7.084 9.285,-6.205 9.85,-5.264 10.318,-4.273 10.685,-3.243 10.954,-2.179 11.115,-1.094 h 11.166 l 11.115,1.094 10.953,2.179 10.686,3.243 10.318,4.273 9.85,5.264 9.285,6.205 8.633,7.084 7.896,7.896 7.084,8.633 6.205,9.285 5.264,9.85 4.273,10.318 3.243,10.686 2.179,10.953 1.094,11.115 v 11.166 l -1.094,11.115 -2.179,10.954 -3.243,10.685 -4.273,10.318 -5.264,9.848 -6.205,9.287 -7.084,8.633 -7.896,7.896 -8.633,7.084 -9.285,6.206 -9.85,5.263 -10.318,4.274 -10.686,3.242 -10.953,2.18 -11.113,1.093 h -11.168 z"
       id="path1870" />
    <path
       style="display:inline;fill:none;stroke:#009c82;stroke-width:2;stroke-linecap:butt;stroke-linejoin:miter;stroke-opacity:1;stroke-miterlimit:4;stroke-dasharray:none"
       d="M 945.154,1023.921 H 794.971 L 768.326,705.352 h 200.903 z"
       id="path1873" />
    <path
       style="display:inline;fill:none;stroke:#009c82;stroke-width:2;stroke-linecap:butt;stroke-linejoin:miter;stroke-opacity:1;stroke-miterlimit:4;stroke-dasharray:none"
       d="m 733.137,318.239 26.643,318.57 h 150.186 l 24.073,-318.57 z"
       id="path1876" />
    <path
       style="display:inline;fill:none;stroke:#009c82;stroke-width:2;stroke-linecap:butt;stroke-linejoin:miter;stroke-opacity:1;stroke-miterlimit:4;stroke-dasharray:none"
       d="M 706.493,636.809 H 556.308 l -24.074,-318.57 h 200.903 z"
       id="path1878" />
    <path
       style="display:inline;fill:none;stroke:#009c82;stroke-width:2;stroke-linecap:butt;stroke-linejoin:miter;stroke-opacity:1;stroke-miterlimit:4;stroke-dasharray:none"
       d="M 348.821,636.888 318.252,249.889 h 213.982 l -30.568,386.999 z"
       id="path1882" />
    <path
       style="display:inline;fill:none;stroke:#009c82;stroke-width:2;stroke-linecap:butt;stroke-linejoin:miter;stroke-opacity:1;stroke-miterlimit:4;stroke-dasharray:none"
       d="m 348.821,636.888 -30.569,386.995 h 225.037 l -33.68,-386.996 z"
       id="path1885" />
    <path
       style="display:inline;fill:none;stroke:#009c82;stroke-width:2;stroke-linecap:butt;stroke-linejoin:miter;stroke-opacity:1;stroke-miterlimit:4;stroke-dasharray:none"
       d="m 576.969,636.887 -33.68,386.996 H 768.326 L 737.709,636.887 Z"
       id="path1888" />
    <path
       style="display:inline;fill:none;stroke:#009c82;stroke-width:2.5;stroke-linecap:butt;stroke-linejoin:miter;stroke-opacity:1;stroke-miterlimit:4;stroke-dasharray:none"
       d="M 0,0 H 191.033 L 166.921,318.567 H 24.112 Z"
       id="path1891" />
    <path
       style="display:inline;fill:none;stroke:#009c82;stroke-width:2;stroke-linecap:butt;stroke-linejoin:miter;stroke-opacity:1;stroke-miterlimit:4;stroke-dasharray:none"
       d="m 30.617,318.637 h 160.741 l 33.679,386.996 H 0 Z"
       id="path1894" />
    <polygon
       stroke="black"
       stroke-width="1"
       fill="rgb(204, 204, 204)"
       fill-opacity="0"
       points="245.887,704.924 253.74,316.546 253.74,705.749 "
       id="polygon288"
       style="display:inline;fill:none;stroke:#009c82;stroke-opacity:1;stroke-width:2;stroke-miterlimit:4;stroke-dasharray:none" />
    <polygon
       stroke="black"
       stroke-width="1"
       fill="rgb(204, 204, 204)"
       fill-opacity="0"
       points="225.037,318.224 236.053,317.291 236.053,705.749 "
       id="polygon290"
       style="display:inline;fill:none;stroke:#009c82;stroke-opacity:1;stroke-width:2;stroke-miterlimit:4;stroke-dasharray:none" />
    <polygon
       stroke="black"
       stroke-width="1"
       fill="rgb(204, 204, 204)"
       fill-opacity="0"
       points="245.887,386.066 245.887,705.749 236.054,386.913 "
       id="polygon736"
       style="display:inline;fill:none;stroke:#009c82;stroke-opacity:1;stroke-width:2;stroke-miterlimit:4;stroke-dasharray:none" />
    <polygon
       stroke="black"
       stroke-width="1"
       fill="rgb(204, 204, 204)"
       fill-opacity="0"
       points="261.075,705.749 253.74,704.948 261.075,385.35 "
       id="polygon738"
       style="display:inline;fill:none;stroke:#009c82;stroke-opacity:1;stroke-width:2;stroke-miterlimit:4;stroke-dasharray:none" />
  </g>
</svg>
