<?xml version="1.0" encoding="UTF-8" standalone="no"?>
<svg
   xmlns:dc="http://purl.org/dc/elements/1.1/"
   xmlns:cc="http://creativecommons.org/ns#"
   xmlns:rdf="http://www.w3.org/1999/02/22-rdf-syntax-ns#"
   xmlns:svg="http://www.w3.org/2000/svg"
   xmlns="http://www.w3.org/2000/svg"
   xmlns:sodipodi="http://sodipodi.sourceforge.net/DTD/sodipodi-0.dtd"
   xmlns:inkscape="http://www.inkscape.org/namespaces/inkscape"
   width="1024"
   height="1024"
   viewBox="0 0 1024 1024"
   version="1.1"
   id="svg24253"
   sodipodi:docname="9nZvHCNJ.svg"
   inkscape:version="1.0.1 (3bc2e813f5, 2020-09-07)">
  <metadata
     id="metadata24259">
    <rdf:RDF>
      <cc:Work
         rdf:about="">
        <dc:format>image/svg+xml</dc:format>
        <dc:type
           rdf:resource="http://purl.org/dc/dcmitype/StillImage" />
      </cc:Work>
    </rdf:RDF>
  </metadata>
  <defs
     id="defs24257" />
  <sodipodi:namedview
     pagecolor="#ffffff"
     bordercolor="#666666"
     borderopacity="1"
     objecttolerance="10"
     gridtolerance="10"
     guidetolerance="10"
     inkscape:pageopacity="0"
     inkscape:pageshadow="2"
     inkscape:window-width="1842"
     inkscape:window-height="1051"
     id="namedview24255"
     showgrid="false"
     inkscape:zoom="0.58764441"
     inkscape:cx="424.1216"
     inkscape:cy="738.85645"
     inkscape:window-x="335"
     inkscape:window-y="1431"
     inkscape:window-maximized="1"
     inkscape:current-layer="svg24253" />
  <desc
     id="desc12547">, (Blender 2.91.0)</desc>
  <g
     id="g24299"
     style="stroke:#009688;stroke-opacity:1;stroke-width:3.77952756;stroke-miterlimit:4;stroke-dasharray:none">
    <path
       style="fill:none;stroke:#009688;stroke-width:3.77952756;stroke-linecap:butt;stroke-linejoin:miter;stroke-opacity:1;stroke-miterlimit:4;stroke-dasharray:none"
       d="m 41.475,904.039 12.244,17.445 13.626,16.389 14.916,15.224 16.108,13.957 17.191,12.598 18.162,11.155"
       id="path24261" />
    <path
       style="fill:none;stroke:#009688;stroke-width:3.77952756;stroke-linecap:butt;stroke-linejoin:miter;stroke-opacity:1;stroke-miterlimit:4;stroke-dasharray:none"
       d="m 133.722,990.807 19.01,9.637 19.732,8.056"
       id="path24263" />
    <path
       style="fill:none;stroke:#009688;stroke-width:3.77952756;stroke-linecap:butt;stroke-linejoin:miter;stroke-opacity:1;stroke-miterlimit:4;stroke-dasharray:none"
       d="m 172.464,1008.5 20.323,6.42"
       id="path24265" />
    <path
       style="fill:none;stroke:#009688;stroke-width:3.77952756;stroke-linecap:butt;stroke-linejoin:miter;stroke-opacity:1;stroke-miterlimit:4;stroke-dasharray:none"
       d="m 192.787,1014.92 20.779,4.743 21.096,3.033 21.274,1.304"
       id="path24267" />
    <path
       style="fill:none;stroke:#009688;stroke-width:3.77952756;stroke-linecap:butt;stroke-linejoin:miter;stroke-opacity:1;stroke-miterlimit:4;stroke-dasharray:none"
       d="m 255.936,1024 21.309,-0.435 21.202,-2.17 20.955,-3.891 20.569,-5.586 20.044,-7.244 19.388,-8.854"
       id="path24269" />
    <path
       style="fill:none;stroke:#009688;stroke-width:3.77952756;stroke-linecap:butt;stroke-linejoin:miter;stroke-opacity:1;stroke-miterlimit:4;stroke-dasharray:none"
       d="m 379.403,995.82 18.601,-10.405 17.691,-11.886 16.663,-13.289"
       id="path24271" />
    <path
       style="fill:none;stroke:#009688;stroke-width:3.77952756;stroke-linecap:butt;stroke-linejoin:miter;stroke-opacity:1;stroke-miterlimit:4;stroke-dasharray:none"
       d="m 432.358,960.24 15.525,-14.602 14.283,-15.82 12.946,-16.931 11.523,-17.93 10.023,-18.809 8.457,-19.564 6.834,-20.188 5.165,-20.678 3.463,-21.03 1.737,-21.583 v -20.973 l -1.737,-21.243 -3.463,-21.03 -5.165,-20.678 -6.834,-20.188 -8.457,-19.563 -10.023,-18.81 -11.523,-17.93 -12.946,-16.931 -14.283,-15.819 -15.525,-14.603 -16.663,-13.288 -17.691,-11.887 -18.601,-10.404 -19.387,-8.854 -20.045,-7.244 -20.568,-5.587 -20.955,-3.891 -21.203,-2.17 -21.308,-0.435 -21.274,1.304"
       id="path24273" />
    <path
       style="fill:none;stroke:#009688;stroke-width:3.77952756;stroke-linecap:butt;stroke-linejoin:miter;stroke-opacity:1;stroke-miterlimit:4;stroke-dasharray:none"
       d="m 234.663,502.881 -21.096,3.033 -20.779,4.743 -20.323,6.42 -19.733,8.056"
       id="path24275" />
    <path
       style="fill:none;stroke:#009688;stroke-width:3.77952756;stroke-linecap:butt;stroke-linejoin:miter;stroke-opacity:1;stroke-miterlimit:4;stroke-dasharray:none"
       d="m 152.732,525.133 -19.01,9.637 -18.161,11.155"
       id="path24277" />
    <path
       style="fill:none;stroke:#009688;stroke-width:3.77952756;stroke-linecap:butt;stroke-linejoin:miter;stroke-opacity:1;stroke-miterlimit:4;stroke-dasharray:none"
       d="m 98.37,558.522 17.191,-12.597 v 0 0"
       id="path24281" />
    <path
       style="fill:none;stroke:#009688;stroke-width:3.77952756;stroke-linecap:butt;stroke-linejoin:miter;stroke-opacity:1;stroke-miterlimit:4;stroke-dasharray:none"
       d="m 82.262,572.48 -14.916,15.223 -13.626,16.389 -12.245,17.445 -10.782,18.385 -9.247,19.203 -7.652,19.892 -6.005,20.45 -4.317,20.872 -2.603,21.153 -0.869,21.296 0.869,21.296 2.603,21.154 4.317,20.871 6.005,20.45 7.651,19.892 9.248,19.203 10.782,18.385 v 0"
       id="path24283" />
    <path
       style="fill:none;stroke:#009688;stroke-width:3.77952756;stroke-linecap:butt;stroke-linejoin:miter;stroke-opacity:1;stroke-miterlimit:4;stroke-dasharray:none"
       d="M 82.262,572.48 98.37,558.522 Z"
       id="path24285" />
  </g>
  <path
     style="fill:none;stroke:#009688;stroke-width:3.77952756;stroke-linecap:butt;stroke-linejoin:miter;stroke-opacity:1;stroke-miterlimit:4;stroke-dasharray:none"
     d="m 601.327,955.897 15.471,13.406 16.513,12.101 17.444,10.714 18.259,9.257 18.953,7.737 19.521,6.167 19.958,4.556 20.263,2.913 20.434,1.252 20.467,-0.418 20.365,-2.084 20.128,-3.737 19.756,-5.366 19.252,-6.958 18.622,-8.504 17.866,-9.994 16.993,-11.417 16.005,-12.764 14.912,-14.026 13.719,-15.194 12.434,-16.263 11.068,-17.222 9.627,-18.066 8.123,-18.791 6.564,-19.391 4.961,-19.861 3.326,-20.2 1.669,-20.403 v -20.472 l -1.669,-20.403 -3.326,-20.2 -4.961,-19.861 -6.564,-19.391 -8.123,-18.791 -9.627,-18.067 -11.068,-17.221 -12.434,-16.263 -13.719,-15.194 -14.912,-14.026 -16.005,-12.764 -16.993,-11.417 -17.866,-9.994 -18.622,-8.504 -19.252,-6.958 -19.756,-5.366 -20.128,-3.737 -20.365,-2.085 -20.467,-0.417 -20.434,1.252 -20.263,2.913 -19.958,4.556 -19.521,6.167 -18.953,7.737 -18.259,9.257 -17.444,10.714 -16.513,12.1 -15.471,13.406 -14.327,14.623 -13.088,15.742 -11.761,16.756 -10.356,17.659 -8.882,18.444 -7.349,19.107 -5.768,19.642 -4.147,20.047 -2.5,20.318 -0.835,20.455 0.835,20.454 2.5,20.319 4.147,20.047 5.768,19.642 7.349,19.107 8.882,18.444 10.356,17.659 11.761,16.756 13.088,15.742 z"
     id="path24301" />
</svg>
