<?xml version="1.0" encoding="UTF-8" standalone="no"?>
<svg
   xmlns:dc="http://purl.org/dc/elements/1.1/"
   xmlns:cc="http://creativecommons.org/ns#"
   xmlns:rdf="http://www.w3.org/1999/02/22-rdf-syntax-ns#"
   xmlns:svg="http://www.w3.org/2000/svg"
   xmlns="http://www.w3.org/2000/svg"
   xmlns:sodipodi="http://sodipodi.sourceforge.net/DTD/sodipodi-0.dtd"
   xmlns:inkscape="http://www.inkscape.org/namespaces/inkscape"
   width="1024"
   height="1024"
   viewBox="0 0 1024 1024"
   version="1.1"
   id="svg22788"
   sodipodi:docname="4rUEN0tx.svg"
   inkscape:version="1.0.1 (3bc2e813f5, 2020-09-07)">
  <metadata
     id="metadata22794">
    <rdf:RDF>
      <cc:Work
         rdf:about="">
        <dc:format>image/svg+xml</dc:format>
        <dc:type
           rdf:resource="http://purl.org/dc/dcmitype/StillImage" />
      </cc:Work>
    </rdf:RDF>
  </metadata>
  <defs
     id="defs22792" />
  <sodipodi:namedview
     pagecolor="#ffffff"
     bordercolor="#666666"
     borderopacity="1"
     objecttolerance="10"
     gridtolerance="10"
     guidetolerance="10"
     inkscape:pageopacity="0"
     inkscape:pageshadow="2"
     inkscape:window-width="1842"
     inkscape:window-height="1051"
     id="namedview22790"
     showgrid="false"
     inkscape:zoom="0.8594478"
     inkscape:cx="539.5439"
     inkscape:cy="368.43277"
     inkscape:window-x="335"
     inkscape:window-y="1431"
     inkscape:window-maximized="1"
     inkscape:current-layer="layer1" />
  <desc
     id="desc2">, (Blender 2.91.0)</desc>
  <g
     inkscape:groupmode="layer"
     id="layer1"
     inkscape:label="uv"
     style="display:inline">
    <path
       style="display:inline;fill:none;stroke:#009688;stroke-width:1.5;stroke-linecap:butt;stroke-linejoin:miter;stroke-opacity:1;stroke-miterlimit:4;stroke-dasharray:none"
       d="m 0,282.844 8.07,0.316 8.387,0.297 8.684,0.285 8.953,0.266 9.211,0.246 9.437,0.23 9.649,0.207 9.832,0.192 9.992,0.172 10.129,0.148 10.242,0.129 10.328,0.109 10.395,0.086 10.429,0.067 10.442,0.043 10.429,0.023 h 10.395 l 10.328,-0.023 10.242,-0.043 10.133,-0.067 9.992,-0.086 9.832,-0.109 9.649,-0.129 9.441,-0.148 9.211,-0.172 8.957,-0.192 8.684,-0.207 8.39,-0.23 8.075,-0.246 7.738,-0.266 7.386,-0.285 7.012,-0.297 6.629,-0.316 -110.73,319.054 -2.305,0.11 -2.438,0.105 -2.57,0.098 -2.691,0.094 -2.809,0.086 -2.918,0.078 -3.019,0.074 -3.118,0.066 -3.203,0.059 -3.281,0.051 -3.355,0.047 -3.422,0.039 -3.477,0.027 -3.523,0.023 -3.563,0.016 -3.59,0.008 h -3.617 l -3.625,-0.008 -3.633,-0.016 -3.628,-0.023 -3.614,-0.027 -3.594,-0.039 -3.562,-0.047 -3.52,-0.051 -3.476,-0.059 -3.422,-0.066 -3.352,-0.074 -3.285,-0.078 -3.203,-0.086 -3.113,-0.094 -3.02,-0.098 -2.918,-0.105 -2.808,-0.11 z"
       id="path23625" />
    <path
       style="display:inline;fill:none;stroke:#009688;stroke-width:1.5;stroke-linecap:butt;stroke-linejoin:miter;stroke-opacity:1;stroke-miterlimit:4;stroke-dasharray:none"
       d="m 146.305,1016.738 9.562,2.422 9.664,1.922 9.766,1.582 9.82,0.922 9.844,0.414 9.859,-0.094 9.797,-0.758 9.805,-1.105 9.812,-1.449 9.602,-2.266 9.797,-2.176 9.445,-3.093 9.297,-3.575 9.125,-4.046 8.922,-4.512 8.711,-4.965 8.679,-5.191 7.993,-6.04 8.406,-5.863 7.406,-6.828 7.571,-6.863 7,-7.403 6.64,-7.75 6.281,-8.078 5.891,-8.39 5.5,-8.68 5.086,-8.945 4.664,-9.196 4.664,-9.289 3.789,-9.633 2.899,-9.917 2.562,-10.024 2.406,-10.074 2.235,-10.141 1.14,-10.308 1.282,-10.301 0.171,-10.383 -0.32,-10.363 -0.484,-10.336 -0.969,-10.293 -1.125,-10.262 -1.625,-10.187 -2.398,-10.043 -2.438,-9.977 -3.336,-9.75 -3.789,-9.562 -4.234,-9.352 -5.094,-8.992 -5.086,-8.852 -5.094,-8.722 -6.297,-8.129 -6.281,-7.961 -6.64,-7.625 -7.25,-7.121 -7.321,-6.891 -7.64,-6.504 -8.172,-5.914 -8.203,-5.672 -8.469,-5.242 -9.50206,-5.52866 -8.13094,-3.61234 -9.305,-3.628 -9.375,-3.254 -9.429,-2.911 -9.555,-2.418 -9.664,-1.925 -9.688,-1.575 -9.867,-0.769 -9.844,-0.414 -9.851,0.094 -9.836,0.597 -9.813,1.106 -9.742,1.609 -9.664,2.106 -9.562,2.601 -9.422,3.086 -9.281,3.57 -9.102,4.04 -8.906,4.5 -8.696,4.953 -8.445,5.39 -8.195,5.817 -7.727,6.629 -7.601,6.609 -7.282,6.988 -6.945,7.356 -6.601,7.695 -5.899,8.379 -5.836,8.312 -5.445,8.594 -5.039,8.863 -4.625,9.106 -4.188,9.332 -3.75,9.531 -3.304,9.707 -2.844,9.86 -2.383,9.992 -1.906,10.097 -1.438,10.18 L 0.484,799.812 0,810.082 v 10.277 l 0.484,10.262 0.961,10.215 1.438,10.152 1.906,10.063 2.383,9.945 2.844,9.809 3.304,9.644 3.75,9.461 4.188,9.25 4.625,9.02 5.039,8.765 5.445,8.496 5.836,8.2 6.219,7.886 6.578,7.551 6.93,7.203 7.265,6.832 7.336,6.934 7.891,6.062 8.172,5.653 8.429,5.218 8.672,4.774 8.883,4.324 9.086,3.86 9.25,3.382 z"
       id="path23623" />
    <path
       style="display:inline;fill:none;stroke:#009688;stroke-width:1.5;stroke-linecap:butt;stroke-linejoin:miter;stroke-opacity:1;stroke-miterlimit:4;stroke-dasharray:none"
       d="m 156.812,1010.496 9.258,1.844 9.344,1.367 9.398,0.879 9.43,0.398 9.446,-0.089 9.429,-0.575 9.399,-1.058 9.336,-1.539 9.265,-2.02 9.156,-2.492 9.039,-2.961 8.891,-3.418 8.719,-3.871 8.539,-4.316 8.328,-4.747 8.094,-5.164 7.851,-5.574 7.586,-5.972 7.297,-6.348 7,-6.715 6.68,-7.066 6.336,-7.395 5.992,-7.711 5.625,-8.004 5.25,-8.281 4.852,-8.539 4.453,-8.774 4.031,-8.988 3.617,-9.183 3.18,-9.352 2.742,-9.5 2.297,-9.625 1.836,-9.73 1.39,-9.805 0.922,-9.863 0.469,-9.895 v -9.902 l -0.469,-9.883 -0.922,-9.844 -1.39,-9.781 -1.836,-9.695 -2.297,-9.582 -2.742,-9.45 -3.18,-9.293 -3.617,-9.113 -4.031,-8.91 -4.453,-8.691 -4.852,-8.446 -5.25,-8.183 -5.625,-7.899 -5.992,-7.597 -6.336,-7.278 -6.68,-6.937 -7,-6.586 -7.297,-6.211 -7.586,-5.824 -7.851,-5.43 -8.094,-5.012 -8.328,-4.59 -8.539,-4.152 -8.719,-3.707 -8.891,-3.254 -9.039,-2.785 -9.156,-2.32 -9.265,-1.844 -9.336,-1.367 -9.399,-0.883 -9.429,-0.395 -9.446,0.09 -9.43,0.574 -9.398,1.059 -9.344,1.539 -9.258,2.02 -9.156,2.492 -9.039,2.961 -8.89,3.418 -8.727,3.871 -8.531,4.312 -8.328,4.746 -8.102,5.168 -7.851,5.575 -7.586,5.968 -7.297,6.352 -6.993,6.715 -6.679,7.062 -6.344,7.399 -5.984,7.711 -5.625,8.003 -5.25,8.282 -4.852,8.539 -4.453,8.773 -4.039,8.989 -3.609,9.183 -3.18,9.352 -2.742,9.5 -2.297,9.625 -1.844,9.73 -1.383,9.805 -0.929,9.863 -0.461,9.895 v 9.898 l 0.461,9.887 0.929,9.844 1.383,9.781 1.844,9.695 2.297,9.582 2.742,9.449 3.18,9.293 3.609,9.114 4.039,8.91 4.453,8.691 4.852,8.445 5.25,8.184 5.625,7.898 5.984,7.598 6.344,7.278 6.679,6.937 6.993,6.582 7.297,6.215 7.586,5.824 7.851,5.43 8.102,5.012 8.328,4.589 8.531,4.153 8.727,3.707 8.89,3.25 9.039,2.789 z"
       id="path23620" />
    <path
       style="display:inline;fill:none;stroke:#009688;stroke-width:1.5;stroke-linecap:butt;stroke-linejoin:miter;stroke-opacity:1;stroke-miterlimit:4;stroke-dasharray:none"
       d="m 401.719,827.199 v -9.902 l 0.461,-9.895 0.929,-9.859 1.383,-9.797 1.844,-9.715 2.289,-9.609 2.742,-9.481 3.18,-9.324 3.609,-9.152 4.039,-8.953 4.446,-8.739 4.851,-8.496 5.25,-8.234 5.617,-7.957 5.993,-7.656 6.336,-7.34 6.671,-7.004 6.993,-6.652 7.296,-6.286 7.586,-5.898 7.844,-5.504 8.094,-5.094 8.328,-4.668 8.531,-4.234 8.719,-3.793 8.883,-3.336 9.039,-2.875 9.148,-2.406 9.258,-1.934 9.336,-1.453 9.398,-0.973 9.422,-0.484 h 9.438 l 9.43,0.484 9.39,0.973 9.336,1.453 9.258,1.934 9.156,2.406 9.031,2.875 8.891,3.336 8.719,3.793 8.531,4.234 8.32,4.668 8.102,5.094 7.844,5.504 7.578,5.898 7.297,6.286 7,6.652 6.672,7.004 6.335,7.34 5.985,7.656 5.625,7.957 5.242,8.234 4.852,8.496 4.453,8.739 4.031,8.953 3.617,9.152 3.18,9.324 2.734,9.481 2.297,9.609 1.844,9.715 1.383,9.797 0.922,9.859 0.468,9.895 v 9.902 l -0.468,9.895 -0.922,9.859 -1.383,9.797 -1.844,9.715 -2.297,9.609 -2.734,9.481 -3.18,9.324 -3.617,9.152 -4.031,8.953 -4.453,8.739 -4.852,8.496 -5.242,8.234 -5.625,7.957 -5.985,7.656 -6.335,7.34 -6.672,7.004 -7,6.652 -7.297,6.286 -7.578,5.898 -7.844,5.504 -8.102,5.094 -8.32,4.668 -8.531,4.234 -8.719,3.793 -8.891,3.336 -9.031,2.875 -9.156,2.406 -9.258,1.934 -9.336,1.453 -9.39,0.973 -9.43,0.484 h -9.438 l -9.422,-0.484 -9.398,-0.973 -9.336,-1.453 -9.258,-1.934 -9.148,-2.406 -9.039,-2.875 -8.883,-3.336 -8.719,-3.793 -8.531,-4.234 -8.328,-4.668 -8.094,-5.094 -7.844,-5.504 -7.586,-5.898 -7.296,-6.286 -6.993,-6.652 -6.671,-7.004 -6.336,-7.34 -5.993,-7.656 -5.617,-7.957 c 0,0 -5.25,-8.234 -5.25,-8.234 l -4.851,-8.496 -4.446,-8.739 -4.039,-8.953 -3.609,-9.152 -3.18,-9.324 -2.742,-9.481 -2.289,-9.609 -1.844,-9.715 -1.383,-9.797 -0.929,-9.859 z"
       id="path23630" />
    <path
       style="display:inline;fill:none;stroke:#009688;stroke-width:1.5;stroke-linecap:butt;stroke-linejoin:miter;stroke-opacity:1;stroke-miterlimit:4;stroke-dasharray:none"
       d="m 401.715,594.164 7.012,2.766 7.386,2.632 7.739,2.508 8.07,2.368 8.387,2.218 8.683,2.071 8.957,1.921 9.211,1.758 9.442,1.594 9.644,1.422 9.832,1.258 9.996,1.086 10.129,0.906 10.242,0.726 10.328,0.547 10.395,0.367 10.43,0.18 h 10.441 l 10.434,-0.18 10.39,-0.367 10.328,-0.547 10.243,-0.726 10.132,-0.906 9.993,-1.086 9.832,-1.258 9.648,-1.422 9.441,-1.594 9.208,-1.758 8.957,-1.921 8.683,-2.071 8.387,-2.218 8.074,-2.368 7.738,-2.508 7.383,-2.632 7.012,-2.766 -105.07,-334.476 -2.438,0.96 -2.57,0.922 -2.692,0.868 -2.808,0.828 -2.914,0.765 -3.024,0.727 -3.113,0.664 -3.203,0.609 -3.285,0.555 -3.356,0.5 -3.418,0.437 -3.476,0.375 -3.524,0.313 -3.562,0.258 -3.59,0.187 -3.617,0.125 -3.625,0.063 h -3.633 l -3.629,-0.063 -3.613,-0.125 -3.594,-0.187 -3.563,-0.258 -3.523,-0.313 -3.477,-0.375 -3.417,-0.437 -3.356,-0.5 -3.281,-0.555 -3.203,-0.609 -3.118,-0.664 -3.019,-0.727 -2.918,-0.765 -2.809,-0.828 -2.691,-0.868 -2.566,-0.922 -2.438,-0.96 z"
       id="path23633" />
    <path
       style="display:inline;fill:none;stroke:#009688;stroke-width:1.5;stroke-linecap:butt;stroke-linejoin:miter;stroke-opacity:1;stroke-miterlimit:4;stroke-dasharray:none"
       d="m 786.189,773.309 2.692,0.871 2.807,0.82 2.917,0.773 3.02,0.719 3.115,0.668 3.203,0.613 3.285,0.555 3.355,0.496 3.419,0.438 3.476,0.375 3.523,0.316 3.562,0.25 3.593,0.192 3.615,0.128 3.627,0.063 h 3.632 l 3.628,-0.063 3.614,-0.128 3.593,-0.192 3.562,-0.25 3.523,-0.316 3.476,-0.375 3.42,-0.438 3.355,-0.496 3.283,-0.555 3.204,-0.613 3.115,-0.668 3.02,-0.719 2.917,-0.773 2.808,-0.82 2.691,-0.871 v 117.816 l -2.691,0.871 -2.808,0.82 -2.917,0.774 -3.02,0.722 -3.115,0.665 -3.204,0.613 -3.283,0.555 -3.355,0.496 -3.42,0.437 -3.476,0.375 -3.523,0.317 -3.562,0.25 -3.593,0.191 -3.614,0.129 -3.628,0.062 h -3.632 l -3.627,-0.062 -3.615,-0.129 -3.593,-0.191 -3.562,-0.25 -3.523,-0.317 -3.476,-0.375 -3.419,-0.437 -3.356,-0.496 -3.284,-0.555 -3.203,-0.613 -3.115,-0.665 -3.02,-0.722 -2.917,-0.774 -2.807,-0.82 -2.692,-0.871 z"
       id="path23636" />
    <path
       style="display:inline;fill:none;stroke:#009688;stroke-width:1.5;stroke-linecap:butt;stroke-linejoin:miter;stroke-opacity:1;stroke-miterlimit:4;stroke-dasharray:none"
       d="m 786.189,898.406 2.692,0.821 2.807,0.781 2.917,0.734 3.02,0.68 3.115,0.633 3.203,0.578 3.284,0.523 3.356,0.469 3.419,0.414 3.476,0.359 3.523,0.297 3.562,0.243 3.593,0.179 3.615,0.117 3.627,0.063 h 3.632 l 3.628,-0.063 3.614,-0.117 3.593,-0.179 3.562,-0.243 3.523,-0.297 3.476,-0.359 3.42,-0.414 3.355,-0.469 3.283,-0.523 3.204,-0.578 3.115,-0.633 3.02,-0.68 2.917,-0.734 2.808,-0.781 2.691,-0.821 v 118.703 l -2.691,0.821 -2.808,0.781 -2.917,0.734 -3.02,0.68 -3.115,0.633 -3.204,0.578 -3.283,0.523 -3.355,0.469 -3.42,0.414 -3.476,0.36 -3.523,0.296 -3.562,0.243 -3.593,0.179 -3.614,0.118 -3.628,0.062 h -3.632 l -3.627,-0.062 -3.615,-0.118 -3.593,-0.179 -3.562,-0.243 -3.523,-0.296 -3.476,-0.36 -3.419,-0.414 -3.356,-0.469 -3.284,-0.523 -3.203,-0.578 -3.115,-0.633 -3.02,-0.68 -2.917,-0.734 -2.807,-0.781 -2.692,-0.821 z"
       id="path23639" />
    <path
       style="display:inline;fill:none;stroke:#009688;stroke-width:1.5;stroke-linecap:butt;stroke-linejoin:miter;stroke-opacity:1;stroke-miterlimit:4;stroke-dasharray:none"
       d="m 888.239,1018.117 10.082,2.453 10.2,1.961 10.293,1.469 V 814.164 l -3.58,-0.516 -3.546,-0.679 -3.507,-0.852 z"
       id="path23642" />
    <path
       style="fill:none;stroke:#009688;stroke-width:1.5;stroke-linecap:butt;stroke-linejoin:miter;stroke-opacity:1;stroke-miterlimit:4;stroke-dasharray:none"
       d="m 786.188,772.201 1.343,1.108 1.078,-2.125 1.321,0.882 1.047,-2.308 2.101,1.035 1.024,-2.5 0.968,0.332 0.992,-2.66 2.016,0.4 0.953,-2.822 1.696,0.029 0.906,-2.957 1.117,-0.17 0.859,-3.074 0.469,-0.131 1.547,-6.488 1.32,-6.904 0.571,-3.588 0.406,-0.106 2.133,-22.795 0.133,-3.937 0.062,-3.951 0.039,-1.848 -0.039,-2.107 0.008,-1.832 -0.07,-2.12 0.101,-1.818 -0.234,-2.119 -0.196,-3.912 -0.257,-3.881 -0.329,-3.836 -0.789,-3.867 -0.453,-3.738 -0.515,-3.666 -0.571,-3.588 -0.633,-3.5 -0.687,-3.405 -0.75,-3.298 -0.797,-3.188 -0.469,-0.131 -0.859,-3.076 -1.117,-0.168 -0.906,-2.959 -1.696,0.029 -0.953,-2.82 -2.016,0.4 -0.992,-2.662 -0.968,0.334 -1.024,-2.5 -2.101,1.035 -1.047,-2.31 -1.321,0.883 -1.078,-2.125 -1.343,1.107 3.062,6.713 -1.398,1.154 3.429,10.659 -0.914,0.656 1.414,5.937 1.211,6.319 1,6.638 0.766,6.897 0.297,3.523 0.422,7.155 0.179,7.242 -0.054,7.26 -0.305,7.207 -0.61183,7.63501 -0.69317,6.34499 -1,6.639 -1.211,6.318 -1.414,5.938 0.914,0.658 -3.429,10.658 1.398,1.152 z"
       id="path23645" />
    <path
       style="display:inline;fill:none;stroke:#009688;stroke-width:1.5;stroke-linecap:butt;stroke-linejoin:miter;stroke-opacity:1;stroke-miterlimit:4;stroke-dasharray:none"
       d="m 832.117,636.215 -0.429,-0.319 -1.188,2.028 -0.469,-0.283 -1.148,2.201 -0.508,-0.244 -1.109,2.367 -0.547,-0.201 -1.071,2.527 -0.57,-0.156 -1.031,2.681 -1.25,-0.177 -0.985,2.832 -1.335,0.011 -0.93,2.967 -1.219,0.18 -0.875,3.082 -0.812,0.215 -0.821,3.191 -0.75,3.301 -0.703,3.404 -0.633,3.502 -0.578,3.586 -0.508,3.666 -0.445,3.735 -0.375,3.796 -0.312,3.846 -0.243,3.889 -0.703,0.082 -0.172,3.898 0.602,3.885 -0.039,3.959 0.039,3.963 0.273,7.898 -0.461,3.85 0.704,0.068 0.687,7.725 0.953,7.514 1.211,7.234 1.453,6.881 1.688,6.463 0.82,0.199 0.93,3.068 1.219,0.159 0.984,2.949 1.336,-0.012 1.031,2.813 1.25,-0.198 1.07,2.662 0.571,-0.164 1.117,2.508 0.539,-0.211 1.156,2.346 0.5,-0.252 1.188,2.18 0.898,-0.608 -1.179,-2.16 -1.141,-2.318 -1.102,-2.467 0.625,-0.463 -3.914,-11.18 0.586,-0.398 -0.844,-3.082 -0.796,-3.19 -0.735,-3.291 -0.672,-3.386 -0.617,-3.471 -0.555,-3.547 -0.5,-3.617 -0.429,-3.676 -0.367,-3.726 -0.297,-3.768 0.742,-0.158 -0.227,-3.758 -0.172,-3.783 0.13228,-4.36092 -0.26428,-3.23708 0.039,-3.799 0.093,-3.783 0.172,-3.764 0.227,-3.73 0.305,-3.692 -0.75,-0.228 0.367,-3.682 0.429,-3.625 0.5,-3.556 0.555,-3.481 0.617,-3.396 0.672,-3.305 0.735,-3.203 0.796,-3.096 0.844,-2.98 0.899,-2.858 -0.579,-0.435 0.954,-2.75 1,-2.612 1.054,-2.468 1.086,-2.321 -0.609,-0.486 z"
       id="path23648" />
    <path
       style="display:inline;fill:none;stroke:#009688;stroke-width:1.5;stroke-linecap:butt;stroke-linejoin:miter;stroke-opacity:1;stroke-miterlimit:4;stroke-dasharray:none"
       d="m 921.895,1023.988 4.355,-0.105 -0.324,-7.379 3.945,-0.602 -0.309,-7.703 0.61,-0.187 -0.293,-8.024 0.687,-0.281 -0.277,-8.32 0.301,-0.157 -0.262,-8.601 0.145,-0.082 -1.571,-107.496 0.18,-71.274 0.559,-46.793 0.418,-25.093 0.531,-22.145 -0.61,-0.215 0.329,-6.593 -2.145,-0.477 -0.328,6.613 -1.801,-0.191 -0.316,7.008 -4.36,-0.086 -0.3,7.383 -0.282,7.738 -0.269,8.074 -0.25,8.387 -0.231,8.683 -0.211,8.957 -0.195,9.211 -0.172,9.442 -0.152,9.648 -0.133,9.832 -0.113,9.992 -0.09,10.133 -0.066,10.242 -0.051,10.328 -0.024,10.395 -0.004,10.43 0.02,10.441 0.039,10.43 0.063,10.394 0.082,10.328 0.101,10.243 0.129,10.129 0.145,9.996 0.167,9.832 0.184,9.644 0.207,9.442 0.227,9.211 0.242,8.953 0.262,8.683 0.277,8.387 0.297,8.074 0.312,7.735 z"
       id="path23651" />
    <path
       style="display:inline;fill:none;stroke:#009688;stroke-width:1.5;stroke-linecap:butt;stroke-linejoin:miter;stroke-opacity:1;stroke-miterlimit:4;stroke-dasharray:none"
       d="m 829.996,619.574 2.442,0.106 2.57,0.101 2.691,0.094 2.805,0.09 2.918,0.082 3.019,0.078 3.118,0.07 3.203,0.063 3.285,0.054 3.355,0.047 3.418,0.043 3.477,0.036 3.523,0.023 3.563,0.019 3.594,0.012 3.613,0.004 3.629,-0.004 3.629,-0.012 3.629,-0.019 3.613,-0.027 3.594,-0.032 3.562,-0.043 3.524,-0.047 3.476,-0.054 3.418,-0.063 3.356,-0.07 2.75598,-0.0309 0.52502,-0.0471 3.203,-0.082 3.117,-0.09 3.02,-0.094 2.918,-0.101 2.804,-0.106 89.637,-318.961 -8.07,0.305 -8.387,0.289 -8.684,0.273 -8.953,0.258 -9.211,0.239 -9.441,0.218 -9.645,0.2 -9.832,0.179 -9.992,0.16 -10.129,0.141 -10.242,0.117 -10.332,0.098 -10.391,0.078 -10.429,0.055 -10.446,0.031 -10.429,0.012 -10.391,-0.012 -10.332,-0.031 -10.242,-0.055 -10.129,-0.078 -9.992,-0.098 -9.836,-0.117 -9.649,-0.141 -9.437,-0.16 -9.211,-0.179 -8.961,-0.2 -8.684,-0.218 -8.386,-0.239 -8.075,-0.258 -7.738,-0.273 -7.383,-0.289 -7.015,-0.305 z"
       id="path30385" />
    <path
       style="fill:none;stroke:#009688;stroke-width:1.5;stroke-linecap:butt;stroke-linejoin:miter;stroke-opacity:1;stroke-miterlimit:4;stroke-dasharray:none"
       d="m 813.727,296.047 2.929,0.683 3.032,0.633"
       id="path30390" />
    <path
       style="display:inline;fill:none;stroke:#009688;stroke-width:1.5;stroke-linecap:butt;stroke-linejoin:miter;stroke-opacity:1;stroke-miterlimit:4;stroke-dasharray:none"
       d="m 813.727,296.047 2.55629,0.62348 3.40471,0.69252 3.124,0.578 2.92482,0.3843 3.57918,0.6127 3.364,0.414 3.425,0.359 3.481,0.297 3.527,0.242 3.567,0.18 3.593,0.121 3.618,0.058 h 3.629 l 3.628,-0.058 3.629,-0.121 3.61,-0.18 3.59,-0.242 3.558,-0.297 3.516,-0.359 3.469,-0.414 3.414,-0.469 3.347,-0.528 3.274,-0.578 3.195,-0.633 3.102,-0.683 69.832,-265.942 -9.19846,2.037331 -8.90754,1.744669 -9.414,1.664 -9.625,1.511 -9.812,1.352 -9.973,1.191 -10.117,1.028 -10.227,0.859 -10.32,0.688 -10.387,0.519 -10.426,0.348 -10.441,0.172 h -10.43 l -10.398,-0.172 -10.336,-0.348 -10.254,-0.519 -10.141,-0.688 -10.011,-0.859 -9.848,-1.028 -9.672,-1.191 -9.461,-1.352 -9.238,-1.511 -8.985,-1.664 -8.714,-1.821 -8.422,-1.961 z"
       id="path30392" />
    <path
       style="display:inline;fill:none;stroke:#009688;stroke-width:1.5;stroke-linecap:butt;stroke-linejoin:miter;stroke-opacity:1;stroke-miterlimit:4;stroke-dasharray:none"
       d="m 616.088,259.695 -2.568,-0.109 -2.691,-0.102 -2.808,-0.097 -2.917,-0.094 -3.02,-0.086 -3.115,-0.078 -3.203,-0.074 -3.284,-0.067 -3.355,-0.058 -3.42,-0.051 -3.476,-0.047 -3.523,-0.035 -3.562,-0.031 -3.592,-0.024 -3.616,-0.015 -3.626,-0.008 h -3.632 l -3.628,0.008 -3.614,0.015 -3.593,0.024 -3.563,0.031 -3.523,0.035 -3.476,0.047 -3.42,0.051 -3.355,0.058 -3.283,0.067 -3.204,0.074 -3.115,0.078 -3.019,0.086 -2.917,0.094 -2.808,0.097 -2.691,0.102 -2.569,0.109 -2.113,-0.007 -0.457,-0.102 v -126.02 l 2.568,0.11 2.571,-0.11 2.691,-0.101 2.808,-0.098 2.917,-0.094 3.019,-0.085 3.115,-0.079 3.204,-0.074 3.283,-0.066 3.355,-0.059 3.42,-0.051 3.476,-0.047 3.523,-0.035 3.563,-0.031 3.593,-0.023 3.614,-0.016 3.628,-0.004 h 3.632 l 3.626,0.004 3.616,0.016 3.592,0.023 3.562,0.031 3.523,0.035 3.476,0.047 3.42,0.051 3.355,0.059 3.284,0.066 3.203,0.074 3.115,0.079 3.02,0.085 2.917,0.094 2.808,0.098 2.691,0.101 2.568,0.11 z"
       id="path30395" />
    <path
       style="display:inline;fill:none;stroke:#009688;stroke-width:1.5;stroke-linecap:butt;stroke-linejoin:miter;stroke-opacity:1;stroke-miterlimit:4;stroke-dasharray:none"
       d="m 506.332,259.586 -2.69,-0.102 -2.808,-0.097 -2.918,-0.094 -3.02,-0.086 -3.115,-0.078 -3.203,-0.074 -3.283,-0.067 -3.356,-0.058 -3.419,-0.051 -3.476,-0.047 -3.523,-0.035 -3.562,-0.031 -3.593,-0.024 -3.615,-0.015 -3.627,-0.008 h -3.632 l -3.628,0.008 -3.614,0.015 -3.593,0.024 -3.562,0.031 -3.524,0.035 -3.475,0.047 -3.42,0.051 -3.356,0.058 -3.283,0.067 -3.203,0.074 -3.115,0.078 -3.02,0.086 -2.917,0.094 -2.807,0.097 -2.692,0.102 -2.568,0.109 V 133.676 l 2.568,-0.11 2.692,-0.101 2.807,-0.098 2.917,-0.094 3.02,-0.085 3.115,-0.079 3.203,-0.074 3.283,-0.066 3.356,-0.059 3.42,-0.051 3.475,-0.047 3.524,-0.035 3.562,-0.031 3.593,-0.023 3.614,-0.016 3.628,-0.004 h 3.632 l 3.627,0.004 3.615,0.016 3.593,0.023 3.562,0.031 3.523,0.035 3.476,0.047 3.419,0.051 3.356,0.059 3.283,0.066 3.203,0.074 3.115,0.079 3.02,0.085 2.918,0.094 2.808,0.098 2.69,0.101 z"
       id="path30398" />
    <path
       style="display:inline;fill:none;stroke:#009688;stroke-width:1.5;stroke-linecap:butt;stroke-linejoin:miter;stroke-opacity:1;stroke-miterlimit:4;stroke-dasharray:none"
       d="m 366.453,181.715 -0.984,0.285 0.16053,1.98532 0.0185,0.52668 -0.921,0.349 0.343,5.428 0.172,2.918 -0.883,0.357 0.485,9.42 -1.086,0.446 0.562,13.82 -1.211,0.412 0.875,33.756 -1.234,-0.072 -1.227,0.013 0.649,-33.761 -1.219,-0.405 0.469,-13.824 -1.086,-0.437 0.422,-9.422 -0.883,-0.352 0.461,-8.349 -0.93,-0.344 0.164,-2.512 -0.984,-0.279 -0.164,2.523 -1.383,-0.213 -0.164,2.678 -1.43,-0.017 -0.156,2.82 -1.25,0.162 -0.156,2.947 -0.555,0.131 -0.148,3.066 -0.508,0.155 -0.141,3.176 -0.461,0.168 -0.132,3.275 -0.422,0.176 -0.125,3.365 -0.383,0.178 -0.235,6.972 -0.218,7.285 -0.18,7.526 -0.156,7.693 -0.071,3.887 -0.054,3.9 -0.055,3.907 -0.039,3.902 -0.039,3.887 -0.039,7.695 0.375,0.086 0.078,21.892 0.414,0.174 0.219,12.873 0.461,0.203 0.242,8.389 0.508,0.205 0.093,2.52 0.555,0.174 -0.094,-2.526 1.25,0.211 -0.093,-2.681 1.789,-0.008 -0.086,-2.823 2.023,-0.355 -0.07,-2.938 0.937,-0.275 -0.07,-3.047 1.992,-0.781 -0.062,-3.115 1.226,-0.606 -0.047,-3.181 -0.039,-3.28 1.227,-0.631 1.453,0.69 -0.047,6.461 1.227,0.597 -0.039,3.116 1.992,0.767 -0.047,3.049 0.945,0.268 -0.054,2.937 2.023,0.344 -0.062,2.822 1.781,-0.004 -0.07,2.682 1.25,-0.221 -0.079,2.528 0.547,-0.178 0.219,-7.996 0.508,-0.19 0.141,-9.17 0.453,-0.183 0.054,-17.342 0.414,-0.131 -0.375,-30.734 0.375,0.002 -0.617,-23.004 -0.265,-7.283 -0.141,-3.528 -0.672,-6.982 -0.578,-3.449 -0.625,-3.34 -0.68,-3.215 -0.554,-0.129 -0.172,-2.945 -1.258,-0.153 -0.172,-2.82 -1.43,0.027 -0.179,-2.677 -1.383,0.222 z"
       id="path30401" />
    <path
       style="display:inline;fill:none;stroke:#009688;stroke-width:1.5;stroke-linecap:butt;stroke-linejoin:miter;stroke-opacity:1;stroke-miterlimit:4;stroke-dasharray:none"
       d="m 388.035,602.879 2.145,-0.477 -0.328,-6.593 0.609,-0.215 -0.899,-22.004 0.368,-0.141 -0.746,-24.965 0.328,-0.129 -0.856,-46.703 0.297,-0.086 -0.18,-71.277 1.571,-107.496 0.117,-8.68 -0.023,-8.476 -0.688,-0.285 0.293,-8.024 -0.609,-0.187 0.308,-7.7 -3.945,-0.605 0.324,-7.379 -4.355,-0.102 -0.325,7.383 -0.312,7.739 -0.297,8.07 -0.277,8.387 -0.262,8.683 -0.242,8.957 -0.227,9.211 -0.207,9.438 -0.183,9.648 -0.168,9.832 -0.145,9.992 -0.129,10.129 -0.101,10.242 -0.082,10.332 -0.063,10.391 -0.039,10.43 -0.019,10.445 0.003,10.43 0.024,10.39 0.051,10.332 0.066,10.243 0.09,10.129 0.113,9.992 0.133,9.832 0.152,9.648 0.172,9.442 0.196,9.21 0.21,8.958 0.231,8.683 0.25,8.387 0.269,8.074 0.282,7.738 0.3,7.387 4.36,-0.09 0.316,7.008 1.801,-0.191 z"
       id="path30404" />
    <path
       style="display:inline;fill:none;stroke:#009688;stroke-width:1.5;stroke-linecap:butt;stroke-linejoin:miter;stroke-opacity:1;stroke-miterlimit:4;stroke-dasharray:none"
       d="m 374.656,602.773 4.032,0.09 -4.868,-15.808 -2.226,-8.387 -2.071,-8.684 -1.914,-8.957 -1.757,-9.211 -1.594,-9.441 -1.43,-9.648 -1.258,-9.832 -1.078,-9.993 -0.906,-10.129 -0.727,-10.242 -0.547,-10.332 -0.367,-10.39 -0.187,-10.43 v -10.445 l 0.187,-10.43 0.367,-10.391 0.547,-10.332 0.727,-10.242 0.906,-10.129 1.078,-9.992 1.258,-9.832 1.43,-9.648 1.594,-9.442 1.757,-9.207 1.914,-8.957 2.071,-8.684 2.226,-8.39 2.36,-8.07 2.508,-7.739 -4.032,0.09 -2.508,7.734 -1.601,0.168 -2.367,8.059 -1.813,0.375 -2.211,8.348 -2.062,8.64 -1.914,8.914 -1.75,9.168 -1.586,9.395 -1.422,9.605 -1.25,9.785 -1.07,9.946 -0.907,10.082 -0.726,10.195 -0.461,0.051 -0.539,10.266 -0.367,10.328 -0.18,10.371 v 10.379 l 0.18,10.367 0.367,10.328 0.539,10.269 0.461,0.047 0.726,10.196 0.907,10.082 1.07,9.945 1.25,9.789 1.422,9.602 1.586,9.394 1.75,9.168 1.914,8.914 2.062,8.645 2.211,8.347 1.813,0.371 2.367,8.059 1.601,0.168 z"
       id="path30407" />
    <path
       style="display:inline;fill:none;stroke:#009688;stroke-width:1.5;stroke-linecap:butt;stroke-linejoin:miter;stroke-opacity:1;stroke-miterlimit:4;stroke-dasharray:none"
       d="m 349.92,246.91 -8.912,18.133 0.984,0.719 -11.678,38.105 0.506,0.348 -5.357,26.433 -3.986,28.473 -1.856,19.813 -1.187,20.254 -0.34,10.23 -0.172,10.27 0.172,20.55 0.849,20.403 0.678,10.086 0.846,9.972 1.01,9.84 1.169,9.68 1.331,9.496 1.486,9.297 1.639,9.066 1.787,8.82 1.931,8.547 -0.506,0.344 2.077,8.281 2.211,7.973 2.341,7.641 5.049,14.214 -0.486,0.395 8.414,18.457 -0.158,0.129 -2.908,-5.746 -0.327,0.222 -2.86194,-5.75188 -0.68106,-0.0561 -2.713,-6.586 -0.628,0.219 -2.604,-6.981 -3.894,0.625 -2.497,-7.379 -4.132,0.09 -2.371,-7.734 -2.241,-8.074 -2.101,-8.387 -1.963,-8.684 -1.815,-8.957 -1.664,-9.211 -1.509,-9.437 -1.352,-9.649 -1.189,-9.832 -1.026,-9.996 -0.857,-10.129 -0.69,-10.242 -0.517,-10.328 -0.346,-10.395 -0.174,-10.429 v -10.442 l 0.174,-10.429 0.346,-10.395 0.53303,-10.7267 0.67397,-9.8433 0.857,-10.133 1.026,-9.992 1.189,-9.832 1.352,-9.649 1.509,-9.441 1.664,-9.207 1.815,-8.957 1.963,-8.684 2.101,-8.386 2.241,-8.075 2.371,-7.738 4.132,0.094 2.497,-7.383 3.894,0.629 2.604,-6.981 0.628,0.215 2.713,-6.582 0.381,0.172 3.162,-5.984 0.327,0.226 2.908,-5.746 z"
       id="path30410" />
    <path
       style="display:inline;fill:none;stroke:#009688;stroke-width:1.5;stroke-linecap:butt;stroke-linejoin:miter;stroke-opacity:1;stroke-miterlimit:4;stroke-dasharray:none"
       d="m 288.566,251.15 -0.601,-0.658 -2.195,2.807 -2.325,2.691 -2.445,2.569 -2.566,2.439 -2.676,2.305 -2.778,2.162 -2.878,2.019 -2.969,1.868 -6.18,3.263 -3.195,1.391 -3.262,1.223 -3.308,1.054 -3.36,0.883 -3.394,0.709 -3.422,0.533 -3.446,0.356 -3.75844,0.0769 -3.15556,0.10007 -3.457,-0.177 -3.445,-0.356 -3.63382,-0.71701 -3.18218,-0.52499 -3.36,-0.883 -3.308,-1.054 -3.48255,-1.41722 -2.97445,-1.19678 -3.129,-1.553 -3.051,-1.71 -2.969,-1.868 -2.879,-2.019 -2.777,-2.162 -2.676,-2.305 -2.566,-2.439 -2.446,-2.569 -2.324,-2.691 -2.195,-2.807 -2.063,-2.918 -1.922,-3.019 -1.781,-3.116 -1.629,-3.203 -1.48,-3.283 -1.324,-3.355 -1.168,-3.42 -1.004,-3.475 -0.84,-3.523 -0.676,-3.563 -0.6421,-3.86938 -0.2059,-3.33762 -0.167,-3.629 v -3.631 l 0.167,-3.627 0.848,-7.209 0.676,-3.56 0.84,-3.524 1.004,-3.476 1.168,-3.42 1.324,-3.355 1.48,-3.284 1.629,-3.203 1.781,-3.115 1.922,-3.02 2.063,-2.918 2.195,-2.806 2.324,-2.692 2.446,-2.568 2.566,-2.439 2.676,-2.303 2.777,-2.164 2.879,-2.018 2.969,-1.867 3.31554,-1.78921 2.86446,-1.47679 3.195,-1.39 3.262,-1.223 3.308,-1.055 3.36,-0.882 3.394,-0.709 3.422,-0.532 3.73426,-0.24681 6.62474,-0.28819 3.457,0.178 3.446,0.357 3.422,0.532 3.394,0.709 3.36,0.882 3.308,1.055 3.262,1.223 3.195,1.39 3.129,1.553 3.051,1.713 2.969,1.867 2.878,2.018 2.778,2.164 2.676,2.303 2.566,2.439 2.445,2.568 2.325,2.692 2.195,2.806 0.601,-0.656 -2.226,-2.849 -2.356,-2.729 -2.484,-2.605 -2.602,-2.475 0.606,-1.154 -2.77,-2.385 -2.875,-2.238 -2.98,-2.09 0.312,-1.108 -3.125,-1.964 -0.257,1.14 -3.161,-1.771 -3.238,-1.608 -2.99477,-1.40411 -3.68523,-1.30089 -3.429,-1.092 -3.473,-0.914 -3.516,-0.732 -3.542,-0.553 -3.563,-0.367 -0.266,-1.309 -3.64,-0.187 h -3.641 l -3.64,0.187 -3.625,0.375 -3.606,0.561 -3.57,0.746 -3.535,0.93 -3.489,1.109 -3.429,1.289 -0.727,-1.008 -3.414,1.485 -3.34,1.656 -3.258,1.828 -3.168,1.992 -0.726,-0.668 -3.102,2.176 -2.996,2.332 -2.883,2.484 -0.59,-0.394 -2.781,2.646 -2.656,2.786 -2.523,2.921 -0.598,-0.287 -2.395,3.063 -2.25,3.183 -2.097,3.293 -1.938,3.401 -1.781,3.494 -1.613,3.582 -1.446,3.66 -1.273,3.733 -1.094,3.791 -0.918,3.843 -0.738,3.887 0.691,0.074 -0.55,3.899 -0.368,3.922 -0.185,4.31 0.002,3.569 0.183,3.935 0.918,7.82 -0.691,0.075 0.738,3.886 0.918,3.844 1.094,3.793 1.273,3.73 1.446,3.661 1.613,3.582 1.781,3.496 1.938,3.398 2.097,3.295 2.5696,3.56714 2.0754,2.67886 0.598,-0.287 2.523,2.92 2.83215,3.0428 2.60485,2.3912 0.59,-0.397 2.883,2.485 2.996,2.332 3.102,2.175 0.726,-0.668 3.168,1.993 3.258,1.828 3.34,1.656 3.414,1.484 0.727,-1.008 3.429,1.29 3.489,1.109 3.535,0.93 3.57,0.746 3.606,0.56 3.625,0.375 3.64,0.188 h 3.641 l 3.64,-0.188 0.266,-1.306 3.563,-0.37 3.542,-0.55 3.516,-0.735 3.473,-0.914 3.429,-1.09 3.372,-1.267 3.308,-1.438 3.238,-1.607 3.161,-1.774 0.257,1.141 3.125,-1.965 -0.312,-1.107 2.98,-2.088 2.875,-2.24 2.77,-2.385 -0.606,-1.154 2.602,-2.473 2.484,-2.605 2.356,-2.731 z"
       id="path30413" />
    <path
       style="display:inline;fill:none;stroke:#009688;stroke-width:1.5;stroke-linecap:butt;stroke-linejoin:miter;stroke-opacity:1;stroke-miterlimit:4;stroke-dasharray:none"
       d="m 70.408,282.816 0.132,-0.363 7.568,0.391 3.79,-0.092 7.547,-0.76 7.442,-1.515 3.66,-1.039 3.606,-1.221 3.544,-1.405 3.474,-1.578 3.396,-1.754 3.308,-1.921 3.214,-2.086 3.112,-2.246 3.001,-2.401 2.884,-2.549 -0.266,-0.435 2.739,-2.672 2.609,-2.805 4.804,-5.984 -0.392,-0.375 2.165,-3.141 2.014,-3.246 1.857,-3.344 1.696,-3.431 1.531,-3.514 1.362,-3.586 1.19,-3.65 1.015,-3.703 0.838,-3.75 0.658,-3.787 -0.731,-0.122 0.472,-3.773 0.291,-3.791 0.113,-4.172 0.183,-3.937 -0.507,-3.282 -1.042,-7.519 -1.753,-7.373 0.705,-0.264 -1.151,-3.652 -1.324,-3.588 -1.494,-3.516 -1.659,-3.435 -1.822,-3.346 -1.979,-3.25 -2.132,-3.146 -2.28,-3.032 -2.422,-2.914 -2.558,-2.787 0.337,-0.461 -2.711,-2.674 -2.835,-2.535 -2.954,-2.387 -3.064,-2.234 0.204,-0.51 -3.192,-2.092 -3.288,-1.929 -3.377,-1.758 -3.412,-1.936 -3.546,-1.416 -3.622,-0.871 -3.648,-1.045 -3.694,-0.859 -3.732,-0.672 -3.76,-0.48 -3.779,-0.291 -4.374326,-0.17666 -3.204674,0.17066 -3.91,-0.094 -3.782,0.477 -3.756,0.668 -3.721,0.857 -3.676,1.043 -4.238831,1.20188 -2.945169,1.43512 -3.49,1.586 -3.412,1.761 -0.257,-0.308 -3.338,1.939 -3.243,2.106 -3.139,2.265 -3.028,2.422 -2.91,2.571 -0.31,-0.233 -2.795,2.725 -2.663,2.861 -2.523,2.994 -0.319,-0.176 -2.386,3.125 -2.235,3.243 -2.079,3.351 -1.917,3.451 -1.75,3.543 -1.822268,4.13195 -1.163732,3.19405 -1.228,3.768 -1.048,3.822 -0.864,3.871 -0.68,3.909 0.374,0.048 -0.49,3.926 -0.304,3.944 -0.115,3.953 0.073,3.955 0.262,3.945 0.449,3.926 0.635,3.896 0.821,3.86 1.004,3.814 1.184,3.756 1.362,3.691 1.537,3.618 1.707,3.535 1.532,3.566 2.043,3.356 2.201,3.246 2.353,3.129 2.777505,3.44878 2.362495,2.43322 2.775,2.741 0.608,-0.401 2.58,2.803 3.014,2.436 3.127,2.279 0.567,-0.516 2.932,2.385 3.317,1.945 3.407,1.774 3.488,1.601 0.465,-0.642 3.313,1.752 3.609,1.232 3.666,1.051 3.711,0.863 3.749,0.674 z"
       id="path30416" />
    <path
       style="display:inline;fill:none;stroke:#009688;stroke-width:1.5;stroke-linecap:butt;stroke-linejoin:miter;stroke-opacity:1;stroke-miterlimit:4;stroke-dasharray:none"
       d="m 71.676,276.941 3.514,0.272 3.523,0.092 3.525,-0.086 3.517,-0.264 3.5,-0.441 3.477,-0.619 3.901463,-1.09378 2.943537,-0.66422 3.353,-1.135 3.80073,-1.64376 2.72527,-1.12924 3.158,-1.631 3.076,-1.787 2.988,-1.94 2.893,-2.088 2.791,-2.232 2.682,-2.369 2.566,-2.502 2.444,-2.627 2.317,-2.748 2.184,-2.862 2.046,-2.966 1.902,-3.067 1.754,-3.158 1.602,-3.242 1.446,-3.319 1.287,-3.386 1.124,-3.448 0.959,-3.498 0.791,-3.543 0.621,-3.578 0.451,-3.603 0.279,-3.621 0.105,-3.631 -0.067,-3.629 -0.24,-3.623 -0.412,-3.604 -0.584,-3.578 -0.753,-3.545 -0.922,-3.5 -1.087,-3.449 -1.251,-3.389 -1.411,-3.322 -1.567,-3.244 -1.721,-3.162 -1.869,-3.07 -2.014,-2.971 -2.154,-2.863 -2.287,-2.752 -2.417,-2.633 -2.12394,-2.14758 -3.07206,-2.73342 -2.767,-2.236 -2.871,-2.094 -2.967,-1.945 -3.058,-1.793 -3.14,-1.635 -3.214,-1.475 -3.282,-1.31 -3.341,-1.141 -3.392,-0.973 -3.435,-0.798 -3.47,-0.623 -3.496,-0.45 -3.514,-0.269 -3.523,-0.092 c 0,0 -3.524,0.086 -3.524,0.086 l -3.517,0.264 -3.501,0.441 -3.476,0.617 -2.772911,0.70447 L 58.636,132.5 l -3.353,1.137 -3.296,1.304 -3.23,1.469 -3.157,1.629 -3.077,1.787 -2.988,1.94 -2.893,2.089 -2.791,2.231 -2.681,2.371 -2.567,2.5 -2.444,2.629 -2.317,2.748 -2.184,2.859 -2.045,2.969 -1.902,3.067 -1.755,3.156 -1.602,3.242 -1.446,3.32 -1.167974,2.82768 -1.242026,4.00632 -0.959,3.498 -0.791,3.543 -0.622,3.576 -0.451,3.606 -0.278,3.621 -0.039,7.26 0.24,3.621 0.413,3.605 0.583,3.578 0.754,3.543 0.921,3.502 2.338,6.838 2.529,6.803 1.732,3.184 2.308,2.81 2.014,2.971 2.153,2.865 2.288,2.752 1.843761,2.37007 3.112239,2.76893 2.656,2.373 2.767,2.238 2.871,2.092 2.697,2.379 3.078,1.804 3.162,1.647 3.236,1.484 3.305,1.319 3.363,1.15 3.415,0.979 3.573,0.308 3.47,0.625 z"
       id="path30419" />
  </g>
</svg>
